<?xml version="1.0" encoding="UTF-8" standalone="no"?>
<svg
   xmlns:dc="http://purl.org/dc/elements/1.1/"
   xmlns:cc="http://creativecommons.org/ns#"
   xmlns:rdf="http://www.w3.org/1999/02/22-rdf-syntax-ns#"
   xmlns:svg="http://www.w3.org/2000/svg"
   xmlns="http://www.w3.org/2000/svg"
   xmlns:sodipodi="http://sodipodi.sourceforge.net/DTD/sodipodi-0.dtd"
   xmlns:inkscape="http://www.inkscape.org/namespaces/inkscape"
   width="5.0668001cm"
   height="5.0668001cm"
   version="1.1"
   id="svg9"
   sodipodi:docname="shape.svg"
   inkscape:version="0.92.2 5c3e80d, 2017-08-06">
  <metadata
     id="metadata15">
    <rdf:RDF>
      <cc:Work
         rdf:about="">
        <dc:format>image/svg+xml</dc:format>
        <dc:type
           rdf:resource="http://purl.org/dc/dcmitype/StillImage" />
        <dc:title>green bunny silhouette</dc:title>
      </cc:Work>
    </rdf:RDF>
  </metadata>
  <defs
     id="defs13" />
  <sodipodi:namedview
     pagecolor="#ffffff"
     bordercolor="#666666"
     borderopacity="1"
     objecttolerance="10"
     gridtolerance="10"
     guidetolerance="10"
     inkscape:pageopacity="0"
     inkscape:pageshadow="2"
     inkscape:window-width="1366"
     inkscape:window-height="718"
     id="namedview11"
     showgrid="false"
     fit-margin-top="1"
     units="cm"
     fit-margin-left="1"
     fit-margin-right="1"
     fit-margin-bottom="1"
     inkscape:zoom="1.8377511"
     inkscape:cx="157.85517"
     inkscape:cy="32.781013"
     inkscape:window-x="1920"
     inkscape:window-y="0"
     inkscape:window-maximized="1"
     inkscape:current-layer="g7" />
  <title
     id="title2">green bunny silhouette</title>
  <g
     id="g7"
     transform="matrix(0.13032789,0,0,0.13032789,56.090615,55.632704)"
     style="fill:none;stroke:#000004;stroke-width:23.2001152;stroke-miterlimit:4;stroke-dasharray:none;stroke-opacity:1">
    <title
       id="title4">Layer 1</title>
    <path
       style="color:#000000;font-style:normal;font-variant:normal;font-weight:normal;font-stretch:normal;font-size:medium;line-height:normal;font-family:sans-serif;font-variant-ligatures:normal;font-variant-position:normal;font-variant-caps:normal;font-variant-numeric:normal;font-variant-alternates:normal;font-feature-settings:normal;text-indent:0;text-align:start;text-decoration:none;text-decoration-line:none;text-decoration-style:solid;text-decoration-color:#000000;letter-spacing:normal;word-spacing:normal;text-transform:none;writing-mode:lr-tb;direction:ltr;text-orientation:mixed;dominant-baseline:auto;baseline-shift:baseline;text-anchor:start;white-space:normal;shape-padding:0;clip-rule:nonzero;display:inline;overflow:visible;visibility:visible;opacity:0.9;isolation:auto;mix-blend-mode:normal;color-interpolation:sRGB;color-interpolation-filters:linearRGB;solid-color:#000000;solid-opacity:1;vector-effect:none;fill:#000004;fill-opacity:1;fill-rule:nonzero;stroke:none;stroke-width:3.02362204;stroke-linecap:butt;stroke-linejoin:miter;stroke-miterlimit:4;stroke-dasharray:none;stroke-dashoffset:0;stroke-opacity:1;color-rendering:auto;image-rendering:auto;shape-rendering:auto;text-rendering:auto;enable-background:accumulate"
       d="M 95.75 29.794922 C 63.760091 29.794922 29.794922 63.760091 29.794922 95.75 C 29.794922 127.73991 63.760091 161.70508 95.75 161.70508 C 127.73991 161.70508 161.70508 127.73991 161.70508 95.75 C 161.70508 63.760091 127.73991 29.794922 95.75 29.794922 z M 94.306641 40.855469 C 94.105275 47.54759 97.291732 54.901057 96.294922 61.423828 C 95.800036 62.676572 95.722485 63.984438 95.777344 65.248047 C 95.887059 67.775265 96.498642 70.285202 96.427734 71.869141 L 96.408203 72.277344 L 96.599609 72.638672 C 97.784343 74.899579 99.352039 76.846 100.41602 78.761719 C 101.47998 80.677438 102.0604 82.43086 101.60156 84.603516 L 101.56445 84.777344 L 101.56836 84.953125 C 101.60376 86.345755 100.71011 87.981819 99.423828 88.957031 C 98.137549 89.932244 96.725372 90.231654 95.441406 89.511719 C 91.852422 87.240484 87.68967 87.732478 84.275391 88.037109 L 84.259766 88.039062 L 84.242188 88.041016 C 77.329083 88.810855 72.16903 93.664152 68.074219 98.261719 L 68.058594 98.279297 L 68.044922 98.296875 C 64.468475 102.55815 64.558047 108.03877 64.597656 112.75195 C 63.644753 112.67655 62.628598 112.67455 61.601562 113.01172 C 60.772457 113.28394 59.89955 113.90737 59.460938 114.85156 C 59.381265 115.02307 59.328179 115.20348 59.275391 115.38477 L 46.914062 120.90234 C 43.027203 113.36558 40.818359 104.82026 40.818359 95.75 C 40.818359 65.878317 64.62109 41.622171 94.306641 40.855469 z M 110.78711 42.916016 C 133.82092 49.451768 150.68164 70.611163 150.68164 95.75 C 150.68164 108.3107 146.46479 119.87516 139.38086 129.125 L 114.63867 119.35742 C 115.28888 118.85578 116.23404 118.33127 117.28516 117.6543 C 118.07407 117.14619 118.91274 116.50766 119.50391 115.52734 C 120.04608 114.62828 120.27804 113.46098 120.13672 112.1875 C 120.80856 108.63353 121.62628 105.03834 120.73828 101.12891 C 121.51013 100.75736 122.64483 100.52808 123.99219 100.22266 C 125.75083 99.823986 127.95751 99.058034 129.1582 96.849609 C 130.7929 94.871923 130.79205 92.489373 130.04492 90.714844 C 129.28466 88.909126 128.0227 87.449111 127.22656 86.230469 C 126.40804 84.769836 125.53097 82.978508 124.27148 81.386719 C 122.99767 79.776811 121.22043 78.337741 118.80859 77.998047 L 118.76367 77.992188 L 118.71875 77.988281 C 117.87569 77.919661 117.55343 77.71677 117.34375 77.507812 C 117.13407 77.298858 116.96899 76.963615 116.85352 76.392578 C 116.6226 75.250605 116.79032 73.430373 116.27734 71.580078 C 115.36763 67.715928 113.75462 64.053882 111.65039 60.732422 L 111.56055 60.589844 L 110.78711 42.916016 z M 100.30078 61.126953 C 100.83344 61.145963 101.22749 61.366602 101.72852 61.84375 C 102.30433 62.392121 102.88053 63.254717 103.4707 64.111328 C 103.7483 64.695749 104.00936 65.167749 104.49219 65.580078 C 104.75827 65.807313 105.1368 66.027071 105.59961 66.082031 C 106.06242 66.136991 106.53227 65.991131 106.8418 65.802734 C 107.46086 65.425937 107.66604 65.012136 107.88086 64.636719 C 108.09568 64.261302 108.2671 63.886008 108.4375 63.533203 C 108.69557 62.998884 108.94902 62.624806 109.08594 62.431641 C 109.11664 62.449931 109.13384 62.473201 109.19336 62.519531 C 111.09218 65.553605 112.54062 68.868423 113.34766 72.326172 L 113.35547 72.357422 L 113.36328 72.386719 C 113.65404 73.435282 113.52465 75.191971 113.88867 76.992188 C 114.07068 77.892294 114.42637 78.87048 115.20898 79.650391 C 115.9916 80.430301 117.13251 80.892714 118.47461 81.001953 L 118.38672 80.992188 C 119.87062 81.201186 120.90544 82.004251 121.90039 83.261719 C 122.89535 84.519187 123.73522 86.192563 124.62109 87.767578 L 124.64453 87.808594 L 124.66992 87.849609 C 125.62482 89.319489 126.76241 90.707389 127.25977 91.888672 C 127.75712 93.069953 127.87179 93.75199 126.77344 95.003906 L 126.64648 95.150391 L 126.55859 95.324219 C 125.92833 96.584398 124.9305 96.909314 123.32422 97.273438 C 121.71794 97.637557 119.60598 97.801492 117.9668 99.404297 L 117.30664 100.05078 L 117.58008 100.93164 C 118.66302 104.44421 117.88497 107.77833 117.12891 111.81445 L 117.08008 112.07617 L 117.125 112.33789 C 117.2656 113.19057 117.139 113.59175 116.91406 113.96484 C 116.68907 114.33794 116.2651 114.71416 115.64844 115.11133 C 114.41512 115.90566 112.40177 116.60646 111.26367 118.62305 L 111.15625 118.81641 L 111.10742 119.0332 C 110.74887 120.62022 111.42192 122.13222 112.33398 123.02148 C 113.24605 123.91074 114.31784 124.43316 115.20312 124.91016 C 116.08439 125.38498 116.74923 125.86442 116.85156 126.00195 C 116.84656 126.02295 116.81407 126.08195 116.75977 126.18359 C 113.82857 127.53989 109.87105 126.8805 107.1875 124.87891 C 105.60144 122.89834 103.42803 121.81436 101.19922 121.60742 C 98.88366 121.39243 96.527886 122.05186 94.476562 123.33398 L 93.619141 123.86914 L 93.787109 124.86523 C 93.915485 125.63296 94.176601 126.67167 94.115234 127.46875 C 94.084554 127.86729 93.9798 128.10661 93.904297 128.19727 C 93.830117 128.28637 93.760761 128.38132 93.255859 128.41016 C 90.114738 128.44136 86.782868 127.88534 83.277344 127.86328 L 83.257812 127.86328 L 83.238281 127.86328 C 79.018561 127.94598 74.829846 126.30472 70.181641 125.40234 L 70.035156 125.375 L 69.884766 125.375 C 66.028551 125.3959 62.329632 121.66089 62.238281 117.79883 L 62.234375 117.66992 L 62.210938 117.54492 C 62.042104 116.68308 62.141115 116.25845 62.203125 116.125 C 62.265115 115.99155 62.269915 115.97311 62.544922 115.88281 C 63.094938 115.70223 64.550516 115.78378 65.964844 115.92578 L 67.619141 116.0918 L 67.626953 114.42969 C 67.653623 109.2272 67.343275 103.84868 70.351562 100.25195 C 74.293748 95.829166 78.91432 91.680994 84.566406 91.046875 C 88.021621 90.738792 91.386233 90.487356 93.882812 92.099609 L 93.921875 92.125 L 93.962891 92.148438 C 96.434465 93.534276 99.262692 92.875379 101.25195 91.367188 C 103.19023 89.897653 104.57304 87.602803 104.58203 85.074219 C 105.1631 82.092762 104.27805 79.485136 103.06055 77.292969 C 101.88086 75.168886 100.42951 73.315662 99.435547 71.507812 C 99.439247 69.307553 98.880144 67.035218 98.796875 65.117188 C 98.752115 64.086099 98.845745 63.197566 99.107422 62.535156 C 99.336275 61.955842 99.669295 61.518835 100.30078 61.126953 z M 99.958984 124.60547 C 100.28473 124.58463 100.60599 124.58804 100.91992 124.61719 C 102.46908 124.76102 103.84624 125.43685 104.95898 126.91992 L 105.08203 127.08594 L 105.24805 127.21289 C 106.77614 128.38434 108.59042 129.22644 110.49414 129.6543 L 126.4043 141.34766 C 117.65055 147.24142 107.10508 150.68164 95.75 150.68164 C 79.813887 150.68164 65.477971 143.901 55.447266 133.07422 L 65.035156 127.14648 C 66.443335 127.90534 68.020807 128.35946 69.677734 128.38867 C 73.917943 129.22196 78.299713 130.97421 83.259766 130.88672 C 86.453232 130.90682 89.813401 131.47633 93.332031 131.43555 L 93.361328 131.43359 L 93.392578 131.43359 C 94.54651 131.37509 95.593841 130.89485 96.228516 130.13281 C 96.863189 129.37078 97.070794 128.48136 97.130859 127.70117 C 97.197139 126.84033 97.098229 126.05142 96.984375 125.41992 C 97.964293 124.95002 98.981749 124.668 99.958984 124.60547 z "
       transform="matrix(7.6729547,0,0,7.6729547,-430.38075,-426.86722)"
       id="rabbit" />
  </g>
</svg>
