<?xml version="1.0" encoding="UTF-8" standalone="no"?>
<!-- Created with Inkscape (http://www.inkscape.org/) -->

<svg
   xmlns:dc="http://purl.org/dc/elements/1.1/"
   xmlns:cc="http://creativecommons.org/ns#"
   xmlns:rdf="http://www.w3.org/1999/02/22-rdf-syntax-ns#"
   xmlns:svg="http://www.w3.org/2000/svg"
   xmlns="http://www.w3.org/2000/svg"
   xmlns:sodipodi="http://sodipodi.sourceforge.net/DTD/sodipodi-0.dtd"
   xmlns:inkscape="http://www.inkscape.org/namespaces/inkscape"
   width="8.8359795cm"
   height="7.3360076cm"
   viewBox="0 0 88.359795 73.360074"
   version="1.1"
   id="svg4592"
   inkscape:version="0.92.2 2405546, 2018-03-11"
   sodipodi:docname="base.svg">
  <defs
     id="defs4586" />
  <sodipodi:namedview
     id="base"
     pagecolor="#ffffff"
     bordercolor="#666666"
     borderopacity="1.0"
     inkscape:pageopacity="0.0"
     inkscape:pageshadow="2"
     inkscape:zoom="1.686789"
     inkscape:cx="72.289307"
     inkscape:cy="88.697201"
     inkscape:document-units="mm"
     inkscape:current-layer="layer1"
     showgrid="false"
     inkscape:window-width="1366"
     inkscape:window-height="718"
     inkscape:window-x="1920"
     inkscape:window-y="0"
     inkscape:window-maximized="1"
     units="cm"
     fit-margin-top="1"
     fit-margin-right="1"
     fit-margin-left="1"
     fit-margin-bottom="1" />
  <metadata
     id="metadata4589">
    <rdf:RDF>
      <cc:Work
         rdf:about="">
        <dc:format>image/svg+xml</dc:format>
        <dc:type
           rdf:resource="http://purl.org/dc/dcmitype/StillImage" />
        <dc:title />
      </cc:Work>
    </rdf:RDF>
  </metadata>
  <g
     inkscape:label="Layer 1"
     inkscape:groupmode="layer"
     id="layer1"
     transform="translate(4.8602235e-8,-223.63992)">
    <path
       style="color:#000000;font-style:normal;font-variant:normal;font-weight:normal;font-stretch:normal;font-size:medium;line-height:normal;font-family:sans-serif;font-variant-ligatures:normal;font-variant-position:normal;font-variant-caps:normal;font-variant-numeric:normal;font-variant-alternates:normal;font-feature-settings:normal;text-indent:0;text-align:start;text-decoration:none;text-decoration-line:none;text-decoration-style:solid;text-decoration-color:#000000;letter-spacing:normal;word-spacing:normal;text-transform:none;writing-mode:lr-tb;direction:ltr;text-orientation:mixed;dominant-baseline:auto;baseline-shift:baseline;text-anchor:start;white-space:normal;shape-padding:0;clip-rule:nonzero;display:inline;overflow:visible;visibility:visible;opacity:1;isolation:auto;mix-blend-mode:normal;color-interpolation:sRGB;color-interpolation-filters:linearRGB;solid-color:#000000;solid-opacity:1;vector-effect:none;fill:#000000;fill-opacity:1;fill-rule:nonzero;stroke:none;stroke-width:11.33858299;stroke-linecap:butt;stroke-linejoin:miter;stroke-miterlimit:4;stroke-dasharray:none;stroke-dashoffset:0;stroke-opacity:1;color-rendering:auto;image-rendering:auto;shape-rendering:auto;text-rendering:auto;enable-background:accumulate"
       d="M 170.07227 29.175781 C 166.53582 29.175781 162.86383 29.595088 159.62695 32.808594 C 155.00371 37.398565 153.83634 43.427646 153.50586 49.091797 C 153.32622 49.254695 152.94306 49.249338 152.79102 49.416016 C 151.51408 50.816368 150.863 52.23793 150.34766 53.646484 C 149.31696 56.463669 148.89674 59.420442 148.61914 62.373047 C 148.30945 65.666792 148.43611 66.935621 148.43555 69.392578 C 125.82878 69.445869 89.127939 69.92513 63.330078 74.876953 C 56.439807 76.199523 50.394783 77.810466 45.451172 80.050781 C 40.507561 82.291134 36.067944 85.226168 34.488281 90.541016 C 32.908619 95.855901 35.584228 101.35086 40.03125 105.71875 C 44.478272 110.08664 51.119117 114.37524 60.708984 119.22656 L 61.019531 119.39062 L 61.335938 119.5 C 90.041047 129.87809 118.29674 135.86104 144.92773 138.11719 L 144.99414 138.125 L 145.06836 138.125 C 147.08633 138.24632 148.70476 138.35476 149.24609 138.55273 C 149.34256 138.58796 149.4002 138.57973 149.44141 138.55859 C 149.43005 138.67033 149.42253 138.82341 149.45312 139.12891 L 149.46094 139.14453 L 156.06055 203.00586 C 150.17683 204.61435 144.05617 206.75838 138.7793 209.98047 C 135.39557 212.04655 132.35038 214.44944 130.11328 217.63672 C 127.87619 220.82396 126.601 225.208 127.67773 229.47656 L 127.81836 230.03711 L 128.06836 230.5625 C 131.44607 237.5194 138.62313 240.22295 145.4375 241.8418 C 152.25187 243.46068 158.98876 243.8317 164.44727 242.39453 L 165.125 242.2168 L 165.74609 241.87891 C 168.01274 240.62894 169.24484 238.86535 170.16016 237.46484 C 171.00117 238.91539 172.32492 240.99819 174.73633 242.0918 L 175.17969 242.29883 L 175.66016 242.41797 C 181.12822 243.82845 187.89387 243.46858 194.71289 241.84766 C 201.53191 240.22673 208.69878 237.51479 212.07422 230.5625 L 212.33203 230.03711 L 212.47266 229.47656 C 213.60473 224.9886 211.97802 220.50417 209.53516 217.34766 C 207.0923 214.19118 203.87268 211.80583 200.375 209.73828 C 195.07057 206.60275 189.31938 204.53536 184.08203 203.03516 L 190.68945 139.14453 L 190.68945 139.12891 C 190.71959 138.82817 190.70882 138.68355 190.69336 138.57422 C 190.74595 138.59696 190.8191 138.60561 190.94727 138.56055 C 191.62215 138.32319 193.63588 138.19756 196.02539 138.0293 L 196.0625 138.0293 L 196.09961 138.02148 C 221.86633 135.85842 250.10152 129.87813 278.80664 119.5 L 279.13281 119.39062 L 279.44141 119.22656 C 289.03128 114.37524 295.66353 110.0855 300.11133 105.71875 C 304.55913 101.352 307.24483 95.871337 305.67773 90.556641 C 304.11064 85.241945 299.68232 82.300496 294.75195 80.058594 C 289.82159 77.816654 283.78906 76.199826 276.92383 74.876953 C 251.1822 69.916739 214.59314 69.444358 192.35742 69.392578 C 192.28074 66.90803 192.36268 65.390028 191.92188 62.033203 C 191.53636 59.097304 191.00962 56.162581 189.86914 53.388672 C 189.2989 52.001736 188.58983 50.609752 187.28711 49.269531 C 187.14492 49.123264 186.80027 49.130769 186.63672 48.988281 C 186.31126 43.47482 185.2349 37.49192 180.51758 32.808594 C 177.2807 29.59505 173.60871 29.175781 170.07227 29.175781 z M 170.07227 40.513672 C 171.65397 40.513672 173.09989 41.420142 172.5293 40.853516 C 174.68817 42.996848 175.67383 47.3148 175.67383 52.347656 L 175.67383 58.017578 L 179.45312 58.017578 C 179.88696 59.174794 180.37895 61.219448 180.67969 63.509766 C 181.14902 67.084076 181.27855 70.881033 181.32031 73.1875 L 169.11719 94.486328 L 159.625 79.5 L 159.625 74.958984 C 159.625 73.217907 159.4533 68.328648 159.91406 63.427734 C 160.12594 61.174153 160.52464 59.211417 160.90234 58.017578 L 164.50586 58.017578 L 164.46875 52.310547 C 164.44116 47.561759 165.90739 42.556823 167.62109 40.855469 C 167.05052 41.421907 168.48861 40.515625 170.07031 40.515625 L 170.07227 40.513672 z M 150.81055 80.638672 L 163.74219 103.86914 L 150.39453 127.16797 C 148.26295 126.7779 146.54827 126.85674 145.74805 126.80859 L 145.88867 126.82422 C 120.38042 124.6632 93.214421 118.91233 65.566406 108.95312 C 56.765247 104.47157 50.917709 100.51197 47.982422 97.628906 C 45.004309 94.703816 45.315962 93.90174 45.353516 93.775391 C 45.390933 93.649154 46.558083 91.998018 50.130859 90.378906 C 53.703635 88.759832 59.088604 87.234824 65.470703 86.009766 C 89.880319 81.324429 128.51781 80.686239 150.81055 80.638672 z M 191.5957 80.642578 C 213.73528 80.716748 251.00872 81.428617 274.7832 86.009766 C 281.13909 87.234522 286.49945 88.76142 290.05664 90.378906 C 293.61383 91.996431 294.76543 93.633227 294.80273 93.759766 C 294.84015 93.88638 295.14853 94.702683 292.16797 97.628906 C 289.2294 100.51393 283.37598 104.4679 274.57031 108.95117 C 246.92724 118.90713 219.7561 124.66128 195.1543 126.72656 C 193.95305 126.80605 192.07364 126.74234 189.81836 127.16602 L 176.52539 106.18164 L 191.5957 80.642578 z M 170.61133 116.20508 L 180.56055 134.07812 C 179.96642 135.28514 179.55005 136.60409 179.41016 138 L 172.44531 205.32422 L 167.70898 205.41797 L 160.74023 138 C 160.61668 136.76714 160.28709 135.59446 159.81055 134.50977 L 170.61133 116.20508 z M 171.81055 211.46289 L 171.79102 211.64844 L 176.80273 212.68945 C 181.51918 213.66801 189.14454 216.27816 194.60156 219.50391 C 197.33008 221.11678 199.49831 222.90701 200.56641 224.28711 C 201.37927 225.33744 201.28193 225.67675 201.25977 226.125 C 200.13628 227.49039 196.80148 229.693 192.0918 230.8125 C 187.19726 231.97599 181.8476 231.86893 179.34375 231.40234 C 178.94396 230.51442 178.15144 228.67411 176.23438 226.95117 C 174.83189 225.64451 172.70322 224.22337 170.00586 224.27148 C 167.26108 224.32024 165.26875 225.72278 163.91406 226.95898 L 163.90039 226.97461 L 163.89258 226.98047 C 161.88748 228.83327 161.469 230.33613 161.05078 231.04102 C 160.88819 231.31503 160.83437 231.27856 160.74805 231.39648 C 158.32512 231.8594 152.96029 231.97701 148.05859 230.8125 C 143.31737 229.68616 139.93776 227.44618 138.8457 226.08789 C 138.80507 225.54062 138.71831 225.11494 139.39258 224.1543 C 140.28084 222.88876 142.15743 221.20547 144.69141 219.6582 C 149.75936 216.56371 157.26724 213.95561 163.35352 212.68164 L 168.35156 211.63477 L 171.81055 211.46289 z "
       transform="matrix(0.26458333,0,0,0.26458333,-4.8602235e-8,223.63992)"
       id="path12" />
  </g>
</svg>
