<?xml version="1.0" encoding="UTF-8" standalone="no"?>
<!-- Created with Inkscape (http://www.inkscape.org/) -->

<svg
   xmlns:dc="http://purl.org/dc/elements/1.1/"
   xmlns:cc="http://creativecommons.org/ns#"
   xmlns:rdf="http://www.w3.org/1999/02/22-rdf-syntax-ns#"
   xmlns:svg="http://www.w3.org/2000/svg"
   xmlns="http://www.w3.org/2000/svg"
   xmlns:sodipodi="http://sodipodi.sourceforge.net/DTD/sodipodi-0.dtd"
   xmlns:inkscape="http://www.inkscape.org/namespaces/inkscape"
   width="8.8359795cm"
   height="7.3360076cm"
   viewBox="0 0 88.359795 73.360074"
   version="1.1"
   id="svg4592"
   inkscape:version="0.92.2 2405546, 2018-03-11"
   sodipodi:docname="shape.svg">
  <defs
     id="defs4586" />
  <sodipodi:namedview
     id="base"
     pagecolor="#ffffff"
     bordercolor="#666666"
     borderopacity="1.0"
     inkscape:pageopacity="0.0"
     inkscape:pageshadow="2"
     inkscape:zoom="0.54331213"
     inkscape:cx="221.7946"
     inkscape:cy="300.48838"
     inkscape:document-units="mm"
     inkscape:current-layer="layer1"
     showgrid="false"
     inkscape:window-width="1366"
     inkscape:window-height="718"
     inkscape:window-x="1920"
     inkscape:window-y="0"
     inkscape:window-maximized="1"
     units="cm"
     fit-margin-top="1"
     fit-margin-right="1"
     fit-margin-left="1"
     fit-margin-bottom="1" />
  <metadata
     id="metadata4589">
    <rdf:RDF>
      <cc:Work
         rdf:about="">
        <dc:format>image/svg+xml</dc:format>
        <dc:type
           rdf:resource="http://purl.org/dc/dcmitype/StillImage" />
        <dc:title></dc:title>
      </cc:Work>
    </rdf:RDF>
  </metadata>
  <g
     inkscape:label="Layer 1"
     inkscape:groupmode="layer"
     id="layer1"
     transform="translate(4.8602235e-8,-223.63992)">
    <path
       style="color:#000000;font-style:normal;font-variant:normal;font-weight:normal;font-stretch:normal;font-size:medium;line-height:normal;font-family:sans-serif;font-variant-ligatures:normal;font-variant-position:normal;font-variant-caps:normal;font-variant-numeric:normal;font-variant-alternates:normal;font-feature-settings:normal;text-indent:0;text-align:start;text-decoration:none;text-decoration-line:none;text-decoration-style:solid;text-decoration-color:#000000;letter-spacing:normal;word-spacing:normal;text-transform:none;writing-mode:lr-tb;direction:ltr;text-orientation:mixed;dominant-baseline:auto;baseline-shift:baseline;text-anchor:start;white-space:normal;shape-padding:0;clip-rule:nonzero;display:inline;overflow:visible;visibility:visible;opacity:1;isolation:auto;mix-blend-mode:normal;color-interpolation:sRGB;color-interpolation-filters:linearRGB;solid-color:#000000;solid-opacity:1;vector-effect:none;fill:#000000;fill-opacity:1;fill-rule:nonzero;stroke:none;stroke-width:1;stroke-linecap:butt;stroke-linejoin:miter;stroke-miterlimit:4;stroke-dasharray:none;stroke-dashoffset:0;stroke-opacity:1;color-rendering:auto;image-rendering:auto;shape-rendering:auto;text-rendering:auto;enable-background:accumulate"
       d="m 44.998047,232.35938 c -0.763288,0 -1.537966,0.15304 -2.058594,0.66992 -1.057534,1.04991 -1.362171,2.68966 -1.390625,4.17968 -0.128181,0.0695 -0.292674,0.0787 -0.384766,0.17969 -0.203884,0.22359 -0.338461,0.49167 -0.447265,0.78906 -0.217608,0.59478 -0.329152,1.32167 -0.398438,2.0586 -0.117579,1.25058 -0.07934,2.25373 -0.07031,2.74609 -5.844092,0.004 -16.343655,0.11502 -23.304688,1.45117 -1.778233,0.34133 -3.318762,0.75891 -4.505859,1.29688 -1.187097,0.53796 -2.073522,1.20176 -2.355469,2.15039 -0.2819469,0.94863 0.163879,1.98915 1.210938,3.01758 1.047058,1.02842 2.733572,2.13829 5.220703,3.39648 l 0.02734,0.0137 0.0293,0.01 c 7.513065,2.71628 14.902117,4.27973 21.859376,4.86914 h 0.0059 0.0059 c 0.454943,0.0274 0.9987,0.0286 1.390625,0.17188 0.391926,0.14324 0.639067,0.314 0.707031,0.99218 v 0.002 l 1.833985,17.72656 c -1.706699,0.39645 -3.618245,1.04591 -5.132813,1.9707 -0.820335,0.5009 -1.523155,1.07229 -1.996093,1.7461 -0.472938,0.6738 -0.702794,1.48728 -0.494141,2.31445 l 0.01172,0.0488 0.02344,0.0469 c 0.649499,1.33775 2.263838,2.05244 3.925782,2.44727 1.661943,0.39482 3.396395,0.45474 4.544921,0.15234 l 0.06055,-0.0156 0.05469,-0.0293 c 0.486728,-0.26841 0.771484,-0.65663 0.958984,-0.97266 0.1875,-0.31602 0.311118,-0.54958 0.390625,-0.62304 0.179672,-0.16247 0.272457,-0.1871 0.294922,-0.1875 0.02274,-4.1e-4 0.09321,0.007 0.267578,0.17187 l 0.0078,0.008 0.0098,0.008 c 0.223743,0.19223 0.286355,0.37392 0.427735,0.67382 0.14138,0.29991 0.405121,0.71167 0.916015,0.94336 l 0.03906,0.0176 0.04297,0.0117 c 1.157709,0.29863 2.897337,0.23715 4.560547,-0.1582 1.663211,-0.39536 3.276482,-1.10993 3.925782,-2.44727 l 0.02148,-0.0469 0.01367,-0.0488 c 0.213534,-0.84652 -0.07452,-1.67503 -0.599609,-2.35352 -0.525094,-0.67848 -1.284987,-1.25673 -2.142579,-1.76367 -1.574868,-0.93093 -3.429277,-1.52872 -4.884765,-1.87305 l 1.83789,-17.76757 v -0.002 c 0.06796,-0.67816 0.307248,-0.84533 0.730469,-0.99414 0.423221,-0.1488 1.039686,-0.15549 1.605469,-0.19531 h 0.002 0.0039 c 6.724893,-0.56455 14.113886,-2.12746 21.626953,-4.84375 l 0.0293,-0.01 0.02734,-0.0137 c 2.487132,-1.25818 4.173294,-2.36816 5.220703,-3.39648 1.04741,-1.02833 1.492599,-2.06701 1.212891,-3.01563 -0.279709,-0.94861 -1.162317,-1.61228 -2.345703,-2.15039 -1.183387,-0.5381 -2.720684,-0.95747 -4.492188,-1.29883 -6.937901,-1.33687 -17.390422,-1.4468 -23.128906,-1.45117 -0.0048,-0.5386 0.0016,-1.55416 -0.16211,-2.80078 -0.09606,-0.73155 -0.235594,-1.44907 -0.476562,-2.03516 -0.120484,-0.29304 -0.265923,-0.55673 -0.476562,-0.77343 -0.09569,-0.0985 -0.259417,-0.10706 -0.388672,-0.17383 -0.02948,-1.46992 -0.27149,-3.06079 -1.388672,-4.16992 -0.520626,-0.51688 -1.29726,-0.66992 -2.060547,-0.66992 z m 0,1 c 0.59089,0 1.170641,0.19736 1.355469,0.38085 0.880789,0.87445 1.126953,2.31109 1.126953,3.75 v 0.5 h 0.5 c 0.03941,0 0.06207,0.001 0.138672,0.0801 0.0766,0.0788 0.177486,0.23791 0.267578,0.45703 0.180184,0.43825 0.320037,1.09885 0.410156,1.78516 0.180238,1.37262 0.180436,2.83713 0.183594,3.16602 l 0.0059,0.49414 h 0.494141 c 5.63456,0 16.503823,0.11256 23.410156,1.44336 1.726583,0.33269 3.205298,0.74352 4.267578,1.22656 1.06228,0.48303 1.655992,1.03044 1.800781,1.52148 0.14479,0.49105 -0.03707,1.12021 -0.955078,2.02149 -0.912965,0.89633 -2.528751,1.97482 -4.943359,3.19922 -7.421691,2.68053 -14.719655,4.22516 -21.34375,4.78125 -0.49892,0.0346 -1.194242,0.0142 -1.859375,0.24804 -0.667412,0.23467 -1.294776,0.84843 -1.394531,1.83594 l -1.921875,18.5918 0.441406,0.0918 c 1.368853,0.28401 3.436115,0.9882 5.015625,1.92188 0.789755,0.46684 1.455527,0.9938 1.859375,1.51562 0.390653,0.50478 0.512462,0.95852 0.40625,1.44532 -0.433886,0.81328 -1.717829,1.51077 -3.208984,1.86523 -1.50327,0.35734 -3.149486,0.37534 -4.027344,0.16016 -0.229581,-0.11364 -0.287138,-0.19993 -0.394532,-0.42774 -0.114219,-0.24229 -0.274904,-0.64659 -0.675781,-0.99609 -0.270019,-0.25268 -0.589706,-0.44604 -0.958984,-0.43945 -0.374484,0.007 -0.683769,0.20163 -0.955078,0.44921 v 0.002 l -0.002,0.002 c -0.305012,0.28184 -0.421235,0.59639 -0.570313,0.84766 -0.137331,0.23146 -0.292548,0.40725 -0.537109,0.55859 -0.865745,0.21259 -2.494923,0.19899 -3.990235,-0.15625 -1.492387,-0.35454 -2.781338,-1.05446 -3.21289,-1.86914 -0.110556,-0.50249 -0.0095,-0.95485 0.332031,-1.44141 0.353978,-0.50432 0.953827,-1.01166 1.699219,-1.46679 1.490782,-0.91027 3.546588,-1.61333 5.253906,-1.97071 l 0.441406,-0.0918 -1.923828,-18.58985 v -0.002 c -0.09975,-0.98751 -0.717251,-1.59611 -1.357422,-1.83008 -0.636119,-0.23249 -1.284892,-0.20673 -1.662109,-0.22851 l -0.01172,-0.002 c -6.856559,-0.5819 -14.146863,-2.12563 -21.564453,-4.80468 -2.414608,-1.2244 -4.030888,-2.30299 -4.943359,-3.19922 -0.917509,-0.90118 -1.099067,-1.5285 -0.953125,-2.01953 0.145941,-0.49103 0.742396,-1.04027 1.808593,-1.52344 1.066197,-0.48318 2.549789,-0.89384 4.283203,-1.22656 6.93366,-1.3309 17.858404,-1.44336 23.601563,-1.44336 h 0.5 v -0.5 c 0,-0.33068 -0.05016,-1.7573 0.08008,-3.14258 0.06512,-0.69264 0.179287,-1.36441 0.341797,-1.8086 0.08125,-0.22209 0.176179,-0.38231 0.246094,-0.45898 0.06992,-0.0767 0.07958,-0.0723 0.113281,-0.0723 h 0.503906 l -0.0039,-0.5039 c -0.0081,-1.40817 0.340236,-2.9631 1.128906,-3.7461 0.184832,-0.18349 0.762626,-0.38085 1.353516,-0.38085 z"
       id="path12"
       inkscape:connector-curvature="0" />
  </g>
</svg>
