<?xml version="1.0" encoding="UTF-8" standalone="no"?>
<svg
   xmlns:dc="http://purl.org/dc/elements/1.1/"
   xmlns:cc="http://creativecommons.org/ns#"
   xmlns:rdf="http://www.w3.org/1999/02/22-rdf-syntax-ns#"
   xmlns:svg="http://www.w3.org/2000/svg"
   xmlns="http://www.w3.org/2000/svg"
   xmlns:sodipodi="http://sodipodi.sourceforge.net/DTD/sodipodi-0.dtd"
   xmlns:inkscape="http://www.inkscape.org/namespaces/inkscape"
   width="5.0668001cm"
   height="5.0668001cm"
   version="1.1"
   id="svg9"
   sodipodi:docname="shape.svg"
   inkscape:version="0.92.2 5c3e80d, 2017-08-06">
  <metadata
     id="metadata15">
    <rdf:RDF>
      <cc:Work
         rdf:about="">
        <dc:format>image/svg+xml</dc:format>
        <dc:type
           rdf:resource="http://purl.org/dc/dcmitype/StillImage" />
        <dc:title>green bunny silhouette</dc:title>
      </cc:Work>
    </rdf:RDF>
  </metadata>
  <defs
     id="defs13">
    <inkscape:perspective
       id="perspective6001"
       inkscape:persp3d-origin="372.04724 : 350.78739 : 1"
       inkscape:vp_z="744.09448 : 526.18109 : 1"
       inkscape:vp_y="0 : 1000 : 0"
       inkscape:vp_x="0 : 526.18109 : 1"
       sodipodi:type="inkscape:persp3d" />
  </defs>
  <sodipodi:namedview
     pagecolor="#ffffff"
     bordercolor="#666666"
     borderopacity="1"
     objecttolerance="10"
     gridtolerance="10"
     guidetolerance="10"
     inkscape:pageopacity="0"
     inkscape:pageshadow="2"
     inkscape:window-width="1366"
     inkscape:window-height="718"
     id="namedview11"
     showgrid="false"
     fit-margin-top="1"
     units="cm"
     fit-margin-left="1"
     fit-margin-right="1"
     fit-margin-bottom="1"
     inkscape:zoom="2.8088896"
     inkscape:cx="61.485658"
     inkscape:cy="62.37843"
     inkscape:window-x="1920"
     inkscape:window-y="0"
     inkscape:window-maximized="1"
     inkscape:current-layer="layer1" />
  <title
     id="title2">green bunny silhouette</title>
  <path
     style="color:#000000;font-style:normal;font-variant:normal;font-weight:normal;font-stretch:normal;font-size:medium;line-height:normal;font-family:sans-serif;font-variant-ligatures:normal;font-variant-position:normal;font-variant-caps:normal;font-variant-numeric:normal;font-variant-alternates:normal;font-feature-settings:normal;text-indent:0;text-align:start;text-decoration:none;text-decoration-line:none;text-decoration-style:solid;text-decoration-color:#000000;letter-spacing:normal;word-spacing:normal;text-transform:none;writing-mode:lr-tb;direction:ltr;text-orientation:mixed;dominant-baseline:auto;baseline-shift:baseline;text-anchor:start;white-space:normal;shape-padding:0;clip-rule:nonzero;display:inline;overflow:visible;visibility:visible;opacity:1;isolation:auto;mix-blend-mode:normal;color-interpolation:sRGB;color-interpolation-filters:linearRGB;solid-color:#000000;solid-opacity:1;vector-effect:none;fill:#000004;fill-opacity:1;fill-rule:nonzero;stroke:none;stroke-width:3.02362204;stroke-linecap:butt;stroke-linejoin:round;stroke-miterlimit:4;stroke-dasharray:none;stroke-dashoffset:0;stroke-opacity:1;color-rendering:auto;image-rendering:auto;shape-rendering:auto;text-rendering:auto;enable-background:accumulate"
     d="m 95.75,37.794922 c -31.989909,0 -57.955078,25.965169 -57.955078,57.955078 0,31.98991 25.965169,57.95508 57.955078,57.95508 31.98991,0 57.95508,-25.96517 57.95508,-57.95508 0,-31.989909 -25.96517,-57.955078 -57.95508,-57.955078 z m 0,3.023437 c 30.35582,0 54.93164,24.575819 54.93164,54.931641 0,30.35582 -24.57582,54.93164 -54.93164,54.93164 -30.355822,0 -54.931641,-24.57582 -54.931641,-54.93164 0,-30.355822 24.575819,-54.931641 54.931641,-54.931641 z"
     id="path4514"
     inkscape:connector-curvature="0" />
  <g
     transform="matrix(0.3375509,0,0,0.36531515,54.173517,-215.2867)"
     id="layer1"
     inkscape:label="Layer 1"
     style="stroke-width:2.8477149">
    <path
       style="color:#000000;font-style:normal;font-variant:normal;font-weight:normal;font-stretch:normal;font-size:medium;line-height:normal;font-family:sans-serif;font-variant-ligatures:normal;font-variant-position:normal;font-variant-caps:normal;font-variant-numeric:normal;font-variant-alternates:normal;font-feature-settings:normal;text-indent:0;text-align:start;text-decoration:none;text-decoration-line:none;text-decoration-style:solid;text-decoration-color:#000000;letter-spacing:normal;word-spacing:normal;text-transform:none;writing-mode:lr-tb;direction:ltr;text-orientation:mixed;dominant-baseline:auto;baseline-shift:baseline;text-anchor:start;white-space:normal;shape-padding:0;clip-rule:nonzero;display:inline;overflow:visible;visibility:visible;opacity:1;isolation:auto;mix-blend-mode:normal;color-interpolation:sRGB;color-interpolation-filters:linearRGB;solid-color:#000000;solid-opacity:1;vector-effect:none;fill:#000000;fill-opacity:1;fill-rule:evenodd;stroke:none;stroke-width:8.61041355;stroke-linecap:butt;stroke-linejoin:round;stroke-miterlimit:4;stroke-dasharray:none;stroke-dashoffset:0;stroke-opacity:1;marker:none;color-rendering:auto;image-rendering:auto;shape-rendering:auto;text-rendering:auto;enable-background:accumulate"
       d="m 22.224609,783.70703 c -8.151484,0.29822 -14.6138853,4.49966 -16.8847652,11.00977 -2.27088,6.51011 -1.0906902,14.27821 2.1328124,23.0625 6.2389338,17.00157 20.9859268,38.30163 42.0664058,59.80273 -6.775639,14.76128 -7.963177,27.14737 -4.417968,36.64258 3.776976,10.11595 12.645624,16.36304 22.710937,18.4707 17.208051,3.60335 38.616269,-3.89221 51.027349,-21.88281 0.30953,0.81656 0.57769,1.64041 1.07226,2.4082 0.36359,0.56445 0.8008,1.15998 1.57813,1.75 0.77732,0.59003 2.08357,1.16715 3.49804,1.0586 2.73646,-0.21001 3.79887,-1.93174 4.46875,-3.03516 0.43135,-0.7105 0.68174,-1.49549 0.97266,-2.25976 12.39264,18.03053 33.81415,25.55564 51.03906,21.96874 10.0761,-2.09823 18.95751,-8.33903 22.74414,-18.45703 3.55203,-9.49113 2.37165,-21.87597 -4.39648,-36.63476 16.54676,-16.84808 29.52712,-33.6064 37.70312,-48.14453 4.25924,-7.57356 7.25418,-14.54033 8.78125,-20.77735 1.52707,-6.23701 1.70152,-11.90226 -0.63476,-16.65429 -2.33628,-4.75204 -7.42385,-7.72105 -13.44922,-8.1875 -6.02537,-0.46646 -13.27185,1.00996 -22.29102,4.38867 -15.97242,5.98349 -37.93985,18.60225 -66.30859,38.76172 -0.11582,-1.66164 -0.62318,-3.28531 -1.56055,-4.56836 -3.47757,-4.76001 -9.66776,-6.14649 -17.39648,-6.14649 -7.72873,0 -13.91809,1.3855 -17.39453,6.14649 -0.92825,1.27124 -1.44026,2.87627 -1.5625,4.52148 C 63.459159,796.3895 39.613934,783.07084 22.224609,783.70703 Z m 0.316407,8.60352 c 13.712778,-0.50169 39.331643,12.67783 89.019534,49.37109 a 4.3056373,4.3056373 0 0 0 6.73242,-2.41797 c 0.30058,-1.20118 0.62853,-2.24514 0.95312,-3.05664 a 4.3056373,4.3056373 0 0 0 -1.60937,-5.18164 c -2.19867,-1.46578 -3.15712,-2.77177 -3.36719,-3.26172 -0.21007,-0.48995 -0.21237,-0.008 -0.0312,-0.25586 0.36224,-0.49609 4.14712,-2.61328 10.44141,-2.61328 6.29429,0 10.08021,2.11621 10.44336,2.61328 0.18157,0.24854 0.17849,-0.23359 -0.0312,0.25586 -0.20974,0.48945 -1.16863,1.79601 -3.36719,3.26172 a 4.3056373,4.3056373 0 0 0 -1.60742,5.18164 c 0.32477,0.81193 0.65183,1.85691 0.95312,3.05664 a 4.3056373,4.3056373 0 0 0 6.73242,2.41406 c 33.69415,-24.88198 58.50416,-39.13787 75.16407,-45.3789 8.32995,-3.12052 14.61234,-4.17632 18.60547,-3.86719 3.99313,0.30913 5.41475,1.42535 6.38671,3.40234 0.97197,1.977 1.25264,5.6845 -0.002,10.8086 -1.25458,5.1241 -3.92992,11.50524 -7.92187,18.60351 -7.98391,14.19656 -21.18305,31.28852 -38.28321,48.38868 a 4.3056373,4.3056373 0 0 0 -0.80664,4.9707 c 7.36356,14.72712 7.89897,25.47185 5.22266,32.62305 -2.67632,7.15119 -8.58922,11.41101 -16.43555,13.04492 -15.69265,3.26782 -38.0484,-5.45502 -46.86133,-26.83594 a 4.3056373,4.3056373 0 0 0 -8.2207,0.90234 4.3056373,4.3056373 0 0 0 -8.19531,-0.81445 c -8.84278,21.33056 -31.185447,30.02388 -46.857424,26.74219 -7.835988,-1.64085 -13.740224,-5.90375 -16.410156,-13.05469 -2.669932,-7.15093 -2.128038,-17.89041 5.230469,-32.60742 a 4.3056373,4.3056373 0 0 0 -0.806641,-4.9707 C 36.017449,852.04088 21.262539,830.36683 15.554688,814.8125 c -2.853926,-7.77716 -3.257668,-13.89508 -2.083985,-17.25977 1.173683,-3.36468 3.185091,-5.02687 9.070313,-5.24218 z"
       id="path11491"
       inkscape:connector-curvature="0" />
  </g>
</svg>
