<?xml version="1.0" encoding="UTF-8" standalone="no"?>
<!-- Generator: Adobe Illustrator 16.0.4, SVG Export Plug-In . SVG Version: 6.00 Build 0)  -->

<svg
   xmlns:dc="http://purl.org/dc/elements/1.1/"
   xmlns:cc="http://creativecommons.org/ns#"
   xmlns:rdf="http://www.w3.org/1999/02/22-rdf-syntax-ns#"
   xmlns:svg="http://www.w3.org/2000/svg"
   xmlns="http://www.w3.org/2000/svg"
   xmlns:sodipodi="http://sodipodi.sourceforge.net/DTD/sodipodi-0.dtd"
   xmlns:inkscape="http://www.inkscape.org/namespaces/inkscape"
   version="1.1"
   id="Layer_1"
   x="0px"
   y="0px"
   width="81.800568mm"
   height="71.170105mm"
   viewBox="0 0 309.1675 268.98937"
   enable-background="new 0 0 343.4 217.1"
   xml:space="preserve"
   sodipodi:docname="base.svg"
   inkscape:version="0.92.2 5c3e80d, 2017-08-06"
   inkscape:export-filename="/home/stopka/Veřejné/data/Pictures/ldtpardubice/2017/ticket/ticket.svg.png"
   inkscape:export-xdpi="96"
   inkscape:export-ydpi="96"><metadata
     id="metadata33"><rdf:RDF><cc:Work
         rdf:about=""><dc:format>image/svg+xml</dc:format><dc:type
           rdf:resource="http://purl.org/dc/dcmitype/StillImage" /><dc:title /></cc:Work></rdf:RDF></metadata><defs
     id="defs31"><inkscape:path-effect
       bendpath1-nodetypes="ccsccc"
       bendpath3-nodetypes="ccsccc"
       bendpath4="M 371.99548,57.207729 V 139.85472"
       bendpath3="m 371.63947,139.79132 c 0,0 18.13321,-0.79768 30.90793,7.91136 8.3983,5.72547 11.05923,20.02865 18.16111,23.58036 11.1075,5.55498 27.44237,-1.37424 45.89379,0.58459 6.13873,0.65168 9.12977,3.91373 16.17799,7.76082 4.07777,2.22575 11.38216,4.28425 17.25744,4.61248"
       bendpath2="M 527.69374,57.207729 V 139.85472"
       bendpath1="m 373.11311,56.6934 c 0,0 18.13322,-0.797682 30.90794,7.911355 8.3983,5.725475 11.05923,20.028653 18.1611,23.580368 11.1075,5.554976 27.44237,-1.374246 45.89379,0.584586 6.13874,0.65168 9.12977,3.91373 16.17799,7.76082 4.07777,2.22575 11.38216,4.284251 17.25745,4.612481"
       xx="false"
       yy="true"
       is_visible="true"
       id="path-effect4874"
       effect="envelope" /><inkscape:path-effect
       lock_angle="false"
       lock_lenght="false"
       flip_horizontal="false"
       flip_vertical="false"
       from_original_width="true"
       elastic="true"
       offset="0"
       stretch="1"
       helper_size="3"
       last_knot="2"
       first_knot="1"
       is_visible="true"
       id="path-effect4872"
       end="527.69374,98.531223"
       start="372.1,98.531223"
       effect="transform_2pts" /><inkscape:path-effect
       fuse_tolerance="0"
       vertical_pattern="false"
       prop_units="false"
       tang_offset="0"
       normal_offset="0"
       spacing="0"
       scale_y_rel="false"
       prop_scale="1"
       copytype="single_stretched"
       pattern="M 0,0 H 1"
       is_visible="true"
       id="path-effect4851"
       effect="skeletal" /><inkscape:path-effect
       id="path-effect4839"
       effect="attach_path"
       is_visible="true"
       startpath=""
       startposition="0"
       startcurvestart="0,0 , 20,0"
       startcurveend="0,0 , 20,0"
       endpath=""
       endposition="0"
       endcurvestart="0,0 , 20,0"
       endcurveend="0,0 , 20,0" /><inkscape:path-effect
       id="path-effect4837"
       effect="attach_path"
       is_visible="true"
       startpath=""
       startposition="0"
       startcurvestart="0,0 , 20,0"
       startcurveend="0,0 , 20,0"
       endpath=""
       endposition="0"
       endcurvestart="0,0 , 20,0"
       endcurveend="0,0 , 20,0" /><inkscape:perspective
       sodipodi:type="inkscape:persp3d"
       inkscape:vp_x="0 : 526.18106 : 1"
       inkscape:vp_y="0 : 999.99996 : 0"
       inkscape:vp_z="744.09449 : 526.18107 : 1"
       inkscape:persp3d-origin="372.04724 : 350.78737 : 1"
       id="perspective3265" /><inkscape:perspective
       id="perspective3881"
       inkscape:persp3d-origin="372.04724 : 350.78737 : 1"
       inkscape:vp_z="744.09449 : 526.18107 : 1"
       inkscape:vp_y="0 : 999.99996 : 0"
       inkscape:vp_x="0 : 526.18106 : 1"
       sodipodi:type="inkscape:persp3d" /><inkscape:perspective
       id="perspective3972"
       inkscape:persp3d-origin="372.04724 : 350.78737 : 1"
       inkscape:vp_z="744.09449 : 526.18107 : 1"
       inkscape:vp_y="0 : 999.99996 : 0"
       inkscape:vp_x="0 : 526.18106 : 1"
       sodipodi:type="inkscape:persp3d" /><inkscape:perspective
       id="perspective4046"
       inkscape:persp3d-origin="372.04724 : 350.78737 : 1"
       inkscape:vp_z="744.09449 : 526.18107 : 1"
       inkscape:vp_y="0 : 999.99996 : 0"
       inkscape:vp_x="0 : 526.18106 : 1"
       sodipodi:type="inkscape:persp3d" /><inkscape:perspective
       id="perspective4122"
       inkscape:persp3d-origin="372.04724 : 350.78737 : 1"
       inkscape:vp_z="744.09449 : 526.18107 : 1"
       inkscape:vp_y="0 : 999.99996 : 0"
       inkscape:vp_x="0 : 526.18106 : 1"
       sodipodi:type="inkscape:persp3d" /><inkscape:perspective
       id="perspective4194"
       inkscape:persp3d-origin="372.04724 : 350.78737 : 1"
       inkscape:vp_z="744.09449 : 526.18107 : 1"
       inkscape:vp_y="0 : 999.99996 : 0"
       inkscape:vp_x="0 : 526.18106 : 1"
       sodipodi:type="inkscape:persp3d" /><inkscape:perspective
       id="perspective9"
       inkscape:persp3d-origin="372.04724 : 350.78737 : 1"
       inkscape:vp_z="744.09449 : 526.18107 : 1"
       inkscape:vp_y="0 : 999.99996 : 0"
       inkscape:vp_x="0 : 526.18106 : 1"
       sodipodi:type="inkscape:persp3d" /><inkscape:perspective
       id="perspective4327"
       inkscape:persp3d-origin="372.04724 : 350.78737 : 1"
       inkscape:vp_z="744.09449 : 526.18107 : 1"
       inkscape:vp_y="0 : 999.99996 : 0"
       inkscape:vp_x="0 : 526.18106 : 1"
       sodipodi:type="inkscape:persp3d" /><inkscape:perspective
       id="perspective4365"
       inkscape:persp3d-origin="372.04724 : 350.78737 : 1"
       inkscape:vp_z="744.09449 : 526.18107 : 1"
       inkscape:vp_y="0 : 999.99996 : 0"
       inkscape:vp_x="0 : 526.18106 : 1"
       sodipodi:type="inkscape:persp3d" /><inkscape:perspective
       id="perspective4451"
       inkscape:persp3d-origin="372.04724 : 350.78737 : 1"
       inkscape:vp_z="744.09449 : 526.18107 : 1"
       inkscape:vp_y="0 : 999.99996 : 0"
       inkscape:vp_x="0 : 526.18106 : 1"
       sodipodi:type="inkscape:persp3d" /><inkscape:perspective
       sodipodi:type="inkscape:persp3d"
       inkscape:vp_x="0 : 526.18106 : 1"
       inkscape:vp_y="0 : 999.99996 : 0"
       inkscape:vp_z="744.09449 : 526.18107 : 1"
       inkscape:persp3d-origin="372.04724 : 350.78737 : 1"
       id="perspective4495" /><inkscape:perspective
       id="perspective4493"
       inkscape:persp3d-origin="372.04724 : 350.78737 : 1"
       inkscape:vp_z="744.09449 : 526.18107 : 1"
       inkscape:vp_y="0 : 999.99996 : 0"
       inkscape:vp_x="0 : 526.18106 : 1"
       sodipodi:type="inkscape:persp3d" /><inkscape:perspective
       sodipodi:type="inkscape:persp3d"
       inkscape:vp_x="0 : 526.18106 : 1"
       inkscape:vp_y="0 : 999.99996 : 0"
       inkscape:vp_z="744.09449 : 526.18107 : 1"
       inkscape:persp3d-origin="372.04724 : 350.78737 : 1"
       id="perspective4593" /><inkscape:perspective
       sodipodi:type="inkscape:persp3d"
       inkscape:vp_x="0 : 526.18106 : 1"
       inkscape:vp_y="0 : 999.99996 : 0"
       inkscape:vp_z="744.09449 : 526.18107 : 1"
       inkscape:persp3d-origin="372.04724 : 350.78737 : 1"
       id="perspective4591" /><inkscape:perspective
       id="perspective4589"
       inkscape:persp3d-origin="372.04724 : 350.78737 : 1"
       inkscape:vp_z="744.09449 : 526.18107 : 1"
       inkscape:vp_y="0 : 999.99996 : 0"
       inkscape:vp_x="0 : 526.18106 : 1"
       sodipodi:type="inkscape:persp3d" /><inkscape:perspective
       id="perspective4660"
       inkscape:persp3d-origin="372.04724 : 350.78737 : 1"
       inkscape:vp_z="744.09449 : 526.18107 : 1"
       inkscape:vp_y="0 : 999.99996 : 0"
       inkscape:vp_x="0 : 526.18106 : 1"
       sodipodi:type="inkscape:persp3d" /><inkscape:perspective
       id="perspective4732"
       inkscape:persp3d-origin="372.04724 : 350.78737 : 1"
       inkscape:vp_z="744.09449 : 526.18107 : 1"
       inkscape:vp_y="0 : 999.99996 : 0"
       inkscape:vp_x="0 : 526.18106 : 1"
       sodipodi:type="inkscape:persp3d" /><inkscape:perspective
       sodipodi:type="inkscape:persp3d"
       inkscape:vp_x="0 : 526.18106 : 1"
       inkscape:vp_y="0 : 999.99996 : 0"
       inkscape:vp_z="744.09449 : 526.18107 : 1"
       inkscape:persp3d-origin="372.04724 : 350.78737 : 1"
       id="perspective4786" /><inkscape:perspective
       sodipodi:type="inkscape:persp3d"
       inkscape:vp_x="0 : 526.18106 : 1"
       inkscape:vp_y="0 : 999.99996 : 0"
       inkscape:vp_z="744.09449 : 526.18107 : 1"
       inkscape:persp3d-origin="372.04724 : 350.78737 : 1"
       id="perspective4784" /><inkscape:perspective
       sodipodi:type="inkscape:persp3d"
       inkscape:vp_x="0 : 526.18106 : 1"
       inkscape:vp_y="0 : 999.99996 : 0"
       inkscape:vp_z="744.09449 : 526.18107 : 1"
       inkscape:persp3d-origin="372.04724 : 350.78737 : 1"
       id="perspective4782" /><inkscape:perspective
       id="perspective4780"
       inkscape:persp3d-origin="372.04724 : 350.78737 : 1"
       inkscape:vp_z="744.09449 : 526.18107 : 1"
       inkscape:vp_y="0 : 999.99996 : 0"
       inkscape:vp_x="0 : 526.18106 : 1"
       sodipodi:type="inkscape:persp3d" /><inkscape:perspective
       id="perspective4874"
       inkscape:persp3d-origin="372.04724 : 350.78737 : 1"
       inkscape:vp_z="744.09449 : 526.18107 : 1"
       inkscape:vp_y="0 : 999.99996 : 0"
       inkscape:vp_x="0 : 526.18106 : 1"
       sodipodi:type="inkscape:persp3d" /><inkscape:perspective
       id="perspective4950"
       inkscape:persp3d-origin="372.04724 : 350.78737 : 1"
       inkscape:vp_z="744.09449 : 526.18107 : 1"
       inkscape:vp_y="0 : 999.99996 : 0"
       inkscape:vp_x="0 : 526.18106 : 1"
       sodipodi:type="inkscape:persp3d" /><inkscape:perspective
       id="perspective5024"
       inkscape:persp3d-origin="372.04724 : 350.78737 : 1"
       inkscape:vp_z="744.09449 : 526.18107 : 1"
       inkscape:vp_y="0 : 999.99996 : 0"
       inkscape:vp_x="0 : 526.18106 : 1"
       sodipodi:type="inkscape:persp3d" /><inkscape:perspective
       id="perspective5102"
       inkscape:persp3d-origin="372.04724 : 350.78737 : 1"
       inkscape:vp_z="744.09449 : 526.18107 : 1"
       inkscape:vp_y="0 : 999.99996 : 0"
       inkscape:vp_x="0 : 526.18106 : 1"
       sodipodi:type="inkscape:persp3d" /><inkscape:perspective
       id="perspective5169"
       inkscape:persp3d-origin="372.04724 : 350.78737 : 1"
       inkscape:vp_z="744.09449 : 526.18107 : 1"
       inkscape:vp_y="0 : 999.99996 : 0"
       inkscape:vp_x="0 : 526.18106 : 1"
       sodipodi:type="inkscape:persp3d" /><inkscape:perspective
       id="perspective5258"
       inkscape:persp3d-origin="372.04724 : 350.78737 : 1"
       inkscape:vp_z="744.09449 : 526.18107 : 1"
       inkscape:vp_y="0 : 999.99996 : 0"
       inkscape:vp_x="0 : 526.18106 : 1"
       sodipodi:type="inkscape:persp3d" /><inkscape:perspective
       id="perspective5925"
       inkscape:persp3d-origin="372.04724 : 350.78737 : 1"
       inkscape:vp_z="744.09449 : 526.18107 : 1"
       inkscape:vp_y="0 : 999.99996 : 0"
       inkscape:vp_x="0 : 526.18106 : 1"
       sodipodi:type="inkscape:persp3d" /><inkscape:perspective
       id="perspective6001"
       inkscape:persp3d-origin="372.04724 : 350.78737 : 1"
       inkscape:vp_z="744.09449 : 526.18107 : 1"
       inkscape:vp_y="0 : 999.99996 : 0"
       inkscape:vp_x="0 : 526.18106 : 1"
       sodipodi:type="inkscape:persp3d" /><inkscape:perspective
       id="perspective6075"
       inkscape:persp3d-origin="372.04724 : 350.78737 : 1"
       inkscape:vp_z="744.09449 : 526.18107 : 1"
       inkscape:vp_y="0 : 999.99996 : 0"
       inkscape:vp_x="0 : 526.18106 : 1"
       sodipodi:type="inkscape:persp3d" /><inkscape:perspective
       id="perspective6147"
       inkscape:persp3d-origin="372.04724 : 350.78737 : 1"
       inkscape:vp_z="744.09449 : 526.18107 : 1"
       inkscape:vp_y="0 : 999.99996 : 0"
       inkscape:vp_x="0 : 526.18106 : 1"
       sodipodi:type="inkscape:persp3d" /><inkscape:perspective
       id="perspective6214"
       inkscape:persp3d-origin="372.04724 : 350.78737 : 1"
       inkscape:vp_z="744.09449 : 526.18107 : 1"
       inkscape:vp_y="0 : 999.99996 : 0"
       inkscape:vp_x="0 : 526.18106 : 1"
       sodipodi:type="inkscape:persp3d" /><inkscape:perspective
       id="perspective6305"
       inkscape:persp3d-origin="372.04724 : 350.78737 : 1"
       inkscape:vp_z="744.09449 : 526.18107 : 1"
       inkscape:vp_y="0 : 999.99996 : 0"
       inkscape:vp_x="0 : 526.18106 : 1"
       sodipodi:type="inkscape:persp3d" /><inkscape:perspective
       id="perspective6379"
       inkscape:persp3d-origin="372.04724 : 350.78737 : 1"
       inkscape:vp_z="744.09449 : 526.18107 : 1"
       inkscape:vp_y="0 : 999.99996 : 0"
       inkscape:vp_x="0 : 526.18106 : 1"
       sodipodi:type="inkscape:persp3d" /><inkscape:perspective
       id="perspective6455"
       inkscape:persp3d-origin="372.04724 : 350.78737 : 1"
       inkscape:vp_z="744.09449 : 526.18107 : 1"
       inkscape:vp_y="0 : 999.99996 : 0"
       inkscape:vp_x="0 : 526.18106 : 1"
       sodipodi:type="inkscape:persp3d" /><inkscape:perspective
       id="perspective6527"
       inkscape:persp3d-origin="372.04724 : 350.78737 : 1"
       inkscape:vp_z="744.09449 : 526.18107 : 1"
       inkscape:vp_y="0 : 999.99996 : 0"
       inkscape:vp_x="0 : 526.18106 : 1"
       sodipodi:type="inkscape:persp3d" /><inkscape:perspective
       id="perspective6594"
       inkscape:persp3d-origin="372.04724 : 350.78737 : 1"
       inkscape:vp_z="744.09449 : 526.18107 : 1"
       inkscape:vp_y="0 : 999.99996 : 0"
       inkscape:vp_x="0 : 526.18106 : 1"
       sodipodi:type="inkscape:persp3d" /><inkscape:perspective
       id="perspective6683"
       inkscape:persp3d-origin="372.04724 : 350.78737 : 1"
       inkscape:vp_z="744.09449 : 526.18107 : 1"
       inkscape:vp_y="0 : 999.99996 : 0"
       inkscape:vp_x="0 : 526.18106 : 1"
       sodipodi:type="inkscape:persp3d" /><inkscape:perspective
       id="perspective6757"
       inkscape:persp3d-origin="372.04724 : 350.78737 : 1"
       inkscape:vp_z="744.09449 : 526.18107 : 1"
       inkscape:vp_y="0 : 999.99996 : 0"
       inkscape:vp_x="0 : 526.18106 : 1"
       sodipodi:type="inkscape:persp3d" /><inkscape:perspective
       id="perspective6831"
       inkscape:persp3d-origin="372.04724 : 350.78737 : 1"
       inkscape:vp_z="744.09449 : 526.18107 : 1"
       inkscape:vp_y="0 : 999.99996 : 0"
       inkscape:vp_x="0 : 526.18106 : 1"
       sodipodi:type="inkscape:persp3d" /><inkscape:perspective
       id="perspective6905"
       inkscape:persp3d-origin="372.04724 : 350.78737 : 1"
       inkscape:vp_z="744.09449 : 526.18107 : 1"
       inkscape:vp_y="0 : 999.99996 : 0"
       inkscape:vp_x="0 : 526.18106 : 1"
       sodipodi:type="inkscape:persp3d" /><inkscape:perspective
       id="perspective6979"
       inkscape:persp3d-origin="372.04724 : 350.78737 : 1"
       inkscape:vp_z="744.09449 : 526.18107 : 1"
       inkscape:vp_y="0 : 999.99996 : 0"
       inkscape:vp_x="0 : 526.18106 : 1"
       sodipodi:type="inkscape:persp3d" /><inkscape:perspective
       id="perspective7046"
       inkscape:persp3d-origin="372.04724 : 350.78737 : 1"
       inkscape:vp_z="744.09449 : 526.18107 : 1"
       inkscape:vp_y="0 : 999.99996 : 0"
       inkscape:vp_x="0 : 526.18106 : 1"
       sodipodi:type="inkscape:persp3d" /><inkscape:perspective
       id="perspective7137"
       inkscape:persp3d-origin="372.04724 : 350.78737 : 1"
       inkscape:vp_z="744.09449 : 526.18107 : 1"
       inkscape:vp_y="0 : 999.99996 : 0"
       inkscape:vp_x="0 : 526.18106 : 1"
       sodipodi:type="inkscape:persp3d" /><inkscape:perspective
       id="perspective7209"
       inkscape:persp3d-origin="372.04724 : 350.78737 : 1"
       inkscape:vp_z="744.09449 : 526.18107 : 1"
       inkscape:vp_y="0 : 999.99996 : 0"
       inkscape:vp_x="0 : 526.18106 : 1"
       sodipodi:type="inkscape:persp3d" /><inkscape:perspective
       id="perspective7283"
       inkscape:persp3d-origin="372.04724 : 350.78737 : 1"
       inkscape:vp_z="744.09449 : 526.18107 : 1"
       inkscape:vp_y="0 : 999.99996 : 0"
       inkscape:vp_x="0 : 526.18106 : 1"
       sodipodi:type="inkscape:persp3d" /><inkscape:perspective
       id="perspective7357"
       inkscape:persp3d-origin="372.04724 : 350.78737 : 1"
       inkscape:vp_z="744.09449 : 526.18107 : 1"
       inkscape:vp_y="0 : 999.99996 : 0"
       inkscape:vp_x="0 : 526.18106 : 1"
       sodipodi:type="inkscape:persp3d" /><inkscape:perspective
       id="perspective7424"
       inkscape:persp3d-origin="372.04724 : 350.78737 : 1"
       inkscape:vp_z="744.09449 : 526.18107 : 1"
       inkscape:vp_y="0 : 999.99996 : 0"
       inkscape:vp_x="0 : 526.18106 : 1"
       sodipodi:type="inkscape:persp3d" /><inkscape:perspective
       id="perspective7496"
       inkscape:persp3d-origin="372.04724 : 350.78737 : 1"
       inkscape:vp_z="744.09449 : 526.18107 : 1"
       inkscape:vp_y="0 : 999.99996 : 0"
       inkscape:vp_x="0 : 526.18106 : 1"
       sodipodi:type="inkscape:persp3d" /><inkscape:perspective
       id="perspective7563"
       inkscape:persp3d-origin="372.04724 : 350.78737 : 1"
       inkscape:vp_z="744.09449 : 526.18107 : 1"
       inkscape:vp_y="0 : 999.99996 : 0"
       inkscape:vp_x="0 : 526.18106 : 1"
       sodipodi:type="inkscape:persp3d" /><inkscape:perspective
       id="perspective7637"
       inkscape:persp3d-origin="372.04724 : 350.78737 : 1"
       inkscape:vp_z="744.09449 : 526.18107 : 1"
       inkscape:vp_y="0 : 999.99996 : 0"
       inkscape:vp_x="0 : 526.18106 : 1"
       sodipodi:type="inkscape:persp3d" /><inkscape:perspective
       id="perspective7709"
       inkscape:persp3d-origin="372.04724 : 350.78737 : 1"
       inkscape:vp_z="744.09449 : 526.18107 : 1"
       inkscape:vp_y="0 : 999.99996 : 0"
       inkscape:vp_x="0 : 526.18106 : 1"
       sodipodi:type="inkscape:persp3d" /><inkscape:perspective
       id="perspective7790"
       inkscape:persp3d-origin="372.04724 : 350.78737 : 1"
       inkscape:vp_z="744.09449 : 526.18107 : 1"
       inkscape:vp_y="0 : 999.99996 : 0"
       inkscape:vp_x="0 : 526.18106 : 1"
       sodipodi:type="inkscape:persp3d" /><inkscape:perspective
       id="perspective7866"
       inkscape:persp3d-origin="372.04724 : 350.78737 : 1"
       inkscape:vp_z="744.09449 : 526.18107 : 1"
       inkscape:vp_y="0 : 999.99996 : 0"
       inkscape:vp_x="0 : 526.18106 : 1"
       sodipodi:type="inkscape:persp3d" /><inkscape:perspective
       id="perspective7940"
       inkscape:persp3d-origin="372.04724 : 350.78737 : 1"
       inkscape:vp_z="744.09449 : 526.18107 : 1"
       inkscape:vp_y="0 : 999.99996 : 0"
       inkscape:vp_x="0 : 526.18106 : 1"
       sodipodi:type="inkscape:persp3d" /><inkscape:perspective
       id="perspective8014"
       inkscape:persp3d-origin="372.04724 : 350.78737 : 1"
       inkscape:vp_z="744.09449 : 526.18107 : 1"
       inkscape:vp_y="0 : 999.99996 : 0"
       inkscape:vp_x="0 : 526.18106 : 1"
       sodipodi:type="inkscape:persp3d" /><inkscape:perspective
       id="perspective8092"
       inkscape:persp3d-origin="372.04724 : 350.78737 : 1"
       inkscape:vp_z="744.09449 : 526.18107 : 1"
       inkscape:vp_y="0 : 999.99996 : 0"
       inkscape:vp_x="0 : 526.18106 : 1"
       sodipodi:type="inkscape:persp3d" /><inkscape:perspective
       id="perspective8164"
       inkscape:persp3d-origin="372.04724 : 350.78737 : 1"
       inkscape:vp_z="744.09449 : 526.18107 : 1"
       inkscape:vp_y="0 : 999.99996 : 0"
       inkscape:vp_x="0 : 526.18106 : 1"
       sodipodi:type="inkscape:persp3d" /><inkscape:perspective
       id="perspective8253"
       inkscape:persp3d-origin="372.04724 : 350.78737 : 1"
       inkscape:vp_z="744.09449 : 526.18107 : 1"
       inkscape:vp_y="0 : 999.99996 : 0"
       inkscape:vp_x="0 : 526.18106 : 1"
       sodipodi:type="inkscape:persp3d" /><inkscape:perspective
       id="perspective8359"
       inkscape:persp3d-origin="372.04724 : 350.78737 : 1"
       inkscape:vp_z="744.09449 : 526.18107 : 1"
       inkscape:vp_y="0 : 999.99996 : 0"
       inkscape:vp_x="0 : 526.18106 : 1"
       sodipodi:type="inkscape:persp3d" /><inkscape:perspective
       id="perspective8435"
       inkscape:persp3d-origin="372.04724 : 350.78737 : 1"
       inkscape:vp_z="744.09449 : 526.18107 : 1"
       inkscape:vp_y="0 : 999.99996 : 0"
       inkscape:vp_x="0 : 526.18106 : 1"
       sodipodi:type="inkscape:persp3d" /><inkscape:perspective
       id="perspective8507"
       inkscape:persp3d-origin="372.04724 : 350.78737 : 1"
       inkscape:vp_z="744.09449 : 526.18107 : 1"
       inkscape:vp_y="0 : 999.99996 : 0"
       inkscape:vp_x="0 : 526.18106 : 1"
       sodipodi:type="inkscape:persp3d" /><inkscape:perspective
       id="perspective8631"
       inkscape:persp3d-origin="372.04724 : 350.78737 : 1"
       inkscape:vp_z="744.09449 : 526.18107 : 1"
       inkscape:vp_y="0 : 999.99996 : 0"
       inkscape:vp_x="0 : 526.18106 : 1"
       sodipodi:type="inkscape:persp3d" /><inkscape:perspective
       id="perspective8681"
       inkscape:persp3d-origin="372.04724 : 350.78737 : 1"
       inkscape:vp_z="744.09449 : 526.18107 : 1"
       inkscape:vp_y="0 : 999.99996 : 0"
       inkscape:vp_x="0 : 526.18106 : 1"
       sodipodi:type="inkscape:persp3d" /><inkscape:perspective
       sodipodi:type="inkscape:persp3d"
       inkscape:vp_x="0 : 526.18106 : 1"
       inkscape:vp_y="0 : 999.99996 : 0"
       inkscape:vp_z="744.09449 : 526.18107 : 1"
       inkscape:persp3d-origin="372.04724 : 350.78737 : 1"
       id="perspective8749" /><inkscape:perspective
       sodipodi:type="inkscape:persp3d"
       inkscape:vp_x="0 : 526.18106 : 1"
       inkscape:vp_y="0 : 999.99996 : 0"
       inkscape:vp_z="744.09449 : 526.18107 : 1"
       inkscape:persp3d-origin="372.04724 : 350.78737 : 1"
       id="perspective8747" /><inkscape:perspective
       sodipodi:type="inkscape:persp3d"
       inkscape:vp_x="0 : 526.18106 : 1"
       inkscape:vp_y="0 : 999.99996 : 0"
       inkscape:vp_z="744.09449 : 526.18107 : 1"
       inkscape:persp3d-origin="372.04724 : 350.78737 : 1"
       id="perspective8745" /><inkscape:perspective
       sodipodi:type="inkscape:persp3d"
       inkscape:vp_x="0 : 526.18106 : 1"
       inkscape:vp_y="0 : 999.99996 : 0"
       inkscape:vp_z="744.09449 : 526.18107 : 1"
       inkscape:persp3d-origin="372.04724 : 350.78737 : 1"
       id="perspective8743" /><inkscape:perspective
       sodipodi:type="inkscape:persp3d"
       inkscape:vp_x="0 : 526.18106 : 1"
       inkscape:vp_y="0 : 999.99996 : 0"
       inkscape:vp_z="744.09449 : 526.18107 : 1"
       inkscape:persp3d-origin="372.04724 : 350.78737 : 1"
       id="perspective8741" /><inkscape:perspective
       sodipodi:type="inkscape:persp3d"
       inkscape:vp_x="0 : 526.18106 : 1"
       inkscape:vp_y="0 : 999.99996 : 0"
       inkscape:vp_z="744.09449 : 526.18107 : 1"
       inkscape:persp3d-origin="372.04724 : 350.78737 : 1"
       id="perspective8739" /><inkscape:perspective
       id="perspective8737"
       inkscape:persp3d-origin="372.04724 : 350.78737 : 1"
       inkscape:vp_z="744.09449 : 526.18107 : 1"
       inkscape:vp_y="0 : 999.99996 : 0"
       inkscape:vp_x="0 : 526.18106 : 1"
       sodipodi:type="inkscape:persp3d" /></defs><sodipodi:namedview
     pagecolor="#ffffff"
     bordercolor="#666666"
     borderopacity="1"
     objecttolerance="10"
     gridtolerance="10"
     guidetolerance="10"
     inkscape:pageopacity="0"
     inkscape:pageshadow="2"
     inkscape:window-width="1366"
     inkscape:window-height="718"
     id="namedview29"
     showgrid="false"
     inkscape:zoom="1.2798491"
     inkscape:cx="124.55088"
     inkscape:cy="45.993494"
     inkscape:window-x="1280"
     inkscape:window-y="336"
     inkscape:window-maximized="1"
     inkscape:current-layer="g26"
     fit-margin-top="6"
     fit-margin-right="6"
     fit-margin-bottom="6"
     fit-margin-left="6"
     units="mm" /><g
     id="g26"
     transform="rotate(13.074655,-1320.0958,-833.53358)"><path
       style="color:#000000;font-style:normal;font-variant:normal;font-weight:normal;font-stretch:normal;font-size:medium;line-height:normal;font-family:sans-serif;font-variant-ligatures:normal;font-variant-position:normal;font-variant-caps:normal;font-variant-numeric:normal;font-variant-alternates:normal;font-feature-settings:normal;text-indent:0;text-align:start;text-decoration:none;text-decoration-line:none;text-decoration-style:solid;text-decoration-color:#000000;letter-spacing:normal;word-spacing:normal;text-transform:none;writing-mode:lr-tb;direction:ltr;text-orientation:mixed;dominant-baseline:auto;baseline-shift:baseline;text-anchor:start;white-space:normal;shape-padding:0;clip-rule:nonzero;display:inline;overflow:visible;visibility:visible;opacity:1;isolation:auto;mix-blend-mode:normal;color-interpolation:sRGB;color-interpolation-filters:linearRGB;solid-color:#000000;solid-opacity:1;vector-effect:none;fill:#000000;fill-opacity:1;fill-rule:nonzero;stroke:none;stroke-width:2.26771665;stroke-linecap:butt;stroke-linejoin:round;stroke-miterlimit:4;stroke-dasharray:none;stroke-dashoffset:0;stroke-opacity:1;color-rendering:auto;image-rendering:auto;shape-rendering:auto;text-rendering:auto;enable-background:accumulate"
       d="M 26.220703 22.677734 C 25.229961 22.677728 24.292399 22.912 23.615234 23.566406 C 22.93807 24.220812 22.677734 25.163255 22.677734 26.138672 C 22.677739 27.007229 23.071544 27.729416 23.693359 28.640625 C 24.315168 29.551822 25.227036 30.655561 26.521484 32.105469 C 28.468221 34.285998 31.671712 37.955297 33.619141 40.236328 L 36.902344 44.085938 L 36.912109 49.667969 C 36.917015 52.907869 36.674901 66.681355 36.375 80.166016 L 35.832031 104.68945 A 1.1339717 1.1339717 0 0 0 35.949219 105.2207 L 37.091797 107.50977 C 40.092988 113.52895 48.515711 114.28512 52.615234 108.91992 C 53.23335 108.11097 53.750206 107.2934 53.951172 105.7207 C 54.152146 104.14802 54.203236 101.68662 54.320312 96.75 C 54.436989 91.83081 54.505198 89.346957 54.677734 87.984375 C 54.850261 86.621791 55.009997 86.464956 55.636719 85.498047 C 58.395007 81.242364 62.740545 78.935419 66.962891 78.642578 C 71.185234 78.349747 75.219367 80.025464 77.587891 83.826172 C 78.750336 85.691518 79.330506 87.089002 79.673828 90.542969 C 80.01715 93.996935 80.050458 99.42036 79.964844 108.84766 L 79.814453 125.56445 L 78.365234 128.41602 C 77.263001 130.58491 76.409243 131.63451 74.898438 132.74219 C 73.129957 134.03877 71.642175 134.79421 69.341797 135.32812 C 67.041411 135.86203 63.916155 136.14123 59.101562 136.33594 C 52.094829 136.6193 50.036727 136.84644 48.130859 137.69336 C 45.073435 139.05201 41.922324 142.15254 40.519531 145.18359 C 40.272228 145.71795 40.009384 146.32442 39.855469 147.33594 C 39.701556 148.34744 39.614961 149.79808 39.552734 152.38672 C 39.428301 157.564 39.427724 167.29602 39.427734 186.75195 L 39.427734 225.71289 A 1.1339717 1.1339717 0 0 0 39.558594 226.24023 L 40.785156 228.5625 C 42.390328 231.6002 45.30511 234.33726 48.494141 235.82422 C 49.569894 236.32583 50.550701 236.66718 53.539062 236.79688 C 56.527414 236.92656 61.748847 236.92968 71.996094 236.92969 L 92.876953 236.92969 A 1.1339717 1.1339717 0 0 0 93.375 236.81445 L 95.978516 235.53711 C 99.140944 233.98581 101.83844 231.47131 103.42969 228.54688 C 103.68294 228.08143 103.95535 227.52032 104.12109 226.68164 C 104.28682 225.84295 104.38637 224.71415 104.46484 222.7793 C 104.62181 218.90958 104.68151 211.80751 104.79492 197.76172 L 105.02344 169.61914 L 106.35547 167.07227 C 107.97288 163.98213 109.94023 162.12726 113.29883 160.55469 L 115.62109 159.46875 L 154.60938 159.10938 C 176.18609 158.91137 198.13427 158.81002 203.27539 158.88086 L 212.4668 159.00781 L 215.37305 160.49023 C 219.15951 162.42353 221.5546 165.26013 222.78906 169.25195 C 223.20665 170.60228 223.41121 171.48336 223.53516 173.79492 C 223.65912 176.10649 223.67969 179.78601 223.67969 186.42773 C 223.67969 194.50905 223.59765 199.08314 223.21289 201.9043 C 222.82813 204.72546 222.25938 205.70534 221.00781 207.20898 C 213.99458 215.63497 212.60646 225.2055 217.16602 234.26367 C 219.7544 239.40582 225.52813 244.08906 231.12891 245.59766 C 234.60563 246.53416 240.52255 246.56564 243.75977 245.60547 C 250.19241 243.69752 255.32734 239.23634 258.3125 232.99219 C 259.99875 229.46508 260.13476 228.82936 260.13477 223.41992 C 260.13477 220.79863 260.1263 219.34479 259.91016 218.07617 C 259.69401 216.80755 259.26578 215.83025 258.56445 214.35156 C 257.71563 212.56194 256.32393 210.20899 255.30859 208.88086 L 253.87695 207.00977 L 254.01953 198.92383 C 254.08346 195.2845 254.15519 193.11492 254.29297 191.75586 C 254.43075 190.3968 254.59244 189.93013 254.9043 189.35742 C 255.66421 187.96199 256.48899 187.11465 258.04883 186.36328 C 259.60866 185.61192 261.94148 185.02152 265.46094 184.45703 C 273.40487 183.18291 277.9135 181.31045 281.625 177.60352 C 283.90364 175.32766 284.75041 173.99254 285.54297 171.42969 C 286.49078 168.36481 286.78586 165.49434 286.1582 161.56641 C 285.53054 157.63848 284.02514 152.61946 281.4082 144.9082 C 280.95236 143.56499 279.18328 138.0721 277.50195 132.78125 C 275.81924 127.48599 273.34975 119.75349 272.01367 115.5918 C 270.67884 111.43394 268.50374 104.62659 267.18164 100.46875 C 266.51671 98.377629 265.81151 96.272929 265.20703 94.556641 C 264.60255 92.840352 264.13695 91.581549 263.80859 90.916016 C 262.20457 87.664891 259.51357 85.319877 255.57617 83.625 C 252.21182 82.176782 251.44871 82.037112 245.46484 82.037109 C 239.45463 82.037117 238.72419 82.172256 235.26953 83.658203 C 232.53152 84.8359 230.90842 85.932421 229.29688 87.722656 C 226.44638 90.889196 225.51367 93.841937 225.51367 99.535156 C 225.51367 102.08669 225.36523 103.71803 225.01367 104.83008 C 224.66209 105.94212 224.15759 106.60268 223.13867 107.45898 C 222.1653 108.27701 221.69092 108.62306 220.63867 108.98047 C 219.58642 109.33787 217.91197 109.66808 214.86719 110.20117 C 212.02134 110.69942 206.18774 111.74317 201.89453 112.52148 C 189.15345 114.83128 182.56966 116.00542 178.87891 116.38477 C 175.18815 116.76411 174.67827 116.47546 173.10352 115.66211 C 168.96762 113.52599 165.52117 107.0591 162.58789 94.394531 C 158.9977 78.893818 150.97607 64.808883 138.91406 52.771484 C 126.8754 40.75739 115.03381 34.410049 97.644531 30.636719 C 92.0027 29.412484 90.948785 29.32893 79.794922 29.353516 C 68.812549 29.377726 67.544785 29.479552 62.736328 30.613281 C 59.877645 31.287292 56.347046 32.324243 54.638672 33.017578 C 53.172007 33.612809 50.931039 34.26553 50.017578 34.402344 C 48.033114 34.699573 47.4404 34.839557 45.453125 33.875 C 43.465862 32.910435 40.225228 30.714586 33.927734 26.386719 C 31.852214 24.96008 30.457175 24.061869 29.302734 23.488281 C 28.148287 22.914682 27.172243 22.677681 26.220703 22.677734 z M 26.220703 24.943359 C 26.848888 24.943358 27.34288 25.044595 28.294922 25.517578 C 29.246955 25.9906 30.593696 26.847531 32.642578 28.255859 C 38.942099 32.585121 42.150135 34.791529 44.462891 35.914062 C 46.775644 37.036606 48.332338 36.948925 50.351562 36.646484 C 51.689051 36.446169 53.843447 35.788258 55.492188 35.119141 C 56.899223 34.548107 60.504893 33.468933 63.255859 32.820312 C 68.014986 31.698215 68.826624 31.647237 79.798828 31.623047 C 90.944405 31.598467 91.552599 31.633918 97.164062 32.851562 L 97.164062 32.853516 C 114.25152 36.561349 125.51375 42.600327 137.3125 54.375 C 149.10466 66.143091 156.88597 79.833843 160.37695 94.90625 C 163.3574 107.77445 166.79106 114.95412 172.06445 117.67773 C 173.72037 118.53299 175.22413 119.04016 179.11133 118.64062 C 182.99853 118.24112 189.55598 117.06403 202.29883 114.75391 C 206.5872 113.97647 212.42307 112.93186 215.25781 112.43555 C 218.31618 111.90008 220.04364 111.5765 221.36719 111.12695 C 222.69073 110.67741 223.56527 110.06295 224.59766 109.19531 C 225.81019 108.17629 226.69525 107.03365 227.17578 105.51367 C 227.65631 103.99369 227.7832 102.16474 227.7832 99.533203 C 227.7832 94.048877 228.39442 92.111067 230.98047 89.238281 C 232.41211 87.647909 233.58017 86.852486 236.16602 85.740234 C 236.19608 85.727303 236.20876 85.723637 236.23828 85.710938 L 240.96875 98.693359 C 240.9388 98.835406 240.89645 98.969067 240.87305 99.115234 C 240.42166 101.93453 241.37535 105.24323 245.5293 117.00391 C 248.58362 125.65132 250.29232 130.87648 251.08594 134.63672 C 251.87956 138.39696 251.7944 140.65661 251.24414 143.72852 C 249.87348 151.38035 249.71414 157.51976 250.85352 162.14258 C 251.99291 166.7654 254.59707 169.93658 258.46094 171.0332 C 259.25582 171.2588 260.11632 171.40276 261 171.48438 L 263.39844 182.51758 C 260.70395 183.01066 258.66268 183.5514 257.06641 184.32031 C 255.14335 185.24664 253.84367 186.5664 252.91406 188.27344 C 252.47511 189.07948 252.18897 190.01013 252.03516 191.52734 C 251.88135 193.04455 251.81805 195.23118 251.75391 198.88281 L 251.60352 207.36719 A 1.1339717 1.1339717 0 0 0 251.83594 208.07422 L 253.50586 210.25977 C 254.32694 211.33378 255.75574 213.72016 256.51562 215.32227 C 257.20551 216.77682 257.50655 217.47528 257.67383 218.45703 C 257.6925 218.56662 257.70344 218.70377 257.71875 218.82422 L 246.33398 219.14062 C 245.53667 217.57194 244.29586 216.16711 242.61133 215.12305 C 241.89768 214.68072 241.15935 214.33935 240.41016 214.09375 C 239.42684 213.77139 238.42476 213.6133 237.43555 213.60742 C 235.10268 213.59355 232.84514 214.42975 231.06641 215.9375 L 220.08789 212.37695 C 220.84993 211.12837 221.72673 209.8876 222.75 208.6582 C 224.13699 206.99182 225.03683 205.30628 225.45898 202.21094 C 225.88114 199.11559 225.94726 194.52282 225.94727 186.42773 C 225.94726 179.78162 225.92885 176.09862 225.79883 173.67383 C 225.66881 171.24903 225.40145 170.01911 224.95703 168.58203 C 223.56142 164.0691 220.66065 160.64687 216.40234 158.47266 L 213.25977 156.86523 A 1.1339717 1.1339717 0 0 0 212.76172 156.74414 L 203.30664 156.61328 C 198.04771 156.54083 176.17146 156.64374 154.58789 156.8418 L 115.35352 157.20312 A 1.1339717 1.1339717 0 0 0 114.88281 157.31055 L 112.33594 158.50195 C 108.64261 160.23126 106.15555 162.56547 104.34766 166.01953 L 102.88672 168.81055 A 1.1339717 1.1339717 0 0 0 102.75586 169.32617 L 102.52734 197.74219 C 102.41394 211.78768 102.35254 218.9058 102.19922 222.68555 C 102.12256 224.57543 102.01978 225.63016 101.89844 226.24414 C 101.7771 226.85812 101.67729 227.02216 101.4375 227.46289 C 100.10478 229.91221 97.720741 232.15678 94.978516 233.50195 L 92.613281 234.66211 L 73.84375 234.66211 L 72.429688 206.38867 C 73.248323 206.36896 73.936038 206.33402 74.513672 206.26367 C 75.861477 206.09952 76.762776 205.71948 77.914062 205.14648 C 81.300484 203.46104 84.099217 200.26956 85.195312 196.78906 C 85.933814 194.44407 86.00936 192.05104 85.888672 178.89648 C 85.821747 171.6021 85.781359 167.82239 85.623047 165.51172 C 85.464737 163.20103 85.116942 162.21521 84.595703 161.08594 C 83.228671 158.12424 80.638572 155.60226 77.525391 154.14844 C 76.553277 153.69447 75.621207 153.39101 74.244141 153.24805 C 74.136289 153.23685 74.002775 153.23046 73.888672 153.2207 L 71.794922 136.96875 C 73.437431 136.38705 74.828896 135.60557 76.238281 134.57227 C 78.001207 133.27975 79.193556 131.78921 80.386719 129.44141 L 81.957031 126.35352 A 1.1339717 1.1339717 0 0 0 82.078125 125.85156 L 82.234375 108.86719 C 82.320101 99.427481 82.296242 93.988332 81.931641 90.320312 C 81.567037 86.652304 80.786378 84.669239 79.513672 82.626953 C 76.685319 78.088374 71.741945 76.038573 66.806641 76.380859 C 61.871338 76.723136 56.880121 79.412146 53.734375 84.265625 C 53.102823 85.240025 52.632054 86.085558 52.427734 87.699219 C 52.223415 89.31288 52.169412 91.777583 52.052734 96.697266 C 51.935654 101.63371 51.868542 104.12194 51.701172 105.43164 C 51.533812 106.74134 51.430222 106.73714 50.814453 107.54297 C 47.675962 111.65042 41.407402 111.08345 39.121094 106.49805 L 38.103516 104.45898 L 38.644531 80.214844 C 38.944578 66.72301 39.18478 53.024059 39.179688 49.664062 L 39.169922 43.664062 A 1.1339717 1.1339717 0 0 0 38.900391 42.929688 L 35.34375 38.765625 C 33.378986 36.464286 30.178351 32.797192 28.212891 30.595703 C 26.948504 29.179469 26.083157 28.120532 25.566406 27.363281 C 25.049656 26.606031 24.945318 26.155676 24.945312 26.140625 C 24.945316 25.534297 25.07125 25.311487 25.189453 25.197266 C 25.307659 25.083035 25.574665 24.943362 26.220703 24.943359 z M 249.47656 84.34375 C 251.66481 84.427578 252.36706 84.711537 254.67969 85.707031 C 258.27917 87.256455 260.41561 89.163844 261.77539 91.919922 C 261.94452 92.26274 262.47126 93.618804 263.06641 95.308594 C 263.66155 96.998374 264.36184 99.087896 265.01953 101.15625 C 266.34267 105.31737 268.51763 112.12404 269.85352 116.28516 C 271.18816 120.44241 273.658 128.17624 275.33984 133.46875 C 277.02309 138.76565 278.77455 144.20695 279.25977 145.63672 C 281.86516 153.31397 283.3346 158.26085 283.91992 161.92383 C 284.50525 165.5868 284.25106 167.93322 283.37695 170.75977 C 282.63841 173.14797 282.2131 173.81107 280.02148 176 C 279.54206 176.47883 279.04658 176.91361 278.53711 177.32617 L 273.63086 166.29102 C 273.99778 165.81175 274.33355 165.32129 274.5957 164.81641 C 276.19516 161.73606 276.06526 157.18634 274.5293 153.32031 C 274.22551 152.55567 273.91524 151.81155 273.6543 151.2168 C 273.52382 150.91941 273.40596 150.65871 273.30469 150.44727 C 273.20342 150.23581 273.15559 150.11292 273.00977 149.90039 C 273.06507 149.98099 272.67694 149.33739 272.26758 148.59766 C 271.85821 147.85792 271.33608 146.89551 270.79883 145.89453 C 269.02159 142.5833 268.06266 139.88828 264.37109 127.75391 C 263.6027 125.22818 262.3923 121.30988 261.67773 119.03516 C 260.96789 116.77544 259.63879 112.44373 258.72852 109.42383 C 256.31382 101.41279 254.90824 97.725432 253.11328 95.683594 C 252.91169 95.454273 252.69727 95.251205 252.48242 95.050781 L 249.47656 84.34375 z M 247.60742 95.207031 C 248.02797 95.215895 248.45745 95.287789 248.88867 95.429688 C 249.75114 95.713451 250.61624 96.278528 251.41016 97.181641 C 252.6435 98.584608 254.16052 102.12874 256.55664 110.07812 C 257.47002 113.10838 258.79811 117.43888 259.51367 119.7168 C 260.22453 121.97969 261.43571 125.89799 262.20117 128.41406 C 265.89748 140.56401 266.9378 143.49947 268.79883 146.9668 C 269.34034 147.9757 269.86951 148.9442 270.28516 149.69531 C 270.70081 150.44641 270.91235 150.85289 271.14062 151.18555 C 271.08135 151.0991 271.17544 151.25161 271.25977 151.42773 C 271.34411 151.60383 271.45255 151.8452 271.57617 152.12695 C 271.82339 152.69045 272.12763 153.41758 272.42188 154.1582 C 273.73068 157.4525 273.69614 161.62586 272.58203 163.77148 C 271.57709 165.70686 268.67278 168.06965 266.35742 168.76562 C 264.22294 169.40723 261.15135 169.44137 259.08008 168.85352 C 256.02376 167.98609 254.06843 165.71071 253.05469 161.59766 C 252.04094 157.48459 252.13835 151.59763 253.47656 144.12695 C 254.05622 140.89095 254.14774 138.15516 253.30664 134.16992 C 252.46554 130.18467 250.72906 124.91461 247.66797 116.24805 C 243.52459 104.51731 242.7906 101.47787 243.11133 99.474609 C 243.48664 97.130483 244.82036 95.79731 246.38477 95.361328 C 246.77587 95.252328 247.18687 95.198168 247.60742 95.207031 z M 57.164062 138.69922 L 59.371094 153.66992 C 59.099219 153.75343 58.840877 153.84458 58.597656 153.95312 C 55.629953 155.27749 52.536338 158.40881 51.167969 161.43164 C 50.630526 162.61889 50.273716 163.60171 50.111328 165.85742 C 49.948892 168.11312 49.91133 171.76951 49.84375 178.875 C 49.778585 185.72781 49.757828 189.41892 49.867188 191.79102 C 49.976559 194.1631 50.250532 195.29885 50.705078 196.66211 C 51.82037 200.00703 53.929179 202.66295 56.964844 204.55664 C 58.238512 205.35118 59.170783 205.88197 60.671875 206.11914 C 60.823885 206.14316 61.01183 206.15617 61.175781 206.17578 L 56.878906 234.60938 C 55.584139 234.59041 54.469761 234.5674 53.636719 234.53125 C 50.76272 234.40652 50.480656 234.2467 49.453125 233.76758 C 46.771137 232.51703 44.115711 230.01257 42.789062 227.50195 L 41.695312 225.43164 L 41.693359 186.75195 C 41.693352 167.29605 41.695565 157.54806 41.818359 152.43945 C 41.879748 149.88514 41.975836 148.49112 42.099609 147.67773 C 42.223419 146.86437 42.33233 146.6682 42.578125 146.13672 C 43.649933 143.82083 46.709678 140.80596 49.050781 139.76562 C 50.370132 139.17934 52.04636 138.941 57.164062 138.69922 z M 67.869141 155.35547 C 71.004793 155.35037 72.825116 155.38093 74.009766 155.50391 C 75.194404 155.62689 75.71193 155.80503 76.564453 156.20312 C 79.193823 157.43101 81.427435 159.63103 82.537109 162.03516 C 83.032347 163.10809 83.212957 163.50245 83.361328 165.66797 C 83.509699 167.83349 83.55419 171.6253 83.621094 178.91797 C 83.741675 192.06079 83.652241 194.14373 83.033203 196.10938 C 82.159707 198.88305 79.690754 201.73035 76.904297 203.11719 C 75.794819 203.66938 75.330286 203.87896 74.240234 204.01172 C 73.150193 204.14448 71.407153 204.15414 68.128906 204.12891 C 64.205323 204.09871 62.207964 204.06543 61.027344 203.87891 C 59.846721 203.69239 59.425073 203.41821 58.166016 202.63281 C 55.525584 200.98566 53.817938 198.82993 52.855469 195.94336 C 52.425693 194.65437 52.234496 193.93531 52.130859 191.6875 C 52.02723 189.43971 52.046191 185.74799 52.111328 178.89844 C 52.178892 171.79443 52.22358 168.12241 52.375 166.01953 C 52.526427 163.91666 52.713582 163.51084 53.232422 162.36523 C 54.276596 160.05857 57.320786 157.00748 59.521484 156.02539 C 60.563057 155.56058 62.292705 155.3645 67.869141 155.35547 z M 237.27148 215.81836 C 237.48874 215.81914 237.70659 215.82925 237.92578 215.84961 C 239.09482 215.9582 240.2837 216.34697 241.41602 217.04883 C 244.06449 218.69035 245.24451 221.31509 245.12305 223.90625 C 245.00157 226.49741 243.57744 229.02346 240.7793 230.44922 C 237.53352 232.10305 233.6192 231.11842 231.31445 227.98828 C 229.79569 225.92562 229.41319 223.96742 230.04102 221.63867 C 231.02866 217.97534 234.01264 215.80668 237.27148 215.81836 z M 229.82422 229.75195 C 232.7825 233.37122 237.7245 234.55365 241.80859 232.47266 C 242.04232 232.35357 242.2511 232.21233 242.4707 232.08008 L 252.08203 238.04688 C 249.61861 240.56658 246.58865 242.40083 243.11328 243.43164 C 240.73655 244.13659 234.48446 244.15122 231.71875 243.40625 C 226.9193 242.11348 221.3994 237.63062 219.19141 233.24414 C 218.86277 232.59126 218.57918 231.93779 218.31641 231.28516 L 229.82422 229.75195 z "
       transform="rotate(-13.074655,-1320.0958,-833.53358)"
       id="path899" /></g></svg>