<?xml version="1.0" encoding="UTF-8" standalone="no"?>
<!-- Generator: Adobe Illustrator 16.0.4, SVG Export Plug-In . SVG Version: 6.00 Build 0)  -->

<svg
   xmlns:dc="http://purl.org/dc/elements/1.1/"
   xmlns:cc="http://creativecommons.org/ns#"
   xmlns:rdf="http://www.w3.org/1999/02/22-rdf-syntax-ns#"
   xmlns:svg="http://www.w3.org/2000/svg"
   xmlns="http://www.w3.org/2000/svg"
   xmlns:sodipodi="http://sodipodi.sourceforge.net/DTD/sodipodi-0.dtd"
   xmlns:inkscape="http://www.inkscape.org/namespaces/inkscape"
   version="1.1"
   id="Layer_1"
   x="0px"
   y="0px"
   width="81.800568mm"
   height="71.170105mm"
   viewBox="0 0 309.1675 268.98937"
   enable-background="new 0 0 343.4 217.1"
   xml:space="preserve"
   sodipodi:docname="soria.svg"
   inkscape:version="0.92.2 5c3e80d, 2017-08-06"
   inkscape:export-filename="/home/stopka/Veřejné/data/Pictures/ldtpardubice/2017/ticket/ticket.svg.png"
   inkscape:export-xdpi="96"
   inkscape:export-ydpi="96"><metadata
     id="metadata33"><rdf:RDF><cc:Work
         rdf:about=""><dc:format>image/svg+xml</dc:format><dc:type
           rdf:resource="http://purl.org/dc/dcmitype/StillImage" /><dc:title></dc:title></cc:Work></rdf:RDF></metadata><defs
     id="defs31"><inkscape:path-effect
       bendpath1-nodetypes="ccsccc"
       bendpath3-nodetypes="ccsccc"
       bendpath4="M 371.99548,57.207729 V 139.85472"
       bendpath3="m 371.63947,139.79132 c 0,0 18.13321,-0.79768 30.90793,7.91136 8.3983,5.72547 11.05923,20.02865 18.16111,23.58036 11.1075,5.55498 27.44237,-1.37424 45.89379,0.58459 6.13873,0.65168 9.12977,3.91373 16.17799,7.76082 4.07777,2.22575 11.38216,4.28425 17.25744,4.61248"
       bendpath2="M 527.69374,57.207729 V 139.85472"
       bendpath1="m 373.11311,56.6934 c 0,0 18.13322,-0.797682 30.90794,7.911355 8.3983,5.725475 11.05923,20.028653 18.1611,23.580368 11.1075,5.554976 27.44237,-1.374246 45.89379,0.584586 6.13874,0.65168 9.12977,3.91373 16.17799,7.76082 4.07777,2.22575 11.38216,4.284251 17.25745,4.612481"
       xx="false"
       yy="true"
       is_visible="true"
       id="path-effect4874"
       effect="envelope" /><inkscape:path-effect
       lock_angle="false"
       lock_lenght="false"
       flip_horizontal="false"
       flip_vertical="false"
       from_original_width="true"
       elastic="true"
       offset="0"
       stretch="1"
       helper_size="3"
       last_knot="2"
       first_knot="1"
       is_visible="true"
       id="path-effect4872"
       end="527.69374,98.531223"
       start="372.1,98.531223"
       effect="transform_2pts" /><inkscape:path-effect
       fuse_tolerance="0"
       vertical_pattern="false"
       prop_units="false"
       tang_offset="0"
       normal_offset="0"
       spacing="0"
       scale_y_rel="false"
       prop_scale="1"
       copytype="single_stretched"
       pattern="M 0,0 H 1"
       is_visible="true"
       id="path-effect4851"
       effect="skeletal" /><inkscape:path-effect
       id="path-effect4839"
       effect="attach_path"
       is_visible="true"
       startpath=""
       startposition="0"
       startcurvestart="0,0 , 20,0"
       startcurveend="0,0 , 20,0"
       endpath=""
       endposition="0"
       endcurvestart="0,0 , 20,0"
       endcurveend="0,0 , 20,0" /><inkscape:path-effect
       id="path-effect4837"
       effect="attach_path"
       is_visible="true"
       startpath=""
       startposition="0"
       startcurvestart="0,0 , 20,0"
       startcurveend="0,0 , 20,0"
       endpath=""
       endposition="0"
       endcurvestart="0,0 , 20,0"
       endcurveend="0,0 , 20,0" /><inkscape:perspective
       sodipodi:type="inkscape:persp3d"
       inkscape:vp_x="0 : 526.18106 : 1"
       inkscape:vp_y="0 : 999.99996 : 0"
       inkscape:vp_z="744.09449 : 526.18107 : 1"
       inkscape:persp3d-origin="372.04724 : 350.78737 : 1"
       id="perspective3265" /><inkscape:perspective
       id="perspective3881"
       inkscape:persp3d-origin="372.04724 : 350.78737 : 1"
       inkscape:vp_z="744.09449 : 526.18107 : 1"
       inkscape:vp_y="0 : 999.99996 : 0"
       inkscape:vp_x="0 : 526.18106 : 1"
       sodipodi:type="inkscape:persp3d" /><inkscape:perspective
       id="perspective3972"
       inkscape:persp3d-origin="372.04724 : 350.78737 : 1"
       inkscape:vp_z="744.09449 : 526.18107 : 1"
       inkscape:vp_y="0 : 999.99996 : 0"
       inkscape:vp_x="0 : 526.18106 : 1"
       sodipodi:type="inkscape:persp3d" /><inkscape:perspective
       id="perspective4046"
       inkscape:persp3d-origin="372.04724 : 350.78737 : 1"
       inkscape:vp_z="744.09449 : 526.18107 : 1"
       inkscape:vp_y="0 : 999.99996 : 0"
       inkscape:vp_x="0 : 526.18106 : 1"
       sodipodi:type="inkscape:persp3d" /><inkscape:perspective
       id="perspective4122"
       inkscape:persp3d-origin="372.04724 : 350.78737 : 1"
       inkscape:vp_z="744.09449 : 526.18107 : 1"
       inkscape:vp_y="0 : 999.99996 : 0"
       inkscape:vp_x="0 : 526.18106 : 1"
       sodipodi:type="inkscape:persp3d" /><inkscape:perspective
       id="perspective4194"
       inkscape:persp3d-origin="372.04724 : 350.78737 : 1"
       inkscape:vp_z="744.09449 : 526.18107 : 1"
       inkscape:vp_y="0 : 999.99996 : 0"
       inkscape:vp_x="0 : 526.18106 : 1"
       sodipodi:type="inkscape:persp3d" /><inkscape:perspective
       id="perspective9"
       inkscape:persp3d-origin="372.04724 : 350.78737 : 1"
       inkscape:vp_z="744.09449 : 526.18107 : 1"
       inkscape:vp_y="0 : 999.99996 : 0"
       inkscape:vp_x="0 : 526.18106 : 1"
       sodipodi:type="inkscape:persp3d" /><inkscape:perspective
       id="perspective4327"
       inkscape:persp3d-origin="372.04724 : 350.78737 : 1"
       inkscape:vp_z="744.09449 : 526.18107 : 1"
       inkscape:vp_y="0 : 999.99996 : 0"
       inkscape:vp_x="0 : 526.18106 : 1"
       sodipodi:type="inkscape:persp3d" /><inkscape:perspective
       id="perspective4365"
       inkscape:persp3d-origin="372.04724 : 350.78737 : 1"
       inkscape:vp_z="744.09449 : 526.18107 : 1"
       inkscape:vp_y="0 : 999.99996 : 0"
       inkscape:vp_x="0 : 526.18106 : 1"
       sodipodi:type="inkscape:persp3d" /><inkscape:perspective
       id="perspective4451"
       inkscape:persp3d-origin="372.04724 : 350.78737 : 1"
       inkscape:vp_z="744.09449 : 526.18107 : 1"
       inkscape:vp_y="0 : 999.99996 : 0"
       inkscape:vp_x="0 : 526.18106 : 1"
       sodipodi:type="inkscape:persp3d" /><inkscape:perspective
       sodipodi:type="inkscape:persp3d"
       inkscape:vp_x="0 : 526.18106 : 1"
       inkscape:vp_y="0 : 999.99996 : 0"
       inkscape:vp_z="744.09449 : 526.18107 : 1"
       inkscape:persp3d-origin="372.04724 : 350.78737 : 1"
       id="perspective4495" /><inkscape:perspective
       id="perspective4493"
       inkscape:persp3d-origin="372.04724 : 350.78737 : 1"
       inkscape:vp_z="744.09449 : 526.18107 : 1"
       inkscape:vp_y="0 : 999.99996 : 0"
       inkscape:vp_x="0 : 526.18106 : 1"
       sodipodi:type="inkscape:persp3d" /><inkscape:perspective
       sodipodi:type="inkscape:persp3d"
       inkscape:vp_x="0 : 526.18106 : 1"
       inkscape:vp_y="0 : 999.99996 : 0"
       inkscape:vp_z="744.09449 : 526.18107 : 1"
       inkscape:persp3d-origin="372.04724 : 350.78737 : 1"
       id="perspective4593" /><inkscape:perspective
       sodipodi:type="inkscape:persp3d"
       inkscape:vp_x="0 : 526.18106 : 1"
       inkscape:vp_y="0 : 999.99996 : 0"
       inkscape:vp_z="744.09449 : 526.18107 : 1"
       inkscape:persp3d-origin="372.04724 : 350.78737 : 1"
       id="perspective4591" /><inkscape:perspective
       id="perspective4589"
       inkscape:persp3d-origin="372.04724 : 350.78737 : 1"
       inkscape:vp_z="744.09449 : 526.18107 : 1"
       inkscape:vp_y="0 : 999.99996 : 0"
       inkscape:vp_x="0 : 526.18106 : 1"
       sodipodi:type="inkscape:persp3d" /><inkscape:perspective
       id="perspective4660"
       inkscape:persp3d-origin="372.04724 : 350.78737 : 1"
       inkscape:vp_z="744.09449 : 526.18107 : 1"
       inkscape:vp_y="0 : 999.99996 : 0"
       inkscape:vp_x="0 : 526.18106 : 1"
       sodipodi:type="inkscape:persp3d" /><inkscape:perspective
       id="perspective4732"
       inkscape:persp3d-origin="372.04724 : 350.78737 : 1"
       inkscape:vp_z="744.09449 : 526.18107 : 1"
       inkscape:vp_y="0 : 999.99996 : 0"
       inkscape:vp_x="0 : 526.18106 : 1"
       sodipodi:type="inkscape:persp3d" /><inkscape:perspective
       sodipodi:type="inkscape:persp3d"
       inkscape:vp_x="0 : 526.18106 : 1"
       inkscape:vp_y="0 : 999.99996 : 0"
       inkscape:vp_z="744.09449 : 526.18107 : 1"
       inkscape:persp3d-origin="372.04724 : 350.78737 : 1"
       id="perspective4786" /><inkscape:perspective
       sodipodi:type="inkscape:persp3d"
       inkscape:vp_x="0 : 526.18106 : 1"
       inkscape:vp_y="0 : 999.99996 : 0"
       inkscape:vp_z="744.09449 : 526.18107 : 1"
       inkscape:persp3d-origin="372.04724 : 350.78737 : 1"
       id="perspective4784" /><inkscape:perspective
       sodipodi:type="inkscape:persp3d"
       inkscape:vp_x="0 : 526.18106 : 1"
       inkscape:vp_y="0 : 999.99996 : 0"
       inkscape:vp_z="744.09449 : 526.18107 : 1"
       inkscape:persp3d-origin="372.04724 : 350.78737 : 1"
       id="perspective4782" /><inkscape:perspective
       id="perspective4780"
       inkscape:persp3d-origin="372.04724 : 350.78737 : 1"
       inkscape:vp_z="744.09449 : 526.18107 : 1"
       inkscape:vp_y="0 : 999.99996 : 0"
       inkscape:vp_x="0 : 526.18106 : 1"
       sodipodi:type="inkscape:persp3d" /><inkscape:perspective
       id="perspective4874"
       inkscape:persp3d-origin="372.04724 : 350.78737 : 1"
       inkscape:vp_z="744.09449 : 526.18107 : 1"
       inkscape:vp_y="0 : 999.99996 : 0"
       inkscape:vp_x="0 : 526.18106 : 1"
       sodipodi:type="inkscape:persp3d" /><inkscape:perspective
       id="perspective4950"
       inkscape:persp3d-origin="372.04724 : 350.78737 : 1"
       inkscape:vp_z="744.09449 : 526.18107 : 1"
       inkscape:vp_y="0 : 999.99996 : 0"
       inkscape:vp_x="0 : 526.18106 : 1"
       sodipodi:type="inkscape:persp3d" /><inkscape:perspective
       id="perspective5024"
       inkscape:persp3d-origin="372.04724 : 350.78737 : 1"
       inkscape:vp_z="744.09449 : 526.18107 : 1"
       inkscape:vp_y="0 : 999.99996 : 0"
       inkscape:vp_x="0 : 526.18106 : 1"
       sodipodi:type="inkscape:persp3d" /><inkscape:perspective
       id="perspective5102"
       inkscape:persp3d-origin="372.04724 : 350.78737 : 1"
       inkscape:vp_z="744.09449 : 526.18107 : 1"
       inkscape:vp_y="0 : 999.99996 : 0"
       inkscape:vp_x="0 : 526.18106 : 1"
       sodipodi:type="inkscape:persp3d" /><inkscape:perspective
       id="perspective5169"
       inkscape:persp3d-origin="372.04724 : 350.78737 : 1"
       inkscape:vp_z="744.09449 : 526.18107 : 1"
       inkscape:vp_y="0 : 999.99996 : 0"
       inkscape:vp_x="0 : 526.18106 : 1"
       sodipodi:type="inkscape:persp3d" /><inkscape:perspective
       id="perspective5258"
       inkscape:persp3d-origin="372.04724 : 350.78737 : 1"
       inkscape:vp_z="744.09449 : 526.18107 : 1"
       inkscape:vp_y="0 : 999.99996 : 0"
       inkscape:vp_x="0 : 526.18106 : 1"
       sodipodi:type="inkscape:persp3d" /><inkscape:perspective
       id="perspective5925"
       inkscape:persp3d-origin="372.04724 : 350.78737 : 1"
       inkscape:vp_z="744.09449 : 526.18107 : 1"
       inkscape:vp_y="0 : 999.99996 : 0"
       inkscape:vp_x="0 : 526.18106 : 1"
       sodipodi:type="inkscape:persp3d" /><inkscape:perspective
       id="perspective6001"
       inkscape:persp3d-origin="372.04724 : 350.78737 : 1"
       inkscape:vp_z="744.09449 : 526.18107 : 1"
       inkscape:vp_y="0 : 999.99996 : 0"
       inkscape:vp_x="0 : 526.18106 : 1"
       sodipodi:type="inkscape:persp3d" /><inkscape:perspective
       id="perspective6075"
       inkscape:persp3d-origin="372.04724 : 350.78737 : 1"
       inkscape:vp_z="744.09449 : 526.18107 : 1"
       inkscape:vp_y="0 : 999.99996 : 0"
       inkscape:vp_x="0 : 526.18106 : 1"
       sodipodi:type="inkscape:persp3d" /><inkscape:perspective
       id="perspective6147"
       inkscape:persp3d-origin="372.04724 : 350.78737 : 1"
       inkscape:vp_z="744.09449 : 526.18107 : 1"
       inkscape:vp_y="0 : 999.99996 : 0"
       inkscape:vp_x="0 : 526.18106 : 1"
       sodipodi:type="inkscape:persp3d" /><inkscape:perspective
       id="perspective6214"
       inkscape:persp3d-origin="372.04724 : 350.78737 : 1"
       inkscape:vp_z="744.09449 : 526.18107 : 1"
       inkscape:vp_y="0 : 999.99996 : 0"
       inkscape:vp_x="0 : 526.18106 : 1"
       sodipodi:type="inkscape:persp3d" /><inkscape:perspective
       id="perspective6305"
       inkscape:persp3d-origin="372.04724 : 350.78737 : 1"
       inkscape:vp_z="744.09449 : 526.18107 : 1"
       inkscape:vp_y="0 : 999.99996 : 0"
       inkscape:vp_x="0 : 526.18106 : 1"
       sodipodi:type="inkscape:persp3d" /><inkscape:perspective
       id="perspective6379"
       inkscape:persp3d-origin="372.04724 : 350.78737 : 1"
       inkscape:vp_z="744.09449 : 526.18107 : 1"
       inkscape:vp_y="0 : 999.99996 : 0"
       inkscape:vp_x="0 : 526.18106 : 1"
       sodipodi:type="inkscape:persp3d" /><inkscape:perspective
       id="perspective6455"
       inkscape:persp3d-origin="372.04724 : 350.78737 : 1"
       inkscape:vp_z="744.09449 : 526.18107 : 1"
       inkscape:vp_y="0 : 999.99996 : 0"
       inkscape:vp_x="0 : 526.18106 : 1"
       sodipodi:type="inkscape:persp3d" /><inkscape:perspective
       id="perspective6527"
       inkscape:persp3d-origin="372.04724 : 350.78737 : 1"
       inkscape:vp_z="744.09449 : 526.18107 : 1"
       inkscape:vp_y="0 : 999.99996 : 0"
       inkscape:vp_x="0 : 526.18106 : 1"
       sodipodi:type="inkscape:persp3d" /><inkscape:perspective
       id="perspective6594"
       inkscape:persp3d-origin="372.04724 : 350.78737 : 1"
       inkscape:vp_z="744.09449 : 526.18107 : 1"
       inkscape:vp_y="0 : 999.99996 : 0"
       inkscape:vp_x="0 : 526.18106 : 1"
       sodipodi:type="inkscape:persp3d" /><inkscape:perspective
       id="perspective6683"
       inkscape:persp3d-origin="372.04724 : 350.78737 : 1"
       inkscape:vp_z="744.09449 : 526.18107 : 1"
       inkscape:vp_y="0 : 999.99996 : 0"
       inkscape:vp_x="0 : 526.18106 : 1"
       sodipodi:type="inkscape:persp3d" /><inkscape:perspective
       id="perspective6757"
       inkscape:persp3d-origin="372.04724 : 350.78737 : 1"
       inkscape:vp_z="744.09449 : 526.18107 : 1"
       inkscape:vp_y="0 : 999.99996 : 0"
       inkscape:vp_x="0 : 526.18106 : 1"
       sodipodi:type="inkscape:persp3d" /><inkscape:perspective
       id="perspective6831"
       inkscape:persp3d-origin="372.04724 : 350.78737 : 1"
       inkscape:vp_z="744.09449 : 526.18107 : 1"
       inkscape:vp_y="0 : 999.99996 : 0"
       inkscape:vp_x="0 : 526.18106 : 1"
       sodipodi:type="inkscape:persp3d" /><inkscape:perspective
       id="perspective6905"
       inkscape:persp3d-origin="372.04724 : 350.78737 : 1"
       inkscape:vp_z="744.09449 : 526.18107 : 1"
       inkscape:vp_y="0 : 999.99996 : 0"
       inkscape:vp_x="0 : 526.18106 : 1"
       sodipodi:type="inkscape:persp3d" /><inkscape:perspective
       id="perspective6979"
       inkscape:persp3d-origin="372.04724 : 350.78737 : 1"
       inkscape:vp_z="744.09449 : 526.18107 : 1"
       inkscape:vp_y="0 : 999.99996 : 0"
       inkscape:vp_x="0 : 526.18106 : 1"
       sodipodi:type="inkscape:persp3d" /><inkscape:perspective
       id="perspective7046"
       inkscape:persp3d-origin="372.04724 : 350.78737 : 1"
       inkscape:vp_z="744.09449 : 526.18107 : 1"
       inkscape:vp_y="0 : 999.99996 : 0"
       inkscape:vp_x="0 : 526.18106 : 1"
       sodipodi:type="inkscape:persp3d" /><inkscape:perspective
       id="perspective7137"
       inkscape:persp3d-origin="372.04724 : 350.78737 : 1"
       inkscape:vp_z="744.09449 : 526.18107 : 1"
       inkscape:vp_y="0 : 999.99996 : 0"
       inkscape:vp_x="0 : 526.18106 : 1"
       sodipodi:type="inkscape:persp3d" /><inkscape:perspective
       id="perspective7209"
       inkscape:persp3d-origin="372.04724 : 350.78737 : 1"
       inkscape:vp_z="744.09449 : 526.18107 : 1"
       inkscape:vp_y="0 : 999.99996 : 0"
       inkscape:vp_x="0 : 526.18106 : 1"
       sodipodi:type="inkscape:persp3d" /><inkscape:perspective
       id="perspective7283"
       inkscape:persp3d-origin="372.04724 : 350.78737 : 1"
       inkscape:vp_z="744.09449 : 526.18107 : 1"
       inkscape:vp_y="0 : 999.99996 : 0"
       inkscape:vp_x="0 : 526.18106 : 1"
       sodipodi:type="inkscape:persp3d" /><inkscape:perspective
       id="perspective7357"
       inkscape:persp3d-origin="372.04724 : 350.78737 : 1"
       inkscape:vp_z="744.09449 : 526.18107 : 1"
       inkscape:vp_y="0 : 999.99996 : 0"
       inkscape:vp_x="0 : 526.18106 : 1"
       sodipodi:type="inkscape:persp3d" /><inkscape:perspective
       id="perspective7424"
       inkscape:persp3d-origin="372.04724 : 350.78737 : 1"
       inkscape:vp_z="744.09449 : 526.18107 : 1"
       inkscape:vp_y="0 : 999.99996 : 0"
       inkscape:vp_x="0 : 526.18106 : 1"
       sodipodi:type="inkscape:persp3d" /><inkscape:perspective
       id="perspective7496"
       inkscape:persp3d-origin="372.04724 : 350.78737 : 1"
       inkscape:vp_z="744.09449 : 526.18107 : 1"
       inkscape:vp_y="0 : 999.99996 : 0"
       inkscape:vp_x="0 : 526.18106 : 1"
       sodipodi:type="inkscape:persp3d" /><inkscape:perspective
       id="perspective7563"
       inkscape:persp3d-origin="372.04724 : 350.78737 : 1"
       inkscape:vp_z="744.09449 : 526.18107 : 1"
       inkscape:vp_y="0 : 999.99996 : 0"
       inkscape:vp_x="0 : 526.18106 : 1"
       sodipodi:type="inkscape:persp3d" /><inkscape:perspective
       id="perspective7637"
       inkscape:persp3d-origin="372.04724 : 350.78737 : 1"
       inkscape:vp_z="744.09449 : 526.18107 : 1"
       inkscape:vp_y="0 : 999.99996 : 0"
       inkscape:vp_x="0 : 526.18106 : 1"
       sodipodi:type="inkscape:persp3d" /><inkscape:perspective
       id="perspective7709"
       inkscape:persp3d-origin="372.04724 : 350.78737 : 1"
       inkscape:vp_z="744.09449 : 526.18107 : 1"
       inkscape:vp_y="0 : 999.99996 : 0"
       inkscape:vp_x="0 : 526.18106 : 1"
       sodipodi:type="inkscape:persp3d" /><inkscape:perspective
       id="perspective7790"
       inkscape:persp3d-origin="372.04724 : 350.78737 : 1"
       inkscape:vp_z="744.09449 : 526.18107 : 1"
       inkscape:vp_y="0 : 999.99996 : 0"
       inkscape:vp_x="0 : 526.18106 : 1"
       sodipodi:type="inkscape:persp3d" /><inkscape:perspective
       id="perspective7866"
       inkscape:persp3d-origin="372.04724 : 350.78737 : 1"
       inkscape:vp_z="744.09449 : 526.18107 : 1"
       inkscape:vp_y="0 : 999.99996 : 0"
       inkscape:vp_x="0 : 526.18106 : 1"
       sodipodi:type="inkscape:persp3d" /><inkscape:perspective
       id="perspective7940"
       inkscape:persp3d-origin="372.04724 : 350.78737 : 1"
       inkscape:vp_z="744.09449 : 526.18107 : 1"
       inkscape:vp_y="0 : 999.99996 : 0"
       inkscape:vp_x="0 : 526.18106 : 1"
       sodipodi:type="inkscape:persp3d" /><inkscape:perspective
       id="perspective8014"
       inkscape:persp3d-origin="372.04724 : 350.78737 : 1"
       inkscape:vp_z="744.09449 : 526.18107 : 1"
       inkscape:vp_y="0 : 999.99996 : 0"
       inkscape:vp_x="0 : 526.18106 : 1"
       sodipodi:type="inkscape:persp3d" /><inkscape:perspective
       id="perspective8092"
       inkscape:persp3d-origin="372.04724 : 350.78737 : 1"
       inkscape:vp_z="744.09449 : 526.18107 : 1"
       inkscape:vp_y="0 : 999.99996 : 0"
       inkscape:vp_x="0 : 526.18106 : 1"
       sodipodi:type="inkscape:persp3d" /><inkscape:perspective
       id="perspective8164"
       inkscape:persp3d-origin="372.04724 : 350.78737 : 1"
       inkscape:vp_z="744.09449 : 526.18107 : 1"
       inkscape:vp_y="0 : 999.99996 : 0"
       inkscape:vp_x="0 : 526.18106 : 1"
       sodipodi:type="inkscape:persp3d" /><inkscape:perspective
       id="perspective8253"
       inkscape:persp3d-origin="372.04724 : 350.78737 : 1"
       inkscape:vp_z="744.09449 : 526.18107 : 1"
       inkscape:vp_y="0 : 999.99996 : 0"
       inkscape:vp_x="0 : 526.18106 : 1"
       sodipodi:type="inkscape:persp3d" /><inkscape:perspective
       id="perspective8359"
       inkscape:persp3d-origin="372.04724 : 350.78737 : 1"
       inkscape:vp_z="744.09449 : 526.18107 : 1"
       inkscape:vp_y="0 : 999.99996 : 0"
       inkscape:vp_x="0 : 526.18106 : 1"
       sodipodi:type="inkscape:persp3d" /><inkscape:perspective
       id="perspective8435"
       inkscape:persp3d-origin="372.04724 : 350.78737 : 1"
       inkscape:vp_z="744.09449 : 526.18107 : 1"
       inkscape:vp_y="0 : 999.99996 : 0"
       inkscape:vp_x="0 : 526.18106 : 1"
       sodipodi:type="inkscape:persp3d" /><inkscape:perspective
       id="perspective8507"
       inkscape:persp3d-origin="372.04724 : 350.78737 : 1"
       inkscape:vp_z="744.09449 : 526.18107 : 1"
       inkscape:vp_y="0 : 999.99996 : 0"
       inkscape:vp_x="0 : 526.18106 : 1"
       sodipodi:type="inkscape:persp3d" /><inkscape:perspective
       id="perspective8631"
       inkscape:persp3d-origin="372.04724 : 350.78737 : 1"
       inkscape:vp_z="744.09449 : 526.18107 : 1"
       inkscape:vp_y="0 : 999.99996 : 0"
       inkscape:vp_x="0 : 526.18106 : 1"
       sodipodi:type="inkscape:persp3d" /><inkscape:perspective
       id="perspective8681"
       inkscape:persp3d-origin="372.04724 : 350.78737 : 1"
       inkscape:vp_z="744.09449 : 526.18107 : 1"
       inkscape:vp_y="0 : 999.99996 : 0"
       inkscape:vp_x="0 : 526.18106 : 1"
       sodipodi:type="inkscape:persp3d" /><inkscape:perspective
       sodipodi:type="inkscape:persp3d"
       inkscape:vp_x="0 : 526.18106 : 1"
       inkscape:vp_y="0 : 999.99996 : 0"
       inkscape:vp_z="744.09449 : 526.18107 : 1"
       inkscape:persp3d-origin="372.04724 : 350.78737 : 1"
       id="perspective8749" /><inkscape:perspective
       sodipodi:type="inkscape:persp3d"
       inkscape:vp_x="0 : 526.18106 : 1"
       inkscape:vp_y="0 : 999.99996 : 0"
       inkscape:vp_z="744.09449 : 526.18107 : 1"
       inkscape:persp3d-origin="372.04724 : 350.78737 : 1"
       id="perspective8747" /><inkscape:perspective
       sodipodi:type="inkscape:persp3d"
       inkscape:vp_x="0 : 526.18106 : 1"
       inkscape:vp_y="0 : 999.99996 : 0"
       inkscape:vp_z="744.09449 : 526.18107 : 1"
       inkscape:persp3d-origin="372.04724 : 350.78737 : 1"
       id="perspective8745" /><inkscape:perspective
       sodipodi:type="inkscape:persp3d"
       inkscape:vp_x="0 : 526.18106 : 1"
       inkscape:vp_y="0 : 999.99996 : 0"
       inkscape:vp_z="744.09449 : 526.18107 : 1"
       inkscape:persp3d-origin="372.04724 : 350.78737 : 1"
       id="perspective8743" /><inkscape:perspective
       sodipodi:type="inkscape:persp3d"
       inkscape:vp_x="0 : 526.18106 : 1"
       inkscape:vp_y="0 : 999.99996 : 0"
       inkscape:vp_z="744.09449 : 526.18107 : 1"
       inkscape:persp3d-origin="372.04724 : 350.78737 : 1"
       id="perspective8741" /><inkscape:perspective
       sodipodi:type="inkscape:persp3d"
       inkscape:vp_x="0 : 526.18106 : 1"
       inkscape:vp_y="0 : 999.99996 : 0"
       inkscape:vp_z="744.09449 : 526.18107 : 1"
       inkscape:persp3d-origin="372.04724 : 350.78737 : 1"
       id="perspective8739" /><inkscape:perspective
       id="perspective8737"
       inkscape:persp3d-origin="372.04724 : 350.78737 : 1"
       inkscape:vp_z="744.09449 : 526.18107 : 1"
       inkscape:vp_y="0 : 999.99996 : 0"
       inkscape:vp_x="0 : 526.18106 : 1"
       sodipodi:type="inkscape:persp3d" /></defs><sodipodi:namedview
     pagecolor="#ffffff"
     bordercolor="#666666"
     borderopacity="1"
     objecttolerance="10"
     gridtolerance="10"
     guidetolerance="10"
     inkscape:pageopacity="0"
     inkscape:pageshadow="2"
     inkscape:window-width="1366"
     inkscape:window-height="718"
     id="namedview29"
     showgrid="false"
     inkscape:zoom="1.1884314"
     inkscape:cx="189.60022"
     inkscape:cy="126.45129"
     inkscape:window-x="1280"
     inkscape:window-y="336"
     inkscape:window-maximized="1"
     inkscape:current-layer="g26"
     fit-margin-top="6"
     fit-margin-right="6"
     fit-margin-bottom="6"
     fit-margin-left="6"
     units="mm" /><g
     id="g26"
     transform="rotate(13.074655,-1320.0958,-833.53358)"><path
       style="color:#000000;font-style:normal;font-variant:normal;font-weight:normal;font-stretch:normal;font-size:medium;line-height:normal;font-family:sans-serif;font-variant-ligatures:normal;font-variant-position:normal;font-variant-caps:normal;font-variant-numeric:normal;font-variant-alternates:normal;font-feature-settings:normal;text-indent:0;text-align:start;text-decoration:none;text-decoration-line:none;text-decoration-style:solid;text-decoration-color:#000000;letter-spacing:normal;word-spacing:normal;text-transform:none;writing-mode:lr-tb;direction:ltr;text-orientation:mixed;dominant-baseline:auto;baseline-shift:baseline;text-anchor:start;white-space:normal;shape-padding:0;clip-rule:nonzero;display:inline;overflow:visible;visibility:visible;opacity:1;isolation:auto;mix-blend-mode:normal;color-interpolation:sRGB;color-interpolation-filters:linearRGB;solid-color:#000000;solid-opacity:1;vector-effect:none;fill:#000000;fill-opacity:1;fill-rule:nonzero;stroke:none;stroke-width:2.26771665;stroke-linecap:butt;stroke-linejoin:round;stroke-miterlimit:4;stroke-dasharray:none;stroke-dashoffset:0;stroke-opacity:1;color-rendering:auto;image-rendering:auto;shape-rendering:auto;text-rendering:auto;enable-background:accumulate"
       d="m 256.38477,-312.48828 c -5.77252,0.0838 -6.81859,0.24188 -17.67774,2.78906 -10.69219,2.50802 -11.9047,2.89383 -16.33203,5.08594 -2.6321,1.30323 -5.83651,3.112 -7.34375,4.17383 -1.29399,0.91159 -3.32867,2.05462 -4.1875,2.39453 -1.86578,0.73845 -2.41245,1.00757 -4.56641,0.51758 -2.15395,-0.49 -5.80663,-1.8945 -12.91992,-4.68555 -2.34445,-0.92013 -3.90588,-1.47978 -5.16015,-1.77734 -1.25428,-0.29757 -2.25869,-0.30901 -3.18555,-0.0937 -0.96506,0.22412 -1.82632,0.6664 -2.33789,1.45703 -0.51157,0.79063 -0.55074,1.76666 -0.33008,2.71679 0.19649,0.84604 0.74286,1.46012 1.55469,2.20704 0.81182,0.74691 1.95017,1.61683 3.53906,2.73632 2.38955,1.68361 6.33899,4.53311 8.75195,6.31446 l 4.07032,3.00586 1.27148,5.43554 c 0.73771,3.1548 3.61857,16.6252 6.37695,29.82813 l 5.01758,24.01172 c 0.0372,0.17999 0.11768,0.34823 0.23438,0.49023 l 1.63086,1.9707 c 4.28505,5.18421 12.66187,4.01679 15.4414,-2.13672 0.41909,-0.92781 0.73619,-1.84253 0.57617,-3.41992 -0.16001,-1.57738 -0.6672,-3.98518 -1.66992,-8.82031 -0.99917,-4.81806 -1.49458,-7.25285 -1.63476,-8.61914 -0.14019,-1.36629 -0.0187,-1.55505 0.37304,-2.63867 1.72406,-4.76934 5.43383,-7.99981 9.48047,-9.24024 4.04664,-1.24042 8.35652,-0.52183 11.52344,2.64454 1.55429,1.55402 2.435,2.7855 3.55078,6.07226 1.11578,3.28676 2.37458,8.56141 4.42383,17.76367 l 3.63476,16.31641 -0.76562,3.10547 c -0.58301,2.36202 -1.17738,3.57926 -2.39844,5 -1.42932,1.66304 -2.70816,2.73492 -4.82812,3.77539 -2.11997,1.04046 -5.10037,2.02001 -9.7461,3.29883 -6.76099,1.86108 -8.71403,2.54662 -10.3789,3.80273 -2.67081,2.01508 -5.03997,5.74776 -5.72071,9.01758 -0.12001,0.57645 -0.2371,1.22794 -0.1582,2.24805 0.0789,1.0201 0.32071,2.45267 0.8457,4.98828 1.05,5.07122 3.25101,14.55039 7.65235,33.50195 l 8.81445,37.95117 c 0.0421,0.1792 0.12728,0.34545 0.24805,0.48438 l 1.71875,1.98437 c 2.25075,2.59583 5.7096,4.60309 9.15234,5.33008 1.16134,0.24525 2.19454,0.35439 5.13477,-0.19531 2.94022,-0.5497 8.02621,-1.72679 18.00781,-4.04492 l 20.33984,-4.72461 c 0.16809,-0.039 0.32508,-0.11579 0.45899,-0.22461 l 2.24609,-1.83203 c 2.72951,-2.22649 4.78931,-5.2875 5.67774,-8.4961 0.1414,-0.51066 0.28023,-1.11822 0.25195,-1.97265 -0.0283,-0.85444 -0.18757,-1.97646 -0.54883,-3.87891 -0.72251,-3.80491 -2.27092,-10.73603 -5.33789,-24.44336 l -6.14453,-27.46484 0.72266,-2.78321 c 0.87643,-3.37592 2.37328,-5.62638 5.28906,-7.91797 l 2.01562,-1.58398 37.89649,-9.16992 c 20.97257,-5.07397 42.32769,-10.1384 47.35156,-11.23242 l 8.98242,-1.95508 3.16602,0.78711 c 4.12565,1.0266 7.10154,3.24639 9.20703,6.85547 0.71223,1.22086 1.11024,2.03421 1.7539,4.25781 0.64367,2.2236 1.49556,5.80193 2.99805,12.27148 1.82816,7.87182 2.78346,12.34658 3.04688,15.18164 0.26342,2.83507 -0.0683,3.91823 -0.94727,5.66602 -4.92529,9.79409 -4.11355,19.43078 2.37695,27.22266 3.68454,4.4233 10.36916,7.67837 16.16602,7.88085 3.59845,0.12572 9.36861,-1.182 12.30469,-2.8496 5.83427,-3.31368 9.82704,-8.82055 11.32226,-15.57813 0.84463,-3.81714 0.8331,-4.46712 -0.39062,-9.73633 -0.59299,-2.55334 -0.93021,-3.96746 -1.42774,-5.15429 -0.49753,-1.18684 -1.13663,-2.04252 -2.15429,-3.32422 -1.23167,-1.55121 -3.11874,-3.52779 -4.40821,-4.5918 l -1.8164,-1.49805 -1.69141,-7.91015 c -0.76102,-3.55944 -1.18223,-5.68797 -1.35547,-7.04297 -0.17324,-1.355 -0.12151,-1.8462 0.0527,-2.47461 0.42454,-1.53117 1.03729,-2.54415 2.38672,-3.62891 1.34942,-1.08475 3.48658,-2.18717 6.7871,-3.5332 7.44976,-3.03817 11.41862,-5.88158 14.19532,-10.33203 1.70472,-2.73233 2.22768,-4.22468 2.41992,-6.90039 0.2299,-3.19984 -0.13089,-6.06198 -1.63086,-9.7461 -1.49997,-3.68411 -4.10294,-8.23299 -8.39648,-15.15234 -0.74789,-1.20527 -3.71419,-6.15439 -6.54883,-10.92773 -2.83699,-4.77732 -6.99148,-11.75235 -9.23438,-15.50391 -2.24082,-3.7481 -5.89854,-9.88575 -8.12695,-13.63672 -1.12075,-1.88649 -2.28465,-3.77745 -3.26172,-5.3125 -0.97707,-1.53505 -1.71515,-2.65647 -2.18555,-3.23047 -2.29791,-2.80398 -5.44923,-4.48001 -9.66797,-5.24023 -3.60475,-0.64959 -4.38024,-0.61149 -10.20898,0.74218 -5.8544,1.35964 -6.5355,1.65583 -9.56445,3.88477 -2.40061,1.76656 -3.73366,3.20216 -4.89844,5.31055 -2.06026,3.72929 -2.29964,6.8157 -1.01172,12.36133 0.57721,2.48539 0.80182,4.10873 0.71094,5.27148 -0.0909,1.16275 -0.43363,1.91976 -1.23242,2.98437 -0.76308,1.01702 -1.14768,1.46265 -2.0918,2.04883 -0.94412,0.58618 -2.50045,1.28608 -5.3457,2.49414 -2.65936,1.12912 -8.10549,3.46597 -12.11133,5.19532 -11.88826,5.13221 -18.03566,7.76431 -21.54492,8.96875 -3.50926,1.20443 -4.07114,1.03953 -5.78907,0.60351 -4.51191,-1.14512 -9.33246,-6.6652 -15.05468,-18.33789 -7.0037,-14.2867 -18.00219,-26.19278 -32.47461,-35.18945 -14.44441,-8.97925 -27.41494,-12.48291 -45.20703,-12.22461 z m 0.0332,2.26758 c 17.48327,-0.25382 29.82001,3.0825 43.97656,11.88281 14.14864,8.79539 24.8246,20.36978 31.63477,34.26172 5.81423,11.86037 10.78233,18.07705 16.53515,19.53711 1.80647,0.45848 3.38599,0.61229 7.08203,-0.65625 3.69605,-1.26854 9.81713,-3.89832 21.70704,-9.03125 4.00133,-1.7274 9.45062,-4.06474 12.0996,-5.18946 2.85795,-1.21345 4.46676,-1.91894 5.6543,-2.65625 1.18754,-0.7373 1.90159,-1.53459 2.71094,-2.61328 0.95058,-1.26691 1.55351,-2.58064 1.67773,-4.16992 0.12422,-1.58928 -0.16641,-3.39762 -0.76171,-5.96094 -1.24067,-5.34215 -1.08203,-7.36862 0.7871,-10.75195 1.03475,-1.87301 1.99257,-2.91169 4.25977,-4.58008 3.00442,-2.21088 2.88761,-2.145 8.73047,-3.50195 5.81578,-1.35067 5.72536,-1.362 9.29492,-0.71875 3.85668,0.69498 6.3684,2.06829 8.31641,4.44531 0.2423,0.29567 1.06341,1.49842 2.02539,3.00977 0.96198,1.51134 2.11606,3.38795 3.22461,5.2539 2.23017,3.75393 5.88828,9.89154 8.13086,13.64258 2.2405,3.74756 6.3969,10.72321 9.23242,15.49805 2.83788,4.7788 5.77423,9.6819 6.57031,10.96484 4.2746,6.88883 6.82387,11.37494 8.22266,14.81055 1.39879,3.4356 1.68272,5.77946 1.4707,8.73047 -0.17914,2.49337 -0.44241,3.23531 -2.08203,5.86328 -2.50295,4.01169 -5.86595,6.47045 -13.12695,9.43164 -3.37932,1.37816 -5.68792,2.52789 -7.35157,3.86523 -1.66365,1.33735 -2.63105,2.91794 -3.15039,4.79102 -0.24523,0.88445 -0.31254,1.85451 -0.11914,3.36719 0.1934,1.51267 0.62508,3.65703 1.38867,7.22851 l 1.77344,8.29883 c 0.0535,0.24973 0.18979,0.47409 0.38672,0.63672 l 2.12109,1.75 c 1.04276,0.86043 2.97356,2.86328 4.07618,4.25195 1.00105,1.26078 1.45286,1.87256 1.83789,2.79102 0.38502,0.91846 0.71988,2.24769 1.31054,4.79101 1.22186,5.26118 1.22597,4.93077 0.38477,8.73243 -1.36871,6.1858 -4.94125,11.09465 -10.22852,14.09765 -2.15564,1.22434 -8.24293,2.65274 -11.10547,2.55274 -4.96748,-0.17352 -11.35888,-3.29119 -14.50195,-7.06446 -5.97661,-7.17494 -6.71596,-15.56251 -2.09375,-24.7539 0.97406,-1.93695 1.46871,-3.78198 1.17969,-6.89258 -0.28902,-3.1106 -1.26443,-7.59915 -3.0957,-15.48438 -1.50349,-6.47382 -2.35411,-10.0581 -3.0293,-12.39062 -0.67519,-2.33252 -1.21467,-3.47024 -1.97266,-4.76953 -2.38035,-4.08022 -5.97937,-6.75758 -10.61914,-7.91211 l -3.42383,-0.85352 c -0.16851,-0.0413 -0.34424,-0.0433 -0.51367,-0.006 l -9.24023,2.01172 c -5.13899,1.1191 -26.42312,6.16857 -47.40235,11.24414 l -38.13672,9.22657 c -0.15798,0.0384 -0.30585,0.11035 -0.43359,0.21093 l -2.21094,1.73633 c -3.20638,2.51998 -5.10238,5.35736 -6.08203,9.13086 l -0.79101,3.04883 c -0.0454,0.17379 -0.0488,0.35587 -0.01,0.53125 l 6.20508,27.73242 c 3.06691,13.70703 4.61655,20.65464 5.32226,24.37109 0.35286,1.85823 0.49102,2.9077 0.51172,3.53321 0.0207,0.62551 -0.038,0.80746 -0.17187,1.29101 -0.74409,2.68731 -2.55895,5.4131 -4.92578,7.34375 l -2.04102,1.66602 -20.08398,4.66406 c -9.98094,2.31798 -15.0844,3.49673 -17.91211,4.02539 -2.82771,0.52866 -3.13877,0.43738 -4.24805,0.20313 -2.89536,-0.61141 -6.04799,-2.45029 -7.9082,-4.59571 l -1.53516,-1.76953 -8.75,-37.67578 c -4.40133,-18.95153 -6.60456,-28.44722 -7.64062,-33.45117 -0.51804,-2.50198 -0.74125,-3.88283 -0.80469,-4.70313 -0.0634,-0.82029 -0.002,-1.03606 0.11719,-1.60937 0.52012,-2.49832 2.82016,-6.12696 4.86523,-7.66992 1.30602,-0.98537 2.8849,-1.5751 9.61524,-3.42774 4.68964,-1.2909 7.77925,-2.2864 10.14453,-3.44726 2.36527,-1.16086 3.98537,-2.51715 5.54687,-4.33399 1.42483,-1.65782 2.24975,-3.37868 2.88086,-5.93554 l 0.83008,-3.36328 c 0.0419,-0.16976 0.0439,-0.3469 0.006,-0.51758 l -3.69141,-16.57813 c -2.05195,-9.21438 -3.3053,-14.5076 -4.49023,-17.99805 -1.18493,-3.49044 -2.39398,-5.24583 -4.0957,-6.94726 -3.78175,-3.78109 -9.06109,-4.65886 -13.79102,-3.20898 -4.72993,1.44987 -8.98298,5.19742 -10.94922,10.63671 -0.39475,1.09201 -0.66211,2.02258 -0.49609,3.64063 0.16602,1.61805 0.67064,4.03107 1.66992,8.84961 1.00268,4.83496 1.50151,7.27428 1.63476,8.58789 0.13326,1.31361 0.0308,1.33357 -0.38671,2.25781 -2.12794,4.71096 -8.36261,5.57627 -11.62696,1.62695 l -1.45117,-1.75586 -4.95898,-23.73828 c -2.75986,-13.20995 -5.62362,-26.60912 -6.38868,-29.88086 l -1.36718,-5.84179 c -0.061,-0.26219 -0.21334,-0.49412 -0.42969,-0.6543 l -4.40625,-3.25195 c -2.43444,-1.79721 -6.38044,-4.64396 -8.79297,-6.34375 -1.55199,-1.09349 -2.63589,-1.93006 -3.31055,-2.55078 -0.67466,-0.62072 -0.87745,-1.03613 -0.88086,-1.05079 -0.13716,-0.59061 -0.0639,-0.83465 0.0254,-0.97265 0.0893,-0.13801 0.31603,-0.33432 0.94532,-0.48047 0.6119,-0.14211 1.11603,-0.15555 2.15039,0.0898 1.03436,0.24539 2.54111,0.77528 4.85547,1.6836 7.11558,2.79195 10.73935,4.21491 13.24609,4.78515 2.50674,0.57025 4.00388,0.13225 5.90234,-0.61914 1.2575,-0.49769 3.20553,-1.62564 4.66016,-2.65039 1.24138,-0.87453 4.51005,-2.74196 7.04297,-3.99609 4.38191,-2.16962 5.16146,-2.4025 15.84375,-4.9082 10.85108,-2.5453 11.45191,-2.64712 17.19336,-2.73047 z"
       id="path899"
       inkscape:connector-curvature="0"
       sodipodi:nodetypes="cscccccccscsccccccccscccccsscccccscssccccccsccccccccccccccccccsscccscccccccscsccssccccscccscsccscccccscccssssccccscsccccccscscscsccsccccccscccscssssccccsccccccscsccccsccccccccscsccccsccsscccccccccccsccccccccsscc" /><path
       inkscape:connector-curvature="0"
       id="path942"
       d="m 418.55664,-285.82812 c -1.33213,-0.11904 -2.62335,0.1411 -3.73437,0.74804 -2.22205,1.21389 -3.64809,3.78257 -3.43165,6.89453 0.1981,2.84832 1.87527,5.85501 8.58204,16.3711 4.93137,7.73229 7.77865,12.43669 9.40234,15.91992 1.62369,3.48323 2.05201,5.70161 2.21094,8.81836 0.39587,7.76354 1.62953,13.78016 3.78515,18.02539 2.15563,4.24523 5.4101,6.74534 9.42188,6.93945 2.71101,0.13117 5.90767,-0.65234 8.30469,-2.02539 2.77595,-1.59011 5.24129,-4.70212 6.0039,-7.67969 0.86116,-3.36232 -0.29334,-7.76525 -2.66406,-11.18359 -0.46889,-0.6761 -0.9394,-1.33126 -1.32812,-1.85156 -0.19437,-0.26016 -0.36915,-0.48687 -0.51563,-0.66992 -0.14648,-0.18306 -0.22004,-0.29082 -0.41016,-0.46485 0.0721,0.066 -0.45148,-0.47361 -1.01757,-1.10156 -0.5661,-0.62795 -1.2932,-1.44729 -2.04297,-2.30078 -2.48023,-2.82334 -4.02433,-5.2321 -10.36524,-16.2168 -1.31984,-2.28642 -3.38507,-5.82871 -4.5957,-7.88281 -1.20264,-2.04055 -3.47704,-5.95962 -5.04688,-8.69531 -4.16436,-7.25711 -6.36779,-10.53044 -8.57812,-12.11329 -1.27538,-0.91331 -2.64834,-1.41221 -3.98047,-1.53124 z m -0.19141,2.23828 c 0.9043,0.0813 1.87393,0.43662 2.85157,1.13672 1.51875,1.08759 3.79932,4.19718 7.93164,11.39843 1.57521,2.74507 3.84822,6.66176 5.06054,8.71875 1.20434,2.04342 3.27114,5.58756 4.58594,7.86524 6.34905,10.99879 8.02589,13.62168 10.62305,16.57812 0.75571,0.86025 1.48966,1.68466 2.06445,2.32227 0.57479,0.6376 0.87231,0.98542 1.16992,1.25781 -0.0773,-0.0708 0.0499,0.0565 0.17188,0.20898 0.12199,0.15245 0.28265,0.3629 0.4668,0.60938 0.36828,0.49296 0.82904,1.13225 1.2832,1.78711 2.02012,2.91282 2.92992,6.98608 2.33008,9.32812 -0.54107,2.11254 -2.83571,5.07173 -4.9336,6.27344 -1.934,1.10783 -4.9178,1.83452 -7.06836,1.73047 -3.17332,-0.15354 -5.59184,-1.92602 -7.50976,-5.70312 -1.91793,-3.77711 -3.15647,-9.53355 -3.54297,-17.11329 -0.16742,-3.28324 -0.69713,-5.9685 -2.41797,-9.66015 -1.72084,-3.69166 -4.60458,-8.43223 -9.54687,-16.18164 -6.6897,-10.48931 -8.09167,-13.28472 -8.23243,-15.3086 -0.16471,-2.36826 0.8326,-3.96946 2.25782,-4.74804 0.71261,-0.3893 1.55078,-0.58133 2.45507,-0.5 z"
       style="color:#000000;font-style:normal;font-variant:normal;font-weight:normal;font-stretch:normal;font-size:medium;line-height:normal;font-family:sans-serif;font-variant-ligatures:normal;font-variant-position:normal;font-variant-caps:normal;font-variant-numeric:normal;font-variant-alternates:normal;font-feature-settings:normal;text-indent:0;text-align:start;text-decoration:none;text-decoration-line:none;text-decoration-style:solid;text-decoration-color:#000000;letter-spacing:normal;word-spacing:normal;text-transform:none;writing-mode:lr-tb;direction:ltr;text-orientation:mixed;dominant-baseline:auto;baseline-shift:baseline;text-anchor:start;white-space:normal;shape-padding:0;clip-rule:nonzero;display:inline;overflow:visible;visibility:visible;opacity:1;isolation:auto;mix-blend-mode:normal;color-interpolation:sRGB;color-interpolation-filters:linearRGB;solid-color:#000000;solid-opacity:1;vector-effect:none;fill:#000000;fill-opacity:1;fill-rule:nonzero;stroke:none;stroke-width:2.26771665;stroke-linecap:butt;stroke-linejoin:round;stroke-miterlimit:4;stroke-dasharray:none;stroke-dashoffset:0;stroke-opacity:1;color-rendering:auto;image-rendering:auto;shape-rendering:auto;text-rendering:auto;enable-background:accumulate"
       sodipodi:nodetypes="cccssccssccccccsccccccccccsccccccsccccsscc" /><path
       sodipodi:nodetypes="cccscccccsccccscccccccssscccsccccscccccc"
       style="color:#000000;font-style:normal;font-variant:normal;font-weight:normal;font-stretch:normal;font-size:medium;line-height:normal;font-family:sans-serif;font-variant-ligatures:normal;font-variant-position:normal;font-variant-caps:normal;font-variant-numeric:normal;font-variant-alternates:normal;font-feature-settings:normal;text-indent:0;text-align:start;text-decoration:none;text-decoration-line:none;text-decoration-style:solid;text-decoration-color:#000000;letter-spacing:normal;word-spacing:normal;text-transform:none;writing-mode:lr-tb;direction:ltr;text-orientation:mixed;dominant-baseline:auto;baseline-shift:baseline;text-anchor:start;white-space:normal;shape-padding:0;clip-rule:nonzero;display:inline;overflow:visible;visibility:visible;opacity:1;isolation:auto;mix-blend-mode:normal;color-interpolation:sRGB;color-interpolation-filters:linearRGB;solid-color:#000000;solid-opacity:1;vector-effect:none;fill:#000000;fill-opacity:1;fill-rule:nonzero;stroke:none;stroke-width:2.26771665;stroke-linecap:butt;stroke-linejoin:round;stroke-miterlimit:4;stroke-dasharray:none;stroke-dashoffset:0;stroke-opacity:1;color-rendering:auto;image-rendering:auto;shape-rendering:auto;text-rendering:auto;enable-background:accumulate"
       d="m 261.32812,-187.76172 c -1.3737,0.17227 -3.18554,0.56971 -6.25195,1.28711 -5.47199,1.28017 -7.41252,1.86642 -8.83008,2.93945 -2.59117,1.96139 -4.89585,5.71083 -5.54492,8.96485 -0.25493,1.27805 -0.37941,2.31681 -0.0273,4.55078 0.35206,2.23397 1.14201,5.80365 2.68359,12.74023 1.48677,6.6899 2.30022,10.29032 2.94336,12.57618 0.64315,2.28585 1.16681,3.32959 1.91797,4.55468 1.84307,3.00591 4.49941,5.11752 7.88477,6.27539 1.42039,0.48581 2.44901,0.7902 3.96484,0.68164 1.51583,-0.10856 3.47746,-0.55338 7.30859,-1.41211 3.20572,-0.71854 4.9313,-1.11333 6.20703,-1.57812 1.27573,-0.4648 2.06678,-1.03883 3.0586,-1.85742 2.91735,-2.40783 4.9228,-6.14888 5.20312,-9.78711 0.18887,-2.45127 -0.27965,-4.7997 -3.37304,-17.58594 -1.71533,-7.09015 -2.61018,-10.76355 -3.28711,-12.97851 -0.67693,-2.21497 -1.23877,-3.09605 -2.00196,-4.07813 -2.00159,-2.57567 -5.09567,-4.44633 -8.45703,-5.1582 -1.04961,-0.22229 -2.02473,-0.30703 -3.39844,-0.13477 z m 0.28126,2.25 c 1.18175,-0.14819 1.726,-0.0914 2.64648,0.10352 2.83898,0.60124 5.51195,2.23931 7.13672,4.33008 0.72512,0.93309 0.99059,1.27574 1.625,3.35156 0.63441,2.07582 1.53508,5.75917 3.25,12.84765 3.09063,12.77483 3.47472,14.82418 3.3164,16.87891 -0.22339,2.89937 -1.98427,6.23165 -4.38476,8.21289 -0.9558,0.78886 -1.35887,1.0987 -2.39063,1.47461 -1.03175,0.37591 -2.72876,0.77906 -5.92773,1.49609 -3.8287,0.85818 -5.7824,1.2779 -6.97461,1.36329 -1.19221,0.0854 -1.66427,-0.0862 -3.06836,-0.56641 -2.9446,-1.00713 -5.09503,-2.72044 -6.68555,-5.31445 -0.71023,-1.15835 -1.06047,-1.81634 -1.66992,-3.98243 -0.60944,-2.16608 -1.42605,-5.7664 -2.91211,-12.45312 -1.54126,-6.93513 -2.32803,-10.5209 -2.65625,-12.60352 -0.32821,-2.08261 -0.23623,-2.52062 0.01,-3.7539 0.49529,-2.48308 2.76992,-6.14514 4.6914,-7.59961 0.90942,-0.68839 2.54869,-1.26876 7.97852,-2.53906 3.05321,-0.71432 4.83387,-1.0979 6.01563,-1.2461 z"
       id="path960"
       inkscape:connector-curvature="0" /><path
       sodipodi:nodetypes="cccssccccccccc"
       style="color:#000000;font-style:normal;font-variant:normal;font-weight:normal;font-stretch:normal;font-size:medium;line-height:normal;font-family:sans-serif;font-variant-ligatures:normal;font-variant-position:normal;font-variant-caps:normal;font-variant-numeric:normal;font-variant-alternates:normal;font-feature-settings:normal;text-indent:0;text-align:start;text-decoration:none;text-decoration-line:none;text-decoration-style:solid;text-decoration-color:#000000;letter-spacing:normal;word-spacing:normal;text-transform:none;writing-mode:lr-tb;direction:ltr;text-orientation:mixed;dominant-baseline:auto;baseline-shift:baseline;text-anchor:start;white-space:normal;shape-padding:0;clip-rule:nonzero;display:inline;overflow:visible;visibility:visible;opacity:1;isolation:auto;mix-blend-mode:normal;color-interpolation:sRGB;color-interpolation-filters:linearRGB;solid-color:#000000;solid-opacity:1;vector-effect:none;fill:#000000;fill-opacity:1;fill-rule:nonzero;stroke:none;stroke-width:2.26771665;stroke-linecap:butt;stroke-linejoin:round;stroke-miterlimit:4;stroke-dasharray:none;stroke-dashoffset:0;stroke-opacity:1;color-rendering:auto;image-rendering:auto;shape-rendering:auto;text-rendering:auto;enable-background:accumulate"
       d="m 436.95117,-166.08398 c -5.49732,-0.4883 -10.45233,3.70447 -10.66015,9.61523 -0.10607,3.01698 1.10093,5.67257 3.46875,7.69922 3.72743,3.19035 9.06917,3.33542 12.71093,0.27148 3.00544,-2.52858 4.12967,-6.18523 3.52149,-9.50195 -0.60818,-3.31672 -2.95882,-6.32282 -6.66407,-7.57812 -0.79521,-0.26942 -1.59162,-0.43611 -2.37695,-0.50586 z m -2.02344,2.27343 c 1.1633,-0.15869 2.41014,-0.0486 3.67188,0.37891 2.95116,0.99983 4.69425,3.28838 5.16211,5.83984 0.46785,2.55147 -0.34888,5.33563 -2.75195,7.35742 -2.7875,2.34522 -6.82229,2.2698 -9.77539,-0.25781 -1.94601,-1.66561 -2.76248,-3.48608 -2.67774,-5.89648 0.14221,-4.04458 2.88122,-6.94578 6.37109,-7.42188 z"
       id="path962"
       inkscape:connector-curvature="0" /></g></svg>