<?xml version="1.0" encoding="UTF-8" standalone="no"?>
<svg
   xmlns:dc="http://purl.org/dc/elements/1.1/"
   xmlns:cc="http://creativecommons.org/ns#"
   xmlns:rdf="http://www.w3.org/1999/02/22-rdf-syntax-ns#"
   xmlns:svg="http://www.w3.org/2000/svg"
   xmlns="http://www.w3.org/2000/svg"
   xmlns:sodipodi="http://sodipodi.sourceforge.net/DTD/sodipodi-0.dtd"
   xmlns:inkscape="http://www.inkscape.org/namespaces/inkscape"
   width="5.0668001cm"
   height="5.0668001cm"
   version="1.1"
   id="svg9"
   sodipodi:docname="base.svg"
   inkscape:version="0.92.2 5c3e80d, 2017-08-06">
  <metadata
     id="metadata15">
    <rdf:RDF>
      <cc:Work
         rdf:about="">
        <dc:format>image/svg+xml</dc:format>
        <dc:type
           rdf:resource="http://purl.org/dc/dcmitype/StillImage" />
        <dc:title>green bunny silhouette</dc:title>
      </cc:Work>
    </rdf:RDF>
  </metadata>
  <defs
     id="defs13">
    <inkscape:perspective
       id="perspective6001"
       inkscape:persp3d-origin="372.04724 : 350.78739 : 1"
       inkscape:vp_z="744.09448 : 526.18109 : 1"
       inkscape:vp_y="0 : 1000 : 0"
       inkscape:vp_x="0 : 526.18109 : 1"
       sodipodi:type="inkscape:persp3d" />
  </defs>
  <sodipodi:namedview
     pagecolor="#ffffff"
     bordercolor="#666666"
     borderopacity="1"
     objecttolerance="10"
     gridtolerance="10"
     guidetolerance="10"
     inkscape:pageopacity="0"
     inkscape:pageshadow="2"
     inkscape:window-width="1366"
     inkscape:window-height="718"
     id="namedview11"
     showgrid="false"
     fit-margin-top="1"
     units="cm"
     fit-margin-left="1"
     fit-margin-right="1"
     fit-margin-bottom="1"
     inkscape:zoom="3.0357615"
     inkscape:cx="103.1954"
     inkscape:cy="99.614472"
     inkscape:window-x="1920"
     inkscape:window-y="0"
     inkscape:window-maximized="1"
     inkscape:current-layer="svg9" />
  <title
     id="title2">green bunny silhouette</title>
  <path
     style="color:#000000;font-style:normal;font-variant:normal;font-weight:normal;font-stretch:normal;font-size:medium;line-height:normal;font-family:sans-serif;font-variant-ligatures:normal;font-variant-position:normal;font-variant-caps:normal;font-variant-numeric:normal;font-variant-alternates:normal;font-feature-settings:normal;text-indent:0;text-align:start;text-decoration:none;text-decoration-line:none;text-decoration-style:solid;text-decoration-color:#000000;letter-spacing:normal;word-spacing:normal;text-transform:none;writing-mode:lr-tb;direction:ltr;text-orientation:mixed;dominant-baseline:auto;baseline-shift:baseline;text-anchor:start;white-space:normal;shape-padding:0;clip-rule:nonzero;display:inline;overflow:visible;visibility:visible;opacity:1;isolation:auto;mix-blend-mode:normal;color-interpolation:sRGB;color-interpolation-filters:linearRGB;solid-color:#000000;solid-opacity:1;vector-effect:none;fill:#000004;fill-opacity:1;fill-rule:nonzero;stroke:none;stroke-width:3.02362204;stroke-linecap:butt;stroke-linejoin:round;stroke-miterlimit:4;stroke-dasharray:none;stroke-dashoffset:0;stroke-opacity:1;color-rendering:auto;image-rendering:auto;shape-rendering:auto;text-rendering:auto;enable-background:accumulate"
     d="M 95.75 31.794922 C 63.760091 31.794922 31.794922 63.760091 31.794922 95.75 C 31.794922 127.73991 63.760091 159.70508 95.75 159.70508 C 127.73991 159.70508 159.70508 127.73991 159.70508 95.75 C 159.70508 63.760091 127.73991 31.794922 95.75 31.794922 z M 90.763672 41.054688 L 95.802734 74.548828 C 95.395086 74.803822 95.400331 74.76172 94.322266 74.761719 C 93.30266 74.761719 92.439193 74.803201 91.574219 75.164062 C 91.479023 75.203778 90.752652 75.353516 90.548828 75.353516 C 90.191499 75.353516 89.855861 75.390306 89.517578 75.482422 C 89.26268 75.551832 88.983034 75.672857 88.679688 75.921875 C 88.700288 75.934098 88.700513 75.945312 88.771484 75.945312 C 88.714206 75.945312 88.680742 75.965536 88.626953 75.966797 C 88.544307 76.039916 88.469435 76.06531 88.380859 76.171875 C 88.5054 76.022039 88.521394 76.005825 88.550781 75.976562 C 88.06211 75.996484 87.672365 76.095712 87.255859 76.501953 C 87.275867 76.509224 87.288054 76.537109 87.390625 76.537109 C 87.313547 76.537109 87.264266 76.562004 87.193359 76.564453 C 87.128317 76.631646 87.067076 76.680623 86.998047 76.763672 C 87.122149 76.614363 87.138514 76.597809 87.167969 76.568359 C 86.676801 76.588483 86.28472 76.689443 85.865234 77.101562 C 85.889975 77.10494 85.909205 77.128906 86.027344 77.128906 C 85.93478 77.128906 85.888252 77.156682 85.806641 77.162109 C 85.743326 77.227834 85.684284 77.274743 85.617188 77.355469 C 85.734432 77.214405 85.750197 77.195657 85.779297 77.166016 C 85.206868 77.209424 84.836019 77.363706 84.373047 77.6875 C 84.464147 77.623787 84.432914 77.632301 84.328125 77.652344 C 84.345185 77.500117 84.342187 77.473935 84.369141 77.361328 C 84.486404 76.871437 84.587584 76.451488 84.5625 75.908203 C 84.537415 75.364918 84.347784 74.879863 84.173828 74.515625 C 84.114244 74.390865 84.0515 74.233493 84.015625 74.126953 C 83.97975 74.020413 84.005859 73.808369 84.005859 74.257812 C 84.005859 73.598114 83.836467 73.235151 83.658203 72.8125 C 83.479939 72.389849 83.254015 71.962589 82.994141 71.529297 C 82.474392 70.662713 81.832835 69.786003 81.128906 69.091797 C 79.194704 67.184304 76.901833 66.057131 74.556641 66.021484 L 74.554688 66.021484 C 74.273212 66.017207 74.013366 66.011041 73.767578 66.015625 C 73.030214 66.029378 72.43034 66.136511 71.828125 66.662109 C 71.403786 67.032463 71.127062 67.159663 70.583984 67.201172 C 70.040907 67.24268 69.20226 67.125913 67.978516 66.763672 C 67.176621 66.526301 66.546007 66.371991 65.972656 66.314453 C 65.685981 66.285683 65.414307 66.27298 65.078125 66.339844 C 64.846876 66.385836 64.535269 66.494003 64.248047 66.736328 C 64.206527 66.749654 64.170483 66.763572 64.121094 66.773438 C 63.398699 66.917696 62.704636 67.375979 62.3125 68.148438 C 62.089631 68.322564 61.956062 68.531746 61.890625 68.648438 C 61.766096 68.870502 61.736998 68.994805 61.707031 69.105469 C 61.647097 69.326795 61.627693 69.481831 61.607422 69.660156 C 61.566894 70.016671 61.549611 70.420277 61.550781 70.867188 C 61.552323 71.508984 61.54614 71.957715 61.679688 72.507812 C 61.813232 73.057914 62.216418 73.624386 62.513672 73.894531 C 62.859179 74.208531 63.208919 74.466435 63.568359 74.699219 C 63.452674 74.792573 63.355954 74.871935 63.228516 74.972656 C 61.66107 76.211462 60.187763 77.632639 59.378906 78.917969 C 59.154706 79.274242 58.68259 79.858363 58.724609 79.816406 C 58.222011 80.318246 57.854309 80.902238 57.248047 82.138672 C 56.467501 83.730562 56.019041 84.441608 56.015625 85.652344 C 56.016667 85.23304 55.941996 85.814777 55.894531 85.904297 C 55.564013 86.527668 55.511736 87.019041 55.439453 87.609375 C 55.367169 88.199711 55.335796 88.848601 55.335938 89.511719 C 55.336146 90.837954 55.40451 92.124068 55.796875 93.25 C 55.91706 93.594886 56.048115 93.926066 56.179688 94.216797 C 56.311258 94.507528 56.250407 94.617928 56.730469 95.126953 C 56.698964 95.093548 57.025276 95.484658 57.205078 95.732422 C 57.508519 96.150551 57.9368 96.589425 58.447266 96.871094 C 58.957734 97.15276 59.47454 97.300781 60.164062 97.476562 C 62.013765 97.948121 63.174442 98.09608 64.289062 97.78125 C 64.545842 97.708723 65.530479 97.508712 66.208984 97.410156 C 66.607864 97.352218 67.003421 97.280529 67.34375 97.207031 C 67.684079 97.133534 67.828575 97.148753 68.294922 96.919922 C 68.426651 96.855286 68.910145 96.633119 69.275391 96.472656 C 69.588125 96.335261 70.100082 96.088034 70.568359 95.861328 L 70.544922 97.988281 L 71.988281 99.330078 L 72.384766 99.697266 L 72.341797 100.76367 C 72.285458 102.20626 72.301303 103.28575 72.539062 104.29492 C 72.776826 105.30409 73.284604 106.16516 73.908203 106.87695 C 74.309188 107.33465 74.396469 107.49526 74.375 107.44141 C 74.35353 107.38755 74.382812 107.44235 74.382812 107.98242 C 74.382812 108.41737 74.416309 108.83477 74.482422 109.22656 C 74.548534 109.61836 74.538501 109.92109 74.935547 110.5 C 74.883855 110.42463 75.087347 110.86256 75.091797 110.88086 C 75.192189 111.29372 75.359414 111.60726 75.578125 111.89258 C 75.796836 112.1779 76.050424 112.46567 76.583984 112.63477 C 76.319134 112.55083 76.480172 112.58991 76.585938 112.66992 C 76.691693 112.74993 76.830098 112.87343 76.923828 112.9707 C 77.417807 113.48333 78.107016 114.01807 78.765625 114.46484 C 78.953649 114.59239 79.03842 114.66211 79.123047 114.73047 C 79.123795 114.77018 79.123047 114.74725 79.123047 114.80664 C 79.123047 114.98269 79.105555 115.20029 79.083984 115.34961 C 79.062414 115.49893 78.936876 115.67516 79.138672 115.31055 C 78.817776 115.89035 78.740277 116.32557 78.576172 117.03125 C 78.523052 117.25967 78.461454 117.634 78.40625 117.90234 L 56.232422 133.90039 C 46.693093 124.02103 40.818359 110.57989 40.818359 95.75 C 40.818359 67.076359 62.749655 43.572987 90.763672 41.054688 z M 107.43555 42.074219 C 132.16861 47.426825 150.68164 69.406123 150.68164 95.75 C 150.68164 103.91154 148.89085 111.64682 145.70312 118.60742 L 127.50391 113.25391 C 127.47599 113.12913 127.45077 113.04366 127.45117 113.23828 C 127.4493 112.51395 127.32997 112.13613 127.01562 111.55859 C 127.18362 111.86719 126.9867 111.45735 126.89258 111.09961 C 126.79846 110.74187 126.6934 110.27739 126.60547 109.82617 L 126.43359 108.94531 L 127.25781 108.15625 C 129.14692 106.34863 130.01758 104.5016 130.01758 102.17383 C 130.01758 101.76748 130.02928 101.75909 130.04492 101.56641 C 130.0468 101.56573 130.04884 101.56318 130.05078 101.5625 C 130.30935 101.46669 130.5744 101.34909 130.83984 101.20703 C 130.98553 101.12907 131.16226 101.04958 131.28711 101.00195 C 131.41196 100.95433 131.63433 100.97461 131.22852 100.97461 C 131.77268 100.97461 132.36913 100.59887 132.64453 100.16406 C 132.84786 99.843052 132.91445 99.536407 132.94531 99.244141 C 132.91414 99.288146 132.87759 99.327409 132.70703 99.46875 C 132.80122 99.390701 132.87016 99.315499 132.94727 99.240234 C 132.95787 99.138183 132.98047 99.03166 132.98047 98.935547 C 132.98047 99.096503 133.01409 99.141311 133 99.189453 C 133.2888 98.893833 133.46078 98.589248 133.5293 98.160156 C 133.70141 97.966295 133.79793 97.764409 133.86328 97.615234 C 133.98283 97.342351 134.03019 97.125617 134.07031 96.908203 C 134.15055 96.473378 134.17468 96.042581 134.17383 95.59375 C 134.17299 95.144917 134.14301 94.692721 134.07227 94.251953 C 134.00515 93.833754 133.97283 93.441459 133.57617 92.880859 C 133.57409 92.917616 133.57227 92.895347 133.57227 93.056641 C 133.57227 92.979841 133.55539 92.903887 133.54883 92.828125 C 133.54083 92.81732 133.54149 92.811721 133.5332 92.800781 C 133.5416 92.811856 133.53921 92.789445 133.54492 92.789062 C 133.51835 92.533208 133.46121 92.279986 133.31445 92.009766 C 133.23815 91.869267 133.08736 91.712027 132.93164 91.564453 C 132.84192 91.236303 132.67981 90.938448 132.45117 90.662109 C 132.44228 90.646735 132.44371 90.688713 132.4375 90.630859 C 132.40857 90.361324 132.38672 89.78784 132.38672 88.921875 C 132.38672 87.918754 132.37617 87.255134 132.29883 86.648438 C 132.22148 86.041739 132.03156 85.471464 131.80664 85.03125 C 131.36696 84.170703 130.80376 83.685974 130.12695 83.076172 C 129.52166 82.530798 128.90152 82.051093 128.24609 81.695312 C 128.24672 81.698735 128.20233 81.659245 128.17383 81.548828 C 128.02648 80.977941 127.81976 80.360398 127.58398 79.845703 C 127.53777 79.74482 127.486 79.607856 127.45703 79.515625 C 127.42806 79.423397 127.45117 79.25195 127.45117 79.636719 C 127.45117 78.637087 127.0188 78.331215 126.73438 78.039062 C 126.44992 77.746911 126.14788 77.523894 125.82031 77.318359 C 125.16517 76.907292 124.51716 76.537109 123.55859 76.537109 C 123.58653 76.537109 123.08128 76.451517 122.99805 76.419922 C 122.49077 76.227346 122.21869 76.228408 121.75 76.175781 C 121.2813 76.123155 120.73851 76.083775 120.20117 76.066406 C 119.31209 76.037668 118.72884 75.931618 118.42188 75.814453 C 118.11489 75.697288 118.07939 75.646792 117.97266 75.472656 C 117.58137 74.834264 117.34882 74.78407 117.02734 74.564453 C 116.70586 74.344838 116.34277 74.136305 115.95898 73.955078 C 114.93743 73.472705 114.04524 73.301625 112.96484 73.378906 C 111.5935 73.477001 110.2542 73.498911 109.21875 73.457031 C 108.70103 73.436097 108.25657 73.398574 107.94531 73.353516 C 107.63405 73.308457 107.40275 73.187736 107.61328 73.306641 C 107.36448 73.166124 107.10209 73.070421 106.83398 72.996094 L 107.43555 42.074219 z M 73.65625 69.107422 C 73.382757 69.346119 73.533991 69.149147 74.515625 69.164062 C 76.020964 69.186944 77.65658 69.923547 79.167969 71.414062 C 79.59507 71.835264 80.156013 72.57357 80.554688 73.238281 C 80.754024 73.570636 80.916264 73.88892 81.011719 74.115234 C 81.107173 74.341551 81.097656 74.532327 81.097656 74.257812 C 81.097656 74.86596 81.197703 74.953059 81.28125 75.201172 C 81.364797 75.449285 81.466282 75.702402 81.587891 75.957031 C 81.700727 76.193293 81.658754 76.118687 81.65625 76.064453 C 81.653746 76.010222 81.652645 76.156821 81.552734 76.574219 C 81.37504 77.316579 81.233327 77.904113 81.335938 78.794922 C 81.355249 78.962595 81.368196 79.161827 81.478516 79.480469 C 81.588835 79.799108 81.889873 80.243672 82.228516 80.462891 C 82.9058 80.901328 83.240671 80.79289 83.699219 80.822266 C 84.481346 80.872364 85.207046 80.847955 85.953125 80.326172 C 85.899337 80.363791 86.322125 80.271484 86.027344 80.271484 C 86.658017 80.271484 87.059283 80.17293 87.525391 79.716797 C 87.505247 79.710066 87.494403 79.679688 87.390625 79.679688 C 87.468229 79.679688 87.516538 79.654831 87.587891 79.652344 C 87.652273 79.585608 87.713012 79.537177 87.78125 79.455078 C 87.657148 79.604385 87.640782 79.618983 87.611328 79.648438 C 88.09975 79.628471 88.489882 79.52916 88.90625 79.123047 C 88.886246 79.115776 88.874045 79.089844 88.771484 79.089844 C 88.848406 79.089844 88.896023 79.062985 88.966797 79.060547 C 89.031973 78.993242 89.092932 78.94651 89.162109 78.863281 C 89.037718 79.012937 89.023551 79.027314 88.994141 79.056641 C 89.485886 79.036539 89.876873 78.936428 90.296875 78.523438 C 90.357194 78.512113 90.432014 78.498047 90.548828 78.498047 C 91.269386 78.498047 91.938405 78.381331 92.623047 78.095703 C 92.600295 78.105202 93.542113 77.90625 94.322266 77.90625 C 95.703763 77.90625 96.591544 77.67742 97.509766 77.113281 C 98.273291 76.644187 97.999661 76.729301 99.423828 76.705078 C 99.833403 76.698123 100.28492 76.716581 100.6543 76.751953 C 101.02368 76.787332 101.3697 76.873787 101.30273 76.849609 C 101.67485 76.983968 102.24685 77.133739 102.80273 77.029297 C 103.35862 76.924855 103.73805 76.714744 104.3418 76.417969 C 105.59785 75.800549 105.81185 75.835511 106.26562 76.091797 C 106.77913 76.381794 107.11045 76.403595 107.56055 76.46875 C 108.01064 76.533908 108.52697 76.574102 109.10938 76.597656 C 110.2741 76.644768 111.6926 76.620452 113.1582 76.515625 C 114.05489 76.451485 113.92957 76.427321 114.79492 76.835938 C 115.03307 76.948389 115.29304 77.099954 115.47266 77.222656 C 115.65227 77.345359 115.7998 77.621673 115.54688 77.208984 C 115.97938 77.914639 116.6778 78.481406 117.45312 78.777344 C 118.22849 79.073279 119.07518 79.175366 120.11523 79.208984 C 120.57642 79.223886 121.06297 79.259366 121.44922 79.302734 C 121.83547 79.346102 122.24379 79.463972 122.03516 79.384766 C 122.5492 79.579914 122.98095 79.679686 123.55859 79.679688 C 123.43268 79.679688 124.00432 79.814343 124.35938 80.037109 C 124.47549 80.109977 124.53115 80.162456 124.60156 80.220703 C 124.63144 80.331968 124.6687 80.417724 124.70312 80.527344 C 124.77737 80.763551 124.86623 80.999386 124.97656 81.240234 C 125.05388 81.409008 125.29159 82.076996 125.37305 82.392578 C 125.57801 83.186691 125.92521 83.989778 126.83594 84.427734 C 127.04621 84.528852 127.72048 85.000818 128.26367 85.490234 C 128.80686 85.979651 129.31979 86.668257 129.25977 86.550781 C 129.36935 86.765248 129.37935 86.775182 129.41797 87.078125 C 129.45659 87.381068 129.47852 87.95595 129.47852 88.921875 C 129.47852 89.831025 129.49161 90.459196 129.54883 90.992188 C 129.60604 91.525177 129.6036 92.150888 130.32422 92.748047 C 130.22356 92.66463 130.24293 92.686718 130.2207 92.673828 C 130.29484 92.952882 130.39297 93.200483 130.5625 93.460938 C 130.59601 93.512417 130.66463 93.587987 130.70508 93.652344 C 130.78759 94.155876 130.98881 94.404957 131.28125 94.791016 C 131.02361 94.450895 131.17383 94.582264 131.20703 94.789062 C 131.24023 94.995905 131.26507 95.309744 131.26562 95.601562 C 131.26606 95.798451 131.24867 95.927273 131.23438 96.068359 C 130.93039 96.356229 130.76663 96.725977 130.70703 97.167969 C 130.74087 97.117395 130.79822 97.090032 130.9375 96.974609 C 130.84054 97.054959 130.78008 97.129549 130.70312 97.207031 C 130.68764 97.335607 130.66406 97.459018 130.66406 97.599609 C 130.66406 97.364404 130.66262 97.287527 130.68359 97.226562 C 130.40555 97.511637 130.24483 97.794867 130.16602 98.107422 C 129.96304 98.190937 129.75683 98.279313 129.54883 98.390625 C 129.40898 98.465464 129.2327 98.542699 129.10547 98.589844 C 128.97823 98.636989 128.77875 98.621094 129.13086 98.621094 C 128.81758 98.621094 128.34211 98.717121 127.95898 99.039062 C 127.57586 99.361008 127.38526 99.790984 127.28906 100.12695 C 127.09666 100.79891 127.10936 101.34378 127.10938 102.17383 C 127.10938 103.94265 126.96849 104.23694 125.33008 105.80469 L 123.23828 107.80469 L 123.75781 110.47461 C 123.86008 110.99943 123.9795 111.51731 124.0957 111.95898 C 124.21191 112.40066 124.21094 112.60687 124.50781 113.15234 C 124.45133 113.04857 124.54356 113.4701 124.54297 113.24805 C 124.54507 114.09515 124.7309 114.46956 125.02734 115.03711 C 125.064 115.10729 125.1119 115.22208 125.13672 115.29492 C 125.16154 115.36776 125.13477 115.50019 125.13477 115.12891 C 125.13477 115.86086 125.25383 115.88375 125.35156 116.16406 C 125.44929 116.44438 125.57136 116.74414 125.71094 117.04492 C 126.42332 118.58 126.34744 118.33599 126.5293 119.32812 C 126.53013 119.33241 126.53048 119.32984 126.53125 119.33398 C 126.48058 119.35197 126.48765 119.35664 126.41211 119.37695 C 126.13432 119.45164 125.87904 119.5426 125.63672 119.65234 C 125.63589 119.65279 125.63358 119.65189 125.63281 119.65234 C 125.50683 119.44155 125.44717 119.34677 125.33008 119.09375 C 125.07103 118.53398 124.86526 118.08028 124.62891 117.68164 C 124.58639 117.60993 124.45488 117.33602 124.46875 117.37109 C 124.41513 117.23552 124.32706 117.01252 124.27344 116.87695 C 124.14179 116.54408 124.02544 116.33734 123.86133 116.07422 C 123.83087 116.02539 123.68365 115.73627 123.67969 115.72656 C 123.35456 114.93007 122.86443 114.26498 122.3457 113.61328 C 122.08634 113.28743 121.82887 112.99017 121.5625 112.73242 C 121.42931 112.60355 121.29757 112.48433 121.12109 112.36133 C 120.94462 112.23832 120.77816 112.0293 120.15234 112.0293 C 119.47596 112.0293 118.96632 112.46231 118.70703 112.81641 C 118.44775 113.1705 118.32439 113.50944 118.23633 113.85156 C 118.0602 114.53581 118.02931 115.25346 118.26562 116.04102 C 118.32438 116.23668 118.41992 116.92236 118.41992 116.99414 C 118.41992 117.76857 118.57346 118.43348 118.78711 119.13672 C 118.8839 119.4553 118.98441 120.14587 119 120.72266 C 119.00687 120.97682 118.99551 121.19331 118.98047 121.36523 C 118.8892 121.4357 118.76171 121.54172 118.57031 121.61133 C 118.13111 121.77105 117.52749 121.88599 117.03906 121.88477 C 116.89695 121.88432 116.87895 121.87952 116.76758 121.87695 C 116.77291 121.71837 116.76732 121.6589 116.7793 121.43945 C 116.83534 120.41202 116.87845 118.45103 116.88086 116.95508 L 116.88867 112.77734 L 114.00391 112.66016 C 112.49664 112.59987 111.67098 112.80621 109.93555 113.75586 C 109.19131 114.16312 107.91695 114.4375 105.75 114.4375 C 105.1193 114.4375 104.50146 114.41542 104.04297 114.38086 C 103.81372 114.36357 103.62223 114.34141 103.50781 114.32422 C 103.39339 114.30702 103.23532 114.17935 103.63672 114.40234 C 102.09817 113.54761 100.73141 113.21192 98.863281 113.2168 C 97.787574 113.21961 96.766252 113.2533 95.927734 113.47656 C 95.607755 113.56176 94.770011 113.72784 94.275391 113.79492 C 93.945875 113.83961 93.63365 113.89639 93.357422 113.96484 C 93.219308 113.99907 93.093041 114.03557 92.953125 114.08594 C 92.813208 114.13631 92.725998 114.05404 92.287109 114.49023 C 91.877171 114.89764 91.917898 115.05049 91.880859 115.16602 C 91.843821 115.28154 91.829668 115.35333 91.816406 115.41992 C 91.789883 115.5531 91.776447 115.66162 91.761719 115.78516 C 91.732261 116.03222 91.705779 116.32381 91.681641 116.67383 C 91.633363 117.37386 91.59216 118.2885 91.564453 119.27734 C 91.530738 120.48061 91.485577 121.36045 91.435547 121.90625 C 91.417289 122.10544 91.401552 122.19784 91.386719 122.29297 C 91.079365 122.69844 91.000079 123.05368 90.980469 123.50977 C 90.914178 123.61881 90.791758 123.78453 90.666016 123.91797 C 90.45192 124.14516 90.365943 124.22063 90.345703 124.24219 C 90.407692 124.21579 90.277399 124.25378 89.734375 124.25391 C 89.6157 124.25394 89.563255 124.24205 89.462891 124.23633 C 89.441132 124.09546 89.419138 124.0028 89.400391 123.81641 C 89.327672 123.09342 89.290012 122.07634 89.310547 120.92773 C 89.333021 119.67055 89.257185 118.46484 89.105469 117.47656 C 89.029611 116.98242 88.940316 116.54736 88.796875 116.12891 C 88.725155 115.91968 88.64365 115.71294 88.492188 115.47266 C 88.340721 115.23237 88.105916 114.8892 87.564453 114.70898 C 87.112245 114.55848 86.633987 114.67795 86.351562 114.8418 C 86.069142 115.00564 85.91315 115.19029 85.792969 115.35742 C 85.552605 115.69169 85.447741 115.9979 85.375 116.33789 C 85.365972 116.38009 85.176462 116.89786 85.132812 116.97852 C 84.88619 117.43424 84.709463 117.70632 84.664062 118.41016 C 84.66895 118.40946 84.670592 118.41958 84.677734 118.41016 C 84.671126 118.41888 84.668585 118.42689 84.662109 118.43555 C 84.658108 118.50389 84.64782 118.55345 84.646484 118.63086 C 84.649233 118.47172 84.645218 118.49326 84.642578 118.46484 C 84.216578 119.04297 84.08329 119.47451 84.064453 120.19336 C 84.076737 120.18359 84.062631 120.21634 84.085938 120.18555 C 84.075129 120.19982 84.071137 120.21076 84.060547 120.22461 C 84.060151 120.24365 84.052976 120.25201 84.052734 120.27148 C 84.053005 120.25026 84.048325 120.25501 84.046875 120.24219 C 83.765532 120.60887 83.56409 120.86859 83.498047 121.44922 C 83.171898 121.75963 82.978976 122.08742 82.912109 122.60547 C 82.947712 122.54287 83.017492 122.5186 83.160156 122.40039 C 83.034415 122.5046 82.995499 122.59694 82.904297 122.69336 C 82.892362 122.81334 82.875 122.92022 82.875 123.06445 C 82.875 122.83455 82.884367 122.76674 82.902344 122.69727 C 82.715784 122.89523 82.546346 123.11835 82.460938 123.33594 C 81.94865 123.41408 81.341701 123.46163 80.871094 123.44922 C 80.852405 123.44877 80.846389 123.44597 80.828125 123.44531 C 80.807813 123.24009 80.784002 123.06039 80.775391 122.79883 C 80.748048 121.96828 80.800857 120.94486 80.912109 120.29492 C 81.092033 119.2438 81.258497 118.39861 81.398438 117.79688 C 81.538376 117.19512 81.728771 116.75397 81.634766 116.92383 C 81.940786 116.3709 81.90991 116.16018 81.957031 115.83398 C 82.004153 115.50779 82.03125 115.16376 82.03125 114.80664 C 82.03125 114.31908 82.055897 113.65859 81.646484 112.99805 C 81.237071 112.3375 80.825359 112.15063 80.3125 111.80273 C 79.830686 111.47589 79.074431 110.84322 78.939453 110.70312 C 78.718705 110.47406 78.488014 110.27281 78.253906 110.0957 C 78.114365 109.99014 77.98119 109.89486 77.816406 109.80273 C 77.695478 109.38938 77.552236 109.03825 77.271484 108.62891 C 77.516894 108.98673 77.373104 108.83606 77.34375 108.66211 C 77.314396 108.48815 77.291016 108.22501 77.291016 107.98242 C 77.291016 107.39503 77.298083 106.82742 77.046875 106.19727 C 76.795666 105.56711 76.445236 105.19853 76.021484 104.71484 C 75.603358 104.23758 75.471316 104.00295 75.357422 103.51953 C 75.243527 103.03611 75.196094 102.22675 75.248047 100.89648 L 75.349609 98.308594 L 73.884766 96.947266 L 73.470703 96.560547 L 73.480469 95.609375 C 73.486164 95.088447 73.488643 94.669579 73.439453 94.232422 C 73.390264 93.795265 73.322198 93.181051 72.716797 92.648438 C 72.111396 92.11582 71.36118 92.192143 70.953125 92.306641 C 70.54507 92.421138 70.228353 92.582117 69.839844 92.775391 C 69.296059 93.045908 68.50937 93.417661 68.179688 93.5625 C 67.784649 93.73605 67.338016 93.93778 67.091797 94.058594 C 67.369167 93.922493 67.041579 94.067088 66.773438 94.125 C 66.505291 94.182909 66.155659 94.246212 65.820312 94.294922 C 65.030367 94.409662 64.130505 94.577043 63.552734 94.740234 C 63.107767 94.865919 62.551568 94.856343 60.832031 94.417969 C 60.211481 94.259768 59.888247 94.13777 59.769531 94.072266 C 59.650817 94.006761 59.661409 94.021505 59.494141 93.791016 C 59.252526 93.458074 59.036756 93.168233 58.767578 92.882812 C 59.128803 93.26583 58.876156 93.019755 58.792969 92.835938 C 58.709784 92.652119 58.60439 92.391693 58.517578 92.142578 C 58.421909 91.868045 58.24437 90.608257 58.244141 89.509766 C 58.244024 88.96052 58.274773 88.425308 58.324219 88.021484 C 58.373665 87.617658 58.504708 87.303205 58.417969 87.466797 C 58.715468 86.905697 58.923271 86.563823 58.925781 85.662109 C 58.924948 85.986957 59.080329 85.114552 59.818359 83.609375 C 60.401721 82.419641 60.383413 82.440328 60.699219 82.125 C 61.139171 81.685709 61.451063 81.216445 61.785156 80.685547 C 62.126404 80.143279 63.592339 78.579069 64.945312 77.509766 C 65.224981 77.288735 65.490512 77.073336 65.699219 76.900391 C 65.803572 76.813918 65.891821 76.738854 65.96875 76.671875 C 65.987121 76.65587 66.02767 76.610354 66.039062 76.603516 C 66.060486 76.593319 66.083596 76.58279 66.101562 76.576172 C 66.601908 76.391573 67.042122 75.937056 67.242188 75.457031 C 67.442251 74.977006 67.455674 74.504696 67.375 74.082031 C 67.213652 73.236704 66.567421 72.384194 65.574219 72.244141 C 65.569321 72.243465 64.996038 71.989419 64.486328 71.5625 C 64.480752 71.493509 64.460136 71.339916 64.458984 70.857422 C 64.458318 70.608656 64.472041 70.432845 64.484375 70.261719 C 64.587469 70.126411 64.663247 69.982011 64.740234 69.837891 C 64.955504 69.789949 65.160107 69.734672 65.359375 69.652344 C 65.473541 69.605174 65.585439 69.55341 65.722656 69.46875 C 65.729066 69.464788 65.739521 69.456974 65.746094 69.453125 C 66.009641 69.482753 66.513098 69.588356 67.210938 69.794922 C 68.587923 70.202525 69.715136 70.418167 70.791016 70.335938 C 71.866895 70.253704 72.864248 69.798664 73.65625 69.107422 z M 84.642578 118.46484 C 84.650046 118.45471 84.654457 118.44577 84.662109 118.43555 C 84.662629 118.42666 84.663501 118.4189 84.664062 118.41016 C 84.635995 118.41415 84.637472 118.40988 84.642578 118.46484 z M 130.2207 92.673828 C 130.21637 92.657534 130.20923 92.643484 130.20508 92.626953 C 130.21197 92.654371 130.20084 92.656986 130.18555 92.650391 C 130.1873 92.650122 130.21333 92.669554 130.2207 92.673828 z M 124.65039 80.255859 C 124.66901 80.272134 124.72126 80.30695 124.73047 80.316406 C 124.75212 80.338646 124.70428 80.345472 124.65039 80.255859 z M 131.92383 91.128906 C 132.43011 91.128906 132.6428 91.263541 132.76758 91.404297 C 132.54253 91.246499 132.26506 91.128906 131.92383 91.128906 z M 113.11328 115.76562 C 113.2961 115.77009 113.53515 115.78828 113.89648 115.80273 L 113.97461 115.80469 L 113.97266 116.95117 C 113.97034 118.38332 113.92481 120.37644 113.87695 121.25391 C 113.84865 121.77284 113.82093 122.18926 113.8457 122.63477 C 113.87048 123.08027 113.95226 123.67337 114.38086 124.20312 C 114.80945 124.73292 115.39307 124.90664 115.80469 124.96875 C 116.21631 125.03086 116.5809 125.02815 117.03125 125.0293 C 117.89574 125.03155 118.7422 124.86471 119.49805 124.58984 C 120.25389 124.31497 120.96211 124.12127 121.52539 123.07031 C 121.7983 122.56115 121.82451 122.21121 121.86719 121.82617 C 121.90987 121.44113 121.91936 121.04353 121.9082 120.63086 C 121.88589 119.80552 121.79231 118.95122 121.55078 118.15625 C 121.53085 118.09064 121.52914 118.03348 121.50977 117.94531 C 121.55453 118.03281 121.61412 118.14996 121.59961 118.11328 C 121.65322 118.24884 121.74132 118.46993 121.79492 118.60547 C 121.91602 118.91166 122.02931 119.12528 122.17969 119.37891 C 122.13623 119.30561 122.49381 119.99282 122.72852 120.5 C 123.02045 121.13084 123.21795 121.60903 123.7207 122.19531 C 124.13599 122.67959 124.62882 122.94363 125.18945 123.0293 C 125.62645 123.09607 126.22519 123.00864 126.71289 122.58789 L 139.375 129.13086 C 129.33874 142.23165 113.54216 150.68164 95.75 150.68164 C 86.190629 150.68164 77.20686 148.24045 69.380859 143.95312 L 82.496094 126.49609 C 82.692061 126.47275 82.889294 126.45974 83.082031 126.42578 C 83.453928 126.36026 83.800761 126.30843 84.244141 126.01367 C 84.614858 125.76722 84.898862 125.25 85.035156 124.81055 C 85.003747 124.83279 85.012725 124.82572 84.929688 124.89453 C 84.974945 124.85703 85.00359 124.82158 85.044922 124.78516 C 85.067718 124.7081 85.126863 124.61947 85.136719 124.55078 C 85.119583 124.67021 85.134897 124.68048 85.138672 124.69727 C 85.481442 124.37462 85.679034 124.04701 85.746094 123.53711 C 85.710957 123.59786 85.642284 123.61088 85.509766 123.7207 C 85.600478 123.64554 85.671512 123.57549 85.748047 123.50391 C 86.099352 123.17534 86.30017 122.82401 86.349609 122.19922 C 86.34401 122.19109 86.345047 122.16375 86.335938 122.17578 C 86.344774 122.16412 86.34491 122.15605 86.353516 122.14453 C 86.358905 122.0591 86.375 121.99358 86.375 121.89648 C 86.375 122.08511 86.37452 122.06457 86.375 122.10547 C 86.403864 122.06604 86.413262 122.03224 86.439453 121.99414 C 86.450841 122.75183 86.447289 123.55451 86.507812 124.15625 C 86.553885 124.61429 86.611721 125.01942 86.699219 125.39648 C 86.786682 125.7734 86.831447 126.1101 87.226562 126.60547 L 87.660156 127.15039 L 87.984375 127.15039 C 87.994486 127.15404 88.00771 127.16232 88.017578 127.16602 C 88.217157 127.2408 88.389295 127.27921 88.568359 127.31055 C 88.926488 127.37321 89.308744 127.39659 89.734375 127.39648 C 90.32583 127.39632 90.795009 127.42404 91.386719 127.18555 C 91.978428 126.94705 92.336228 126.5495 92.703125 126.16016 C 92.989374 125.85639 93.231929 125.53937 93.433594 125.20117 C 93.605906 124.9122 93.780294 124.63752 93.835938 124.05664 C 93.804134 124.09546 93.795369 124.11318 93.658203 124.25 C 93.740232 124.16819 93.782106 124.10539 93.839844 124.03516 C 93.847853 123.94283 93.878906 123.90976 93.878906 123.79688 C 93.878906 123.90717 93.90908 123.92169 93.914062 123.94727 C 94.198167 123.56506 94.163211 123.34007 94.208984 123.11719 C 94.265914 122.83999 94.298617 122.56002 94.330078 122.2168 C 94.393001 121.53035 94.436031 120.61048 94.470703 119.37305 C 94.497141 118.4295 94.538653 117.55618 94.582031 116.92383 C 94.602687 116.92083 94.616031 116.9149 94.636719 116.91211 C 95.275042 116.82554 96.074133 116.67545 96.623047 116.5293 C 96.653423 116.52122 97.965099 116.3617 98.871094 116.35938 C 100.49575 116.3551 101.03213 116.48922 102.30664 117.19727 C 102.81136 117.47755 102.88872 117.40463 103.10742 117.4375 C 103.32623 117.47038 103.56637 117.49503 103.83984 117.51562 C 104.3868 117.55685 105.05579 117.58008 105.75 117.58008 C 108.12501 117.58008 109.84561 117.32905 111.25 116.56055 C 112.5272 115.86164 112.56484 115.75223 113.11328 115.76562 z M 84.037109 120.18359 C 84.020409 120.17785 84.030363 120.18964 84.041016 120.20312 C 84.039203 120.20033 84.039147 120.18429 84.037109 120.18359 z M 86.966797 120.3418 C 86.968609 120.35965 86.970806 120.37698 86.974609 120.38281 C 86.970941 120.37818 86.964205 120.38222 86.951172 120.39258 C 86.951505 120.38013 86.954822 120.37397 86.955078 120.36133 C 86.959957 120.35489 86.961972 120.34819 86.966797 120.3418 z M 83.740234 121.22656 C 83.650426 121.30099 83.581186 121.37209 83.505859 121.44336 C 83.540492 121.36459 83.604545 121.33899 83.740234 121.22656 z "
     id="path4514" />
  <g
     transform="matrix(0.20830675,0,0,0.22510077,80.953765,-96.796064)"
     id="layer1"
     inkscape:label="Layer 1"
     style="stroke-width:13.96327663;stroke-miterlimit:4;stroke-dasharray:none" />
</svg>
