<?xml version="1.0" encoding="UTF-8" standalone="no"?>
<svg
   xmlns:dc="http://purl.org/dc/elements/1.1/"
   xmlns:cc="http://creativecommons.org/ns#"
   xmlns:rdf="http://www.w3.org/1999/02/22-rdf-syntax-ns#"
   xmlns:svg="http://www.w3.org/2000/svg"
   xmlns="http://www.w3.org/2000/svg"
   xmlns:sodipodi="http://sodipodi.sourceforge.net/DTD/sodipodi-0.dtd"
   xmlns:inkscape="http://www.inkscape.org/namespaces/inkscape"
   width="5.0668001cm"
   height="5.0668001cm"
   version="1.1"
   id="svg9"
   sodipodi:docname="shape.svg"
   inkscape:version="0.92.2 5c3e80d, 2017-08-06">
  <metadata
     id="metadata15">
    <rdf:RDF>
      <cc:Work
         rdf:about="">
        <dc:format>image/svg+xml</dc:format>
        <dc:type
           rdf:resource="http://purl.org/dc/dcmitype/StillImage" />
        <dc:title>green bunny silhouette</dc:title>
      </cc:Work>
    </rdf:RDF>
  </metadata>
  <defs
     id="defs13">
    <inkscape:perspective
       id="perspective6001"
       inkscape:persp3d-origin="372.04724 : 350.78739 : 1"
       inkscape:vp_z="744.09448 : 526.18109 : 1"
       inkscape:vp_y="0 : 1000 : 0"
       inkscape:vp_x="0 : 526.18109 : 1"
       sodipodi:type="inkscape:persp3d" />
  </defs>
  <sodipodi:namedview
     pagecolor="#ffffff"
     bordercolor="#666666"
     borderopacity="1"
     objecttolerance="10"
     gridtolerance="10"
     guidetolerance="10"
     inkscape:pageopacity="0"
     inkscape:pageshadow="2"
     inkscape:window-width="1366"
     inkscape:window-height="718"
     id="namedview11"
     showgrid="false"
     fit-margin-top="1"
     units="cm"
     fit-margin-left="1"
     fit-margin-right="1"
     fit-margin-bottom="1"
     inkscape:zoom="256"
     inkscape:cx="93.917943"
     inkscape:cy="75.431843"
     inkscape:window-x="1920"
     inkscape:window-y="0"
     inkscape:window-maximized="1"
     inkscape:current-layer="svg9" />
  <title
     id="title2">green bunny silhouette</title>
  <path
     style="color:#000000;font-style:normal;font-variant:normal;font-weight:normal;font-stretch:normal;font-size:medium;line-height:normal;font-family:sans-serif;font-variant-ligatures:normal;font-variant-position:normal;font-variant-caps:normal;font-variant-numeric:normal;font-variant-alternates:normal;font-feature-settings:normal;text-indent:0;text-align:start;text-decoration:none;text-decoration-line:none;text-decoration-style:solid;text-decoration-color:#000000;letter-spacing:normal;word-spacing:normal;text-transform:none;writing-mode:lr-tb;direction:ltr;text-orientation:mixed;dominant-baseline:auto;baseline-shift:baseline;text-anchor:start;white-space:normal;shape-padding:0;clip-rule:nonzero;display:inline;overflow:visible;visibility:visible;opacity:1;isolation:auto;mix-blend-mode:normal;color-interpolation:sRGB;color-interpolation-filters:linearRGB;solid-color:#000000;solid-opacity:1;vector-effect:none;fill:#000004;fill-opacity:1;fill-rule:nonzero;stroke:none;stroke-width:3.02362204;stroke-linecap:butt;stroke-linejoin:round;stroke-miterlimit:4;stroke-dasharray:none;stroke-dashoffset:0;stroke-opacity:1;color-rendering:auto;image-rendering:auto;shape-rendering:auto;text-rendering:auto;enable-background:accumulate"
     d="m 95.75,37.794922 c -31.989909,0 -57.955078,25.965169 -57.955078,57.955078 0,31.98991 25.965169,57.95508 57.955078,57.95508 31.98991,0 57.95508,-25.96517 57.95508,-57.95508 0,-31.989909 -25.96517,-57.955078 -57.95508,-57.955078 z m 0,3.023437 c 30.35582,0 54.93164,24.575819 54.93164,54.931641 0,30.35582 -24.57582,54.93164 -54.93164,54.93164 -30.355822,0 -54.931641,-24.57582 -54.931641,-54.93164 0,-30.355822 24.575819,-54.931641 54.931641,-54.931641 z"
     id="path4514"
     inkscape:connector-curvature="0" />
  <g
     transform="matrix(0.20830675,0,0,0.22510077,80.953765,-96.796064)"
     id="layer1"
     inkscape:label="Layer 1"
     style="stroke-width:13.96327663;stroke-miterlimit:4;stroke-dasharray:none">
    <path
       style="color:#000000;font-style:normal;font-variant:normal;font-weight:normal;font-stretch:normal;font-size:medium;line-height:normal;font-family:sans-serif;font-variant-ligatures:normal;font-variant-position:normal;font-variant-caps:normal;font-variant-numeric:normal;font-variant-alternates:normal;font-feature-settings:normal;text-indent:0;text-align:start;text-decoration:none;text-decoration-line:none;text-decoration-style:solid;text-decoration-color:#000000;letter-spacing:normal;word-spacing:normal;text-transform:none;writing-mode:lr-tb;direction:ltr;text-orientation:mixed;dominant-baseline:auto;baseline-shift:baseline;text-anchor:start;white-space:normal;shape-padding:0;clip-rule:nonzero;display:inline;overflow:visible;visibility:visible;opacity:1;isolation:auto;mix-blend-mode:normal;color-interpolation:sRGB;color-interpolation-filters:linearRGB;solid-color:#000000;solid-opacity:1;vector-effect:none;fill:#000000;fill-opacity:1;fill-rule:nonzero;stroke:none;stroke-width:13.96327686;stroke-linecap:butt;stroke-linejoin:miter;stroke-miterlimit:4;stroke-dasharray:none;stroke-dashoffset:0;stroke-opacity:1;color-rendering:auto;image-rendering:auto;shape-rendering:auto;text-rendering:auto;enable-background:accumulate"
       d="m -30.714844,723.30859 c -5.404953,-0.076 -9.241035,-0.26365 -13.095703,2.84961 -2.037088,1.64528 -3.359694,2.20623 -5.966797,2.39063 -2.607103,0.1844 -6.63309,-0.33607 -12.507812,-1.94531 -3.849584,-1.05451 -6.88233,-1.73658 -9.634766,-1.99219 -1.376218,-0.12781 -2.679088,-0.18571 -4.292969,0.11133 -1.110136,0.20432 -2.601624,0.6852 -3.980468,1.76172 -0.199323,0.0592 -0.376181,0.12024 -0.613282,0.16406 -3.467939,0.64087 -6.803055,2.67972 -8.685547,6.11133 -1.069908,0.77356 -1.711251,1.6984 -2.02539,2.21679 -0.597817,0.98652 -0.735045,1.53768 -0.878906,2.0293 -0.287723,0.98323 -0.381201,1.68046 -0.478516,2.47266 -0.19456,1.5838 -0.279056,3.37009 -0.273438,5.35546 0.0074,2.85117 -0.02196,4.84332 0.619141,7.28711 0.6411,2.4438 2.57495,4.96786 4.001953,6.16797 1.658646,1.39493 3.336968,2.53423 5.0625,3.56836 -0.555363,0.41472 -1.013216,0.7674 -1.625,1.21485 -7.524697,5.50334 -14.599419,11.82318 -18.482426,17.5332 -1.0763,1.58273 -3.34039,4.17272 -3.13867,3.98633 -2.41278,2.2294 -4.17746,4.82165 -7.08789,10.31445 -3.7471,7.0719 -5.89961,10.23464 -5.91601,15.61328 0,0 -0.36003,0.7234 -0.58789,1.12109 -1.58669,2.7693 -1.83269,4.95169 -2.17969,7.57422 -0.34701,2.62254 -0.49676,5.49945 -0.4961,8.44532 0.001,5.89174 0.32345,11.60552 2.20704,16.60742 0.57696,1.53214 1.21018,3.00336 1.84179,4.29492 0.63162,1.29156 0.3419,1.7836 2.64649,4.04492 -0.15124,-0.1484 1.40832,1.58682 2.27148,2.6875 1.4567,1.85752 3.51429,3.81511 5.96484,5.06641 2.45056,1.25129 4.93011,1.90658 8.240239,2.6875 8.87969,2.09487 14.453826,2.75018 19.804688,1.35156 1.232687,-0.3222 5.957604,-1.21061 9.214844,-1.64844 1.914868,-0.25739 3.815432,-0.57583 5.449218,-0.90234 1.633787,-0.32651 2.327658,-0.25492 4.566407,-1.27149 0.632381,-0.28714 2.957535,-1.27347 4.710937,-1.98632 1.501316,-0.61037 3.955108,-1.71358 6.203125,-2.72071 l -0.109375,9.44532 6.927735,5.96289 1.898437,1.63281 -0.199219,4.73828 c -0.270462,6.40862 -0.194137,11.20431 0.947266,15.6875 1.141402,4.48319 3.580563,8.30664 6.574219,11.46875 1.924972,2.03329 2.339394,2.74902 2.236328,2.50977 -0.103067,-0.23926 0.03711,0.007 0.03711,2.40625 0,1.93223 0.163087,3.78486 0.480469,5.52539 0.317381,1.74053 0.267765,3.08249 2.173828,5.65429 -0.248154,-0.33482 0.732542,1.61401 0.753906,1.69532 0.481945,1.8341 1.278177,3.22465 2.328125,4.49218 2.24895,2.34169 3.733622,2.75944 4.839885,3.45704 0.507689,0.35542 1.173085,0.89796 1.623047,1.33007 2.371399,2.27733 5.683976,4.65196 8.845703,6.63672 0.9026285,0.56662 1.3007691,0.88186 1.7070312,1.18555 0.00359,0.17642 0,0.0682 0,0.33203 0,0.78207 -0.080041,1.74875 -0.1835937,2.41211 -0.045077,0.0175 -1.6768785,4.642 -2.4355465,7.4707 -0.787807,3.13496 -1.61994,7.11012 -2.517579,11.96289 -0.826469,4.46802 -1.042515,9.55932 -0.878906,14.15821 0.0818,2.29944 0.259747,4.44065 0.59375,6.40625 0.334003,1.96559 0.01818,3.47406 2.605469,6.49218 1.578752,1.84173 2.7574942,2.11519 3.6660156,2.4375 0.9085214,0.32232 1.6590163,0.47747 2.421875,0.60743 1.5257174,0.25991 3.0813149,0.36863 4.78320315,0.41015 3.40377655,0.083 7.28248905,-0.1339 10.95312525,-0.73242 1.785334,-0.29109 3.453535,-0.52452 5.582031,-1.83398 1.779671,-1.09487 3.146485,-3.39149 3.800781,-5.34375 0.05069,-0.22233 0.330727,-0.33594 0.496091,-0.50391 1.498448,-1.4203 2.177735,-3.44368 2.923826,-5.30469 1.686479,-1.45964 2.64938,-3.02127 2.886719,-5.79687 -0.104539,-0.2807 0.276879,-0.58797 0.425834,-0.90429 0.05467,3.36598 0.04148,6.92446 0.332031,9.59766 0.221166,2.03481 0.501833,3.83466 0.921875,5.50976 0.419876,1.67444 0.628583,3.17436 2.525391,5.375 8.02e-4,9.3e-4 0.0012,10e-4 0.002,0.002 l 2.087891,2.42188 c 0.563797,-0.0632 1.179316,0.0443 1.712753,0.0644 0.958103,0.33222 1.78296,0.50143 2.642579,0.64063 1.719236,0.2784 3.554367,0.38914 5.597656,0.38867 2.839346,-7.2e-4 5.087167,0.122 7.927734,-0.9375 2.840567,-1.0595 4.564842,-2.827 6.326172,-4.55664 1.374169,-1.34945 2.533838,-2.76318 3.501953,-4.26563 0.827206,-1.28376 1.670385,-2.49758 1.9375,-5.07812 0,0 0.02128,-0.51674 0.375,-0.49024 1.363865,-1.69791 1.190418,-2.69151 1.410156,-3.68164 0.273295,-1.23144 0.434904,-2.48109 0.585938,-4.00586 0.302068,-3.04952 0.509333,-7.13558 0.675781,-12.63281 0.126917,-4.19168 0.324962,-8.07362 0.533203,-10.88281 0.09916,-0.0133 0.164357,-0.0325 0.263672,-0.0449 3.064341,-0.38457 6.901985,-1.05384 9.537109,-1.70313 0.145823,-0.0359 6.437781,-0.74143 10.78711,-0.75195 7.799369,-0.0189 10.377649,0.57522 16.496098,3.7207 2.42296,1.24516 2.78993,0.9204 3.83984,1.06641 1.05041,0.14608 2.20863,0.25414 3.52148,0.3457 2.62571,0.18313 5.82946,0.28907 9.16211,0.28907 11.40152,0 19.66628,-1.12113 26.40821,-4.53516 8.17516,-4.13981 5.76464,-3.62204 12.70312,-3.36524 l 0.375,0.0137 -0.01,5.08593 c -0.0111,6.36226 -0.23118,15.22105 -0.46094,19.11914 -0.13589,2.30535 -0.26152,4.15173 -0.14258,6.13086 0.11894,1.97914 0.50303,4.61323 2.56055,6.9668 2.05752,2.35358 4.8599,3.1323 6.83593,3.4082 1.97604,0.2759 3.73257,0.25664 5.89454,0.26172 4.15006,0.01 8.21327,-0.72421 11.84179,-1.94531 3.62852,-1.2211 7.02441,-2.089 9.72852,-6.75781 1.31014,-2.26194 1.43377,-3.81293 1.63867,-5.52344 0.2049,-1.71051 0.25277,-3.47728 0.19922,-5.31055 -0.1071,-3.66654 -0.55928,-7.45862 -1.71875,-10.99023 -0.0957,-0.29147 -0.10034,-0.54584 -0.19336,-0.9375 0.2149,0.38869 0.49933,0.90514 0.42969,0.74219 0.25738,0.6022 0.6782,1.58731 0.93554,2.18945 0.58134,1.36026 1.12968,2.3049 1.85157,3.43164 -0.20863,-0.32563 1.50412,2.72735 2.63086,4.98047 1.40147,2.80249 2.35015,4.93061 4.76367,7.53516 1.99361,2.15139 4.36721,3.32644 7.05859,3.70703 2.17662,0.30779 5.1991,-0.0837 7.58399,-2.14258 0.35789,-0.14706 1.02111,-0.37468 1.65039,-0.53125 3.3364,-0.83012 6.90791,-1.90439 9.41601,-5.5586 2.5081,-3.65421 2.12386,-7.66575 1.47852,-10.92382 -0.9127,-4.60791 -1.69959,-6.8083 -5.15235,-13.69336 -0.44359,-0.88457 -0.87186,-1.87318 -1.13672,-2.57618 -0.26485,-0.70299 -0.14648,-2.18635 -0.14648,0.33008 0,-2.3847 -0.45149,-3.02125 -0.8457,-4.09179 -0.39421,-1.07054 -0.86975,-2.11738 -1.47266,-3.18555 -0.13454,-0.23837 -0.5229,-2.64793 -0.51953,-1.125 -0.009,-3.21779 -0.58676,-4.89528 -2.0957,-7.46094 0.80627,1.37094 -0.13216,-0.44786 -0.58399,-2.03711 -0.45183,-1.58924 -0.96462,-3.65564 -1.38672,-5.66015 L 218.32812,914 l 3.96094,-3.50586 c 9.06889,-8.03029 13.24805,-16.241 13.24805,-26.58203 0,-1.80519 0.0538,-1.84325 0.12891,-2.69922 0.009,-0.003 0.0161,-0.007 0.0254,-0.01 1.24127,-0.42562 2.51867,-0.9529 3.79297,-1.58398 0.6994,-0.34636 1.5432,-0.69858 2.14257,-0.91016 0.3737,0.36933 3.9719,-1.70551 6.52149,-3.7207 0.97609,-1.42612 1.29908,-2.78756 1.44726,-4.08594 0.53443,-0.15594 2.09286,-3.26313 2.79883,-4.81445 0.82623,-0.86122 1.28783,-1.75722 1.60156,-2.41992 0.57392,-1.21227 0.80351,-2.17673 0.9961,-3.14258 0.38517,-1.93169 0.50017,-3.84593 0.49609,-5.83984 -0.004,-1.99392 -0.14282,-4.00285 -0.48242,-5.96094 -0.58021,-3.3828 -1.83976,-4.96131 -2.5195,-6.32422 -0.0384,-0.048 -0.0325,-0.0764 -0.0723,-0.125 0.0403,0.0492 0.0253,-0.0471 0.0527,-0.0488 -0.12754,-1.13664 -0.39507,-2.26635 -1.09961,-3.46679 -0.36632,-0.62416 -1.09231,-1.32488 -1.83985,-1.98047 -0.43073,-1.45779 -1.211,-2.7802 -2.30859,-4.00782 -0.0427,-0.0683 -0.0346,0.1203 -0.0644,-0.13671 -0.13888,-1.1974 -0.24219,-3.74479 -0.24219,-7.5918 0,-4.45632 -0.0506,-7.40242 -0.42188,-10.09766 -0.37131,-2.69523 -1.28353,-5.23187 -2.36328,-7.1875 -2.11074,-3.82294 -4.81537,-5.97067 -8.06445,-8.67969 -2.9058,-2.4228 -5.88283,-4.55618 -9.0293,-6.13671 0.003,0.0152 -0.20889,-0.16183 -0.3457,-0.65235 -0.70737,-2.53614 -1.70209,-5.27599 -2.83398,-7.5625 -0.22187,-0.44817 -0.47029,-1.05902 -0.60938,-1.46875 0.91492,0.46219 -1.58039,-4.30389 -3.4687,-6.56054 -1.36545,-1.29788 -2.81613,-2.29005 -4.38867,-3.20313 -3.14509,-1.82615 -6.2518,-3.46875 -10.85352,-3.46875 0.13411,0 -2.29185,-0.38112 -2.6914,-0.52148 -2.43522,-0.85551 -3.74412,-0.84629 -5.99414,-1.08008 -2.25003,-0.23379 -4.85407,-0.41112 -7.4336,-0.48828 -4.26814,-0.12767 -7.06934,-0.60255 -8.54297,-1.12305 -1.47362,-0.5205 -1.64972,-0.74203 -2.16211,-1.51562 -1.87843,-2.83603 -2.99381,-3.05562 -4.5371,-4.03126 -1.5433,-0.97563 -3.28062,-1.90194 -5.12305,-2.70703 -4.90408,-2.14292 -9.18648,-2.90777 -14.37305,-2.56445 -6.58331,0.43578 -13.01749,0.53371 -17.98828,0.34766 -2.48539,-0.093 -4.61513,-0.26077 -6.10938,-0.46094 -1.49424,-0.20017 -2.60637,-0.73526 -1.5957,-0.20703 -6.21479,-3.24813 -13.81337,-2.37417 -21.48437,1.11523 -2.67576,1.21716 -3.86603,1.58785 -3.85157,1.59961 -0.0549,-0.0357 -0.052,-0.0541 -0.53906,-0.21679 -2.222575,-0.74262 -3.998606,-0.89574 -6.298826,-1.09961 -2.30022,-0.20388 -4.850591,-0.30306 -7.355469,-0.26368 -7.224984,0.11372 -11.438819,1.11958 -15.873047,3.64063 -3.661924,2.08196 -2.220757,1.69141 -8.402344,1.6914 -4.894731,0 -9.039002,0.18008 -13.191406,1.78321 -0.456998,0.17643 -3.943395,0.8457 -4.921875,0.8457 -1.715397,0 -3.333065,0.16305 -4.957031,0.57227 -1.223669,0.30835 -2.563274,0.84101 -4.019531,1.94726 0,0 -0.0069,0.005 -0.25586,0.19922 -0.09219,0.0743 -0.242187,0.0312 -0.363281,0.0469 -2.345919,0.0885 -4.215362,0.52927 -6.214844,2.33398 0,0 0.002,-0.002 -0.298828,0.2793 -0.02939,0.028 -0.08333,0.0117 -0.125,0.0176 -2.357904,0.0894 -4.236211,0.53439 -6.25,2.36523 0,0 0.055,-0.052 -0.287109,0.27148 -0.0307,0.0293 -0.08724,0.0117 -0.13086,0.0176 -2.74801,0.19284 -4.525496,0.87602 -6.748047,2.31446 l -0.214843,-0.15235 c 0.0819,-0.67626 0.06592,-0.79467 0.195312,-1.29492 0.562936,-2.17632 1.050108,-4.04156 0.929688,-6.45508 -0.120421,-2.41352 -1.034046,-4.57134 -1.869141,-6.18945 -0.286039,-0.55424 -0.587543,-1.25326 -0.759766,-1.72656 0.363328,0.84395 -0.764786,-3.32555 -1.710936,-5.8418 -0.855778,-1.87761 -1.93799,-3.77043 -3.1855469,-5.69531 -2.4951138,-3.84976 -5.5757907,-7.74805 -8.9550781,-10.83203 -9.2853552,-8.47395 -20.300235,-13.48032 -31.558594,-13.63868 z m -4.322265,13.71094 c -0.169036,0.88687 -0.585492,0.18372 4.126953,0.25 7.226547,0.10165 15.084252,3.37063 22.3398435,9.99219 2.0503456,1.87117 4.7365197,5.15838 6.6503906,8.11133 0.95693549,1.47647 1.739026,2.88718 2.19726565,3.89257 0.45823965,1.0054 0.41015625,1.85234 0.41015625,0.63282 0,2.70167 0.4856443,3.09113 0.8867188,4.19336 0.4010744,1.10223 0.8888622,2.22429 1.4726562,3.35547 0.5416828,1.04958 0.3420989,0.72139 0.3300781,0.48046 -0.012021,-0.24092 -0.02232,0.40941 -0.5019531,2.26368 -0.8530438,3.2979 -1.5316455,5.9098 -1.0390625,9.86718 0.092716,0.74488 0.1500848,1.62547 0.6796875,3.04102 0.5296027,1.41554 1.9817313,3.38941 3.6074219,4.36328 3.2513811,1.94774 4.8592351,1.46716 7.0605471,1.59766 3.754689,0.22256 7.234772,0.11487 10.816406,-2.20313 -0.258215,0.16712 -0.05927,-0.3384 0.355469,-0.24023 3.027618,0 4.951849,-0.44436 7.189453,-2.47071 -0.05138,-0.26936 0.507183,-0.28102 0.760775,-0.42153 2.344726,-0.0887 3.869308,-0.40519 5.868131,-2.20933 0.296875,-0.27734 -0.0039,0.004 0.296875,-0.27734 0.02939,-0.028 0.252105,-0.0985 0.293772,-0.10435 2.360677,-0.0893 4.068865,-0.44961 6.085134,-2.28432 0.28957,-0.0503 0.654065,-0.11719 1.214844,-0.11719 3.45912,0 6.66447,-0.51431 9.951172,-1.7832 -0.109224,0.0422 4.4169,-0.84375 8.162109,-0.84375 6.632034,0 10.894707,-1.01142 15.302735,-3.51758 3.665391,-2.08393 2.35453,-1.7088 9.191406,-1.81641 1.966212,-0.0309 4.131052,0.0538 5.904297,0.21094 1.773245,0.15717 3.428909,0.54101 3.107422,0.4336 1.786399,0.59688 4.534546,1.2589 7.203126,0.79492 2.66858,-0.46398 4.49423,-1.39448 7.39258,-2.71289 6.02981,-2.74286 7.05596,-2.58776 9.23437,-1.44922 2.46494,1.2883 4.05021,1.38242 6.21094,1.67187 2.16073,0.28946 4.64376,0.46958 7.43945,0.57422 5.59139,0.20929 12.39781,0.0985 19.4336,-0.36719 4.30467,-0.28494 3.70517,-0.38947 7.85937,1.42579 1.14326,0.49957 2.39164,1.16974 3.25391,1.71484 0.93554,0.99632 5.17533,4.58904 9.50976,6.91016 3.72212,1.31468 7.78248,1.76471 12.77539,1.91406 2.21398,0.0662 4.55398,0.22726 6.40821,0.41992 1.85422,0.19266 3.81018,0.7171 2.80859,0.36523 2.46773,0.86694 4.54727,1.31055 7.32031,1.31055 -0.60446,0 2.1374,0.5924 3.8418,1.58203 0.55751,0.32371 0.82605,0.55765 1.16406,0.81641 0.14345,0.49429 0.31711,0.87435 0.48242,1.36133 0.35624,1.04934 0.78869,2.10387 1.31836,3.17383 0.37117,0.74977 1.50546,3.71522 1.89649,5.11718 0.98396,3.52781 2.6514,7.08956 7.02344,9.03516 1.00944,0.44921 4.25367,2.5543 6.86132,4.72851 2.60765,2.17421 5.0694,5.22501 4.78125,4.70313 0.52605,0.95276 0.57046,0.99794 0.75586,2.34375 0.18541,1.34581 0.29102,3.90228 0.29102,8.19336 0,4.03886 0.0593,6.83338 0.33398,9.20117 0.61794,2.54452 1.82554,4.9589 3.15235,7.25977 0.36157,1.33115 0.85349,2.48242 1.71484,3.70703 0.16087,0.22871 0.49331,0.55785 0.6875,0.84375 0.39613,2.23692 1.36562,3.3494 2.76953,5.06445 -1.23683,-1.51097 -0.51874,-0.9267 -0.35937,-0.008 0.15937,0.91889 0.27469,2.3071 0.27734,3.60351 0.002,0.87467 -0.0837,1.45136 -0.15234,2.07813 -2.37043,2.9601 -2.05956,3.80813 -2.54883,5.05859 -1.39404,1.0931 -1.90342,2.80939 -2.57809,4 -0.97441,0.37101 -1.96046,0.75941 -2.95898,1.25391 -0.67135,0.33247 -1.5142,0.67923 -2.125,0.88867 -0.42596,-0.0702 -2.96302,0.93745 -5.50977,1.99805 -1.83921,1.43023 -2.75692,3.3375 -3.21875,4.83008 -0.92365,2.98515 -0.86132,5.40238 -0.86132,9.08984 0,7.85793 -0.67562,9.16428 -8.54102,16.12891 l -10.03906,8.89062 2.49609,11.85742 c 0.49094,2.33147 1.0613,4.63747 1.61914,6.59961 0.55785,1.96214 0.55531,2.87362 1.98047,5.29688 -0.27114,-0.46102 0.17081,1.40832 0.16797,0.42187 0.0101,3.76323 0.89916,5.4279 2.32226,7.94922 0.17598,0.31178 0.41015,0.8229 0.5293,1.14648 0.11916,0.32359 -0.0137,0.91701 -0.0137,-0.73242 0,3.25169 0.57381,3.34651 1.04297,4.5918 0.46916,1.24529 1.05258,2.57787 1.72266,3.91406 3.41987,6.8195 3.0625,5.74077 3.93554,10.14844 0.004,0.019 3e-4,0.007 0.004,0.0254 -0.24326,0.0799 -0.20961,0.10118 -0.57227,0.19141 -1.33358,0.3318 -2.5613,0.73122 -3.72461,1.21875 -0.004,0.002 -0.008,0.004 -0.0117,0.006 -0.60479,-0.93643 -0.89882,-1.36425 -1.46093,-2.48829 -1.24359,-2.48677 -2.22866,-4.49662 -3.36328,-6.26757 -0.20411,-0.31858 -0.83417,-1.54059 -0.76758,-1.38477 -0.25742,-0.6023 -0.67815,-1.58917 -0.93555,-2.1914 -0.63199,-1.47879 -1.19651,-2.39752 -1.98437,-3.56641 -0.14622,-0.21692 -0.84818,-1.49986 -0.86719,-1.54297 -1.5608,-3.53836 -3.91212,-6.49937 -6.40235,-9.39453 -1.24511,-1.44758 -2.481,-2.76514 -3.75976,-3.91016 -0.63938,-0.57251 -1.27196,-1.10199 -2.11914,-1.64843 -0.84718,-0.54645 -1.64999,-1.47461 -4.6543,-1.47461 -3.24708,0 -5.69277,1.92499 -6.9375,3.49804 -1.24473,1.57305 -1.8331,3.07779 -2.25586,4.59766 -0.84551,3.03973 -0.99968,6.22788 0.13477,9.72656 0.28185,0.86924 0.74414,3.91356 0.74414,4.23242 0,3.44037 0.73409,6.3974 1.75976,9.52149 0.46465,1.41527 0.9525,4.48064 1.02735,7.04297 0.033,1.12913 -0.0215,2.09364 -0.0937,2.85742 -0.43813,0.31305 -1.05189,0.78454 -1.97071,1.09375 -2.10845,0.70955 -5.01071,1.22026 -7.35546,1.21484 -0.68221,-0.002 -0.76807,-0.0296 -1.30274,-0.041 0.0256,-0.70449 0.005,-0.96652 0.0625,-1.94141 0.26904,-4.56434 0.47283,-13.27227 0.48438,-19.91797 l 0.0332,-18.56445 -13.8457,-0.51367 c -7.2358,-0.26782 -11.19621,0.64449 -19.52735,4.86328 -3.57281,1.80923 -9.69691,3.02929 -20.09961,3.02929 -3.02775,0 -5.99036,-0.10234 -8.1914,-0.25586 -1.10052,-0.0768 -2.01909,-0.1697 -2.56836,-0.24609 -0.54928,-0.0764 -1.30783,-0.64691 0.61914,0.34375 -7.38598,-3.79712 -13.943961,-5.28534 -22.912111,-5.26367 -5.164052,0.0125 -10.070306,0.1644 -14.095703,1.15625 -1.536096,0.37849 -5.559115,1.11021 -7.933594,1.4082 h -0.002 c -1.581876,0.19853 -3.074326,0.45566 -4.400391,0.75977 -0.663032,0.15205 -1.273628,0.30943 -1.945312,0.5332 -0.671685,0.22377 -1.090334,-0.13893 -3.197266,1.79883 -1.967953,1.80989 -1.77141,2.49068 -1.949219,3.00391 -0.177808,0.51322 -0.246882,0.82723 -0.310547,1.12304 -0.127328,0.59163 -0.194918,1.07231 -0.265625,1.6211 -0.141413,1.09757 -0.261072,2.3982 -0.376953,3.95312 -0.231761,3.10985 -0.43535,7.17157 -0.568359,11.56445 -0.161852,5.34544 -0.373104,9.25498 -0.613281,11.67969 -0.08765,0.88489 -0.202623,1.19398 -0.273833,1.61659 -0.799673,1.72649 -1.390634,3.62993 -1.876562,5.45372 -0.310827,0.48239 -0.928727,1.25824 -1.548828,1.86719 -1.63283,1.60346 -1.817476,1.58237 -1.423828,1.43555 0.393647,-0.14683 -0.344027,0.056 -3.050781,0.0566 -0.569713,1.3e-4 -0.820926,-0.0547 -1.302735,-0.0801 -0.104456,-0.62578 -0.21078,-1.03914 -0.300781,-1.86719 -0.349095,-3.21182 -0.526313,-7.73135 -0.427734,-12.83398 0.10789,-5.58499 -0.258,-10.94165 -0.986329,-15.33203 -0.364164,-2.19519 -0.791865,-4.12347 -1.480468,-5.98242 -0.344302,-0.92948 -0.731862,-1.84855 -1.458985,-2.91602 -0.727123,-1.06746 -1.85377,-2.58806 -4.453125,-3.38867 -2.170877,-0.66861 -4.468425,-0.14195 -5.824219,0.58594 -1.355793,0.72788 -2.102741,1.54852 -2.679687,2.29101 -1.153892,1.48499 -1.662518,2.84701 -2.011719,4.35742 -0.04334,0.18745 -0.946726,2.4874 -1.15625,2.84571 -1.311759,2.24313 -2.138123,2.08109 -2.212483,6.06914 0.02498,0.29023 -0.308087,0.69713 0.02498,0.29023 -2.272484,2.81933 -2.52439,5.69468 -3.02734,8.13668 -1.35062,1.62897 -2.317717,2.78584 -2.634765,5.36524 -1.565712,1.37898 -2.4934515,2.83138 -2.8144532,5.13281 l -0.035156,0.39458 c -7.436e-4,0.007 -0.010417,0.0104 -0.015625,0.0156 -0.8956027,0.87947 -1.7091218,1.86738 -2.1191406,2.83399 -2.6471087,0.42903 -5.4179984,0.39841 -7.83203128,0.4883 -0.0975108,-0.91167 -0.21256812,-1.71303 -0.25390624,-2.875 -0.13126278,-3.68966 0.1202171,-8.23183 0.65429687,-11.11914 0.86374532,-4.66954 1.65828885,-8.42828 2.33007815,-11.10156 0.6717893,-2.67329 1.59191,-4.62762 1.140625,-3.87305 1.4690839,-2.45635 1.3226164,-3.39854 1.5488281,-4.84766 0.2262117,-1.44912 0.3515625,-2.97795 0.3515625,-4.56445 0,-2.16597 0.1216833,-5.09877 -1.84375,-8.0332 -1.9654333,-2.93444 -3.94225727,-3.76502 -6.4042969,-5.31055 -2.3130033,-1.45198 -5.9496789,-4.26054 -6.5976562,-4.88281 -1.0597272,-1.01768 -2.1612962,-1.91048 -3.2851562,-2.69727 -0.669884,-0.46897 -1.308548,-0.89151 -2.09961,-1.30078 -1.440526,-3.35578 -1.910727,-4.30013 -2.267578,-5.06445 -0.140915,-0.77279 -0.253906,-1.94185 -0.253906,-3.01953 0,-2.60946 0.02822,-5.13024 -1.177734,-7.92969 -1.205959,-2.79945 -2.885655,-4.4372 -4.919922,-6.58594 -2.007261,-2.12021 -2.636831,-3.16688 -3.183594,-5.31445 -0.546763,-2.14757 -0.776748,-5.74269 -0.527344,-11.65235 l 0.484375,-11.49804 -7.027344,-6.04688 -1.996093,-1.71875 0.04883,-4.2207 c 0.02734,-2.3142 0.04278,-4.17709 -0.19336,-6.11914 -0.236136,-1.94205 -0.566362,-4.67099 -3.472656,-7.03711 -2.906294,-2.36612 -6.502023,-2.03209 -8.460937,-1.52344 -1.958914,0.50865 -3.48648,1.22733 -5.351563,2.08594 -2.610502,1.20176 -6.380214,2.8507 -7.96289,3.49414 -3.08506,1.52486 -4.437691,1.74108 -6.753907,2.50195 -1.287255,0.25726 -2.962411,0.53752 -4.572265,0.75391 -3.792221,0.50973 -8.113066,1.25354 -10.886719,1.97851 -2.136118,0.55835 -4.811576,0.51582 -13.066406,-1.43164 -2.979023,-0.7028 -4.527753,-1.2422 -5.097663,-1.5332 -0.5699,-0.291 -0.52318,-0.22411 -1.32617,-1.24805 -2.76035,-3.16963 -2.26694,-2.83266 -3.36328,-4.25 -0.39934,-0.8166 -0.90161,-1.97339 -1.31836,-3.08007 -0.45927,-1.2196 -1.30944,-6.81141 -1.31054,-11.69141 -5.6e-4,-2.44 0.13958,-4.8154 0.37695,-6.60937 0.23737,-1.79398 0.31065,-2.0627 0.45117,-2.46485 1.42818,-2.49266 2.4235,-4.01371 2.43555,-8.01953 0.49988,-0.0784 0.74997,-2.43246 4.29297,-9.11914 2.800493,-5.28534 2.708546,-5.19487 4.224607,-6.5957 2.11204,-1.95153 3.605131,-4.03214 5.208984,-6.39063 1.638198,-2.409 8.682632,-9.3649 15.177735,-14.11523 1.34257,-0.98192 2.61136,-1.93092 3.613281,-2.69922 0.50096,-0.38415 0.931473,-0.72003 1.300781,-1.01758 0.08819,-0.0711 0.277341,-0.27235 0.332032,-0.30273 0.102838,-0.0453 0.212577,-0.0956 0.298828,-0.125 2.401955,-0.82007 4.518089,-2.83431 5.478515,-4.9668 0.960427,-2.13249 1.02205,-4.23171 0.634766,-6.10938 -0.774568,-3.75533 -3.876554,-7.54774 -8.644531,-8.16992 -0.02351,-0.003 -2.769877,-1.13272 -5.216797,-3.02929 -0.02677,-0.30649 -0.129239,-0.98154 -0.134766,-3.125 v -0.002 c -0.0032,-1.10513 0.06579,-1.89017 0.125,-2.65039 0.494914,-0.6011 0.855023,-1.24451 1.224609,-1.88476 1.033427,-0.21298 2.014095,-0.45848 2.970704,-0.82422 0.548068,-0.20955 1.089318,-0.43836 1.748046,-0.81446 2.703224,0.22468 5.08276,0.96007 7.142579,1.44927 6.610373,1.81076 12.018713,2.77352 17.183593,2.40821 5.164881,-0.36532 9.951814,-2.38818 13.753907,-5.45899 z"
       id="path851"
       inkscape:connector-curvature="0"
       sodipodi:nodetypes="ccsccccccccccccccccccccccccccccsscccccccsscsscccccscsccscscccccccccccssccccscscccccsscccccscscccccscscscsscccccsccccsccccscccccccsccccccccccccccscccscssccccccccssccccscsccccccsccssccccccccccccssccscccccccccscccscscccccccccscsccccssccccscccscccccccssccsccccccccccccccscccccccccscccccccccccccscssccsccccccccccssccccscccscccssscccccccscsccccccccccccccccssscssccccccsccsccccccsscccccccccccsccscscscccsscccccccccccc" />
  </g>
</svg>
